<?xml version="1.0" encoding="UTF-8"?>
<svg version="1.1" xmlns="http://www.w3.org/2000/svg" viewBox="0 0 512 512">
<path d="M0 0 C7.96332212 7.20502298 15.08747552 14.98870492 21.64599609 23.48925781 C22.28770752 24.31635254 22.28770752 24.31635254 22.94238281 25.16015625 C58.10600085 70.77029387 73.03967998 127.64761574 66.12451172 184.69775391 C58.74233639 239.17788266 30.39818417 290.73267406 -13.35400391 324.48925781 C-13.90540039 324.91706543 -14.45679688 325.34487305 -15.02490234 325.78564453 C-60.63503996 360.94926257 -117.51236183 375.8829417 -174.5625 368.96777344 C-229.04262876 361.5855981 -280.59742015 333.24144589 -314.35400391 289.48925781 C-314.78181152 288.93786133 -315.20961914 288.38646484 -315.65039062 287.81835938 C-350.81400866 242.20822175 -365.74768779 185.33089989 -358.83251953 128.28076172 C-352.33389625 80.32120822 -330.36235048 37.65905144 -296.35400391 3.48925781 C-295.79632324 2.92754883 -295.23864258 2.36583984 -294.6640625 1.78710938 C-226.04775305 -66.48882154 -114.24510809 -75.76512424 0 0 Z M-270.72509766 39.67285156 C-303.93391656 76.70426833 -318.20898215 121.16744753 -316.35400391 170.48925781 C-313.54137657 212.35935994 -292.57048601 254.49512225 -261.35400391 282.48925781 C-224.37019777 314.67775683 -180.0786245 328.78829903 -131.35400391 326.48925781 C-88.1997502 323.41139128 -46.53673534 300.99956046 -18.01806641 268.85644531 C12.99204929 230.9551928 27.79782566 185.78823333 23.18505859 136.72753906 C18.05063103 92.92242291 -4.97546939 51.40280933 -39.35009766 23.80957031 C-64.22846645 4.59272888 -92.22927958 -7.78766721 -123.35400391 -12.51074219 C-125.11744141 -12.78724609 -125.11744141 -12.78724609 -126.91650391 -13.06933594 C-180.08331852 -19.44294805 -233.83582112 1.30430579 -270.72509766 39.67285156 Z " fill="#000000" transform="translate(402.35400390625,99.5107421875)"/>
<path d="M0 0 C6.34644319 3.76573185 9.71818467 9.34019784 11.5625 16.375 C11.9780558 20.11728991 11.98313371 23.82680849 11.96655273 27.58935547 C11.97341599 28.6863678 11.98027924 29.78338013 11.98735046 30.91363525 C12.00558214 34.52328607 12.00178568 38.13250072 11.99609375 41.7421875 C12.00065751 44.26270691 12.00596366 46.78322508 12.01197815 49.30374146 C12.02090232 54.58095232 12.01872963 59.85805096 12.00854492 65.13525391 C11.99707281 71.21338688 12.01113149 77.29107813 12.0379414 83.3691529 C12.06286688 89.24247368 12.06525973 95.11562406 12.05882454 100.98898697 C12.05867161 103.47596089 12.06469219 105.96294343 12.07711601 108.44988632 C12.09206991 111.93420567 12.0813151 115.41756519 12.06420898 118.90185547 C12.07387695 119.91931854 12.08354492 120.93678162 12.09350586 121.9850769 C12.01831422 129.3359158 10.89220786 136.66974303 5.81250668 142.32237053 C-0.05101339 147.71723751 -5.58895716 148.84161755 -13.4296875 148.6875 C-19.40502727 148.06668548 -23.01343901 145.76741519 -27.25 141.625 C-32.22538452 134.23300013 -32.87982423 127.84519228 -32.84155273 119.16064453 C-32.84841599 118.0636322 -32.85527924 116.96661987 -32.86235046 115.83636475 C-32.88058214 112.22671393 -32.87678568 108.61749928 -32.87109375 105.0078125 C-32.87565751 102.48729309 -32.88096366 99.96677492 -32.88697815 97.44625854 C-32.89590232 92.16904768 -32.89372963 86.89194904 -32.88354492 81.61474609 C-32.87207281 75.53661312 -32.88613149 69.45892187 -32.9129414 63.3808471 C-32.93786688 57.50752632 -32.94025973 51.63437594 -32.93382454 45.76101303 C-32.93367161 43.27403911 -32.93969219 40.78705657 -32.95211601 38.30011368 C-32.96706991 34.81579433 -32.9563151 31.33243481 -32.93920898 27.84814453 C-32.94887695 26.83068146 -32.95854492 25.81321838 -32.96850586 24.7649231 C-32.89331422 17.4140842 -31.76720786 10.08025697 -26.68750668 4.42762947 C-19.41460843 -2.26396845 -9.1709592 -4.18446808 0 0 Z " fill="#000000" transform="translate(266.4375,150.625)"/>
<path d="M0 0 C5.30020616 3.15174783 9.22263819 7.33459586 11.79296875 12.96484375 C13.5248796 20.83716582 12.47238728 27.08935319 8.48046875 34.08984375 C4.28885368 39.02234962 -0.32813027 41.63051214 -6.80078125 42.33984375 C-13.12963839 42.65237991 -18.15205964 41.51227119 -23.51953125 38.08984375 C-28.92017369 32.92401185 -31.14620412 27.44978795 -31.95703125 20.15234375 C-31.69181113 14.52746706 -29.65203841 9.41036778 -25.8359375 5.2578125 C-18.45660835 -1.26456229 -9.64671512 -3.48478236 0 0 Z " fill="#000000" transform="translate(265.51953125,320.91015625)"/>
</svg>
