<?xml version="1.0" encoding="UTF-8"?>
<svg version="1.1" xmlns="http://www.w3.org/2000/svg" viewBox="0 0 512 512">
<path d="M0 0 C1.12591738 -0.00583219 2.25183475 -0.01166439 3.41187084 -0.01767331 C4.6490121 -0.01389399 5.88615337 -0.01011467 7.16078377 -0.00622082 C8.47487193 -0.01004636 9.7889601 -0.01387191 11.14286911 -0.01781338 C14.7935847 -0.02812183 18.4442024 -0.02590435 22.09492612 -0.02163279 C26.03094185 -0.0191707 29.9669337 -0.02817331 33.90294075 -0.03567028 C41.61541919 -0.04843397 49.32786284 -0.05020888 57.04035006 -0.04787002 C63.30832375 -0.04608848 69.57628685 -0.04783298 75.84425926 -0.05209446 C76.73565128 -0.05268965 77.62704331 -0.05328484 78.54544721 -0.05389806 C80.35620069 -0.05510979 82.16695416 -0.05632392 83.97770764 -0.05754044 C100.96770352 -0.06842252 117.95767956 -0.06625039 134.94767655 -0.06015559 C150.49539001 -0.05498646 166.0430408 -0.0662406 181.59074186 -0.08525381 C197.54893852 -0.10461964 213.50710553 -0.11289038 229.46531403 -0.10913056 C238.42708658 -0.10721653 247.3888058 -0.10972567 256.35056877 -0.1238451 C263.98023835 -0.13574393 271.60982179 -0.1371807 279.23949252 -0.12505493 C283.13288195 -0.11915554 287.02611369 -0.11809594 290.91949272 -0.13005733 C295.13872064 -0.14286924 299.35757135 -0.13247687 303.57679939 -0.11974621 C304.80947922 -0.12712049 306.04215904 -0.13449478 307.3121928 -0.14209253 C314.26930606 -0.09776817 319.12641726 0.29664227 324.54265022 5.05135059 C325.10468147 5.69588184 325.66671272 6.34041309 326.24577522 7.00447559 C326.81811897 7.63869434 327.39046272 8.27291309 327.98015022 8.92635059 C331.29053128 14.01136893 331.74605257 19.49417474 331.75025082 25.43132305 C331.75345729 26.12218331 331.75666377 26.81304357 331.75996742 27.52483898 C331.76824927 29.83298658 331.76234959 32.14087345 331.75647163 34.44902515 C331.75949315 36.12332299 331.76338263 37.79761944 331.7680642 39.47191346 C331.77835296 44.06778526 331.77616014 48.66357913 331.77188361 53.25945735 C331.76941798 58.2179799 331.77842851 63.17648361 331.7859211 68.13499928 C331.79867466 77.84734457 331.80046097 87.55966223 331.79812083 97.27201448 C331.79633825 105.16603425 331.79808603 113.06004561 331.80234528 120.95406437 C331.80294046 122.0773141 331.80353565 123.20056382 331.80414888 124.35785142 C331.80536062 126.63969111 331.80657476 128.92153079 331.80779126 131.20337047 C331.81866932 152.60568329 331.81650303 174.00798036 331.81040641 195.41029407 C331.805237 214.99089746 331.81649288 234.57145109 331.83550463 254.15204464 C331.85487528 274.25636504 331.86314039 294.36066189 331.85938138 314.46499169 C331.85746816 325.75245019 331.85996862 337.03986635 331.87409592 348.32731724 C331.88600083 357.93639759 331.88742458 367.54540954 331.87530575 377.15449081 C331.86941084 382.05684397 331.86833459 386.95907195 331.88030815 391.86141682 C331.89114568 396.35081473 331.88808894 400.83998262 331.87404647 405.32936968 C331.87139367 406.95178617 331.87378435 408.57422055 331.88178233 410.1966195 C331.96495766 428.33020953 331.96495766 428.33020953 326.84733772 435.59431934 C326.2775721 436.12154591 325.70780647 436.64877247 325.12077522 437.19197559 C324.55616585 437.73724903 323.99155647 438.28252247 323.40983772 438.84431934 C318.73418109 442.2890378 314.2133699 442.53093307 308.56999397 442.44978809 C307.82240318 442.4469582 307.07481239 442.4441283 306.30456734 442.44121265 C303.93063642 442.43007028 301.55709097 442.40497721 299.18327522 442.37947559 C297.56804632 442.36943809 295.95281147 442.36031358 294.3375721 442.35213184 C290.39015928 442.33015048 286.44303248 442.29566216 282.49577522 442.25447559 C282.52719612 443.28218067 282.52719612 443.28218067 282.55925179 444.33064747 C282.64302921 447.47177082 282.69462936 450.61265823 282.74577522 453.75447559 C282.79604866 455.37095997 282.79604866 455.37095997 282.84733772 457.02010059 C282.94260339 464.83188494 281.94666252 470.33438871 276.71452522 476.27791309 C276.14733772 476.72392872 275.58015022 477.16994434 274.99577522 477.62947559 C274.42858772 478.09095997 273.86140022 478.55244434 273.27702522 479.02791309 C269.44531821 481.6664131 266.71387272 482.50491261 262.02837181 482.5117445 C260.35179603 482.52141784 260.35179603 482.52141784 258.64135003 482.5312866 C256.79935733 482.52664079 256.79935733 482.52664079 254.92015266 482.52190113 C252.96338777 482.5286978 252.96338777 482.5286978 250.96709228 482.53563178 C247.34304559 482.54788324 243.71909108 482.54759879 240.0950284 482.54524302 C236.18760087 482.54483539 232.2802031 482.55586895 228.37278938 482.56535816 C220.71579181 482.58198146 213.05882502 482.58746833 205.40181091 482.58858292 C199.17771356 482.58953287 192.95362638 482.59364052 186.72953224 482.59998417 C169.08567589 482.61760108 151.44184388 482.62682247 133.79797867 482.62532322 C132.37076589 482.62520335 132.37076589 482.62520335 130.91472054 482.62508106 C129.9620843 482.6249993 129.00944806 482.62491754 128.02794406 482.6248333 C112.59149576 482.62402052 97.15514507 482.64315493 81.718725 482.6713578 C65.87125886 482.70008328 50.02384033 482.71389824 34.17634749 482.71217024 C25.2782064 482.71150617 16.3801676 482.71700584 7.48204994 482.73852634 C-0.0948787 482.75673386 -7.6716587 482.76108913 -15.24859974 482.7475075 C-19.1139313 482.74097531 -22.97897768 482.74086937 -26.84428215 482.758214 C-31.0366267 482.77683245 -35.22831036 482.76439665 -39.42066765 482.74895191 C-41.24927601 482.7643826 -41.24927601 482.7643826 -43.11482596 482.78012502 C-50.88991695 482.71673609 -56.63952803 481.87296579 -62.52766228 476.35994434 C-62.9736779 475.72701466 -63.41969353 475.09408497 -63.87922478 474.44197559 C-64.57145134 473.50418262 -64.57145134 473.50418262 -65.27766228 472.54744434 C-69.24685008 465.12733849 -68.79946622 457.46603346 -68.79183769 449.2551012 C-68.79772637 447.8193272 -68.8044666 446.38355649 -68.81198257 444.94779009 C-68.83000916 441.01129252 -68.83557129 437.07486196 -68.83896935 433.13832819 C-68.84473836 428.88942845 -68.86186487 424.64057137 -68.87731743 420.39169788 C-68.91202331 410.1386635 -68.92764738 399.88563281 -68.94144073 389.63255253 C-68.94840675 384.80253403 -68.95756228 379.97251979 -68.96654892 375.14250469 C-68.99574163 359.0861285 -69.02053888 343.02975647 -69.03117275 326.97335625 C-69.03186345 325.94638587 -69.03255414 324.9194155 -69.03326577 323.86132481 C-69.03395778 322.83192329 -69.0346498 321.80252176 -69.03536278 320.74192625 C-69.03677477 318.65602147 -69.03819558 316.57011669 -69.03962517 314.48421192 C-69.04033034 313.44953498 -69.04103551 312.41485803 -69.04176205 311.34882724 C-69.0540192 294.57393418 -69.09683337 277.79926678 -69.15256537 261.02446742 C-69.20933233 243.79829159 -69.23982171 226.57222994 -69.24418491 209.3459596 C-69.24726743 199.67535175 -69.26177929 190.00505779 -69.3054657 180.33454037 C-69.34254991 172.10252007 -69.35575703 163.87089874 -69.33776081 155.63880689 C-69.32930298 151.43908242 -69.33216861 147.24017286 -69.36557961 143.040555 C-69.39590998 139.19414971 -69.39379365 135.34916274 -69.3660916 131.50275021 C-69.36175182 130.11317407 -69.36919571 128.72349934 -69.38976461 127.33406866 C-69.5514452 115.68195414 -69.5514452 115.68195414 -65.10024548 110.5075388 C-63.93435019 109.38801615 -62.73885431 108.29770744 -61.50422478 107.25447559 C-60.71500633 106.53660374 -59.92578789 105.81873188 -59.11265373 105.07910633 C-58.40285362 104.52233707 -57.69305351 103.96556782 -56.96174431 103.39192677 C-31.37175506 83.85587966 -31.37175506 83.85587966 -18.03736687 55.99048328 C-17.06113703 44.98064683 -17.56669591 33.83774181 -19.06332207 22.88930225 C-19.84280045 16.63889825 -19.24176284 12.44223235 -15.50422478 7.25447559 C-10.92666264 2.44858597 -6.62596007 0.00590025 0 0 Z M-5.29841423 15.89021778 C-7.01026827 19.24668559 -6.87593249 22.40565767 -6.79719353 26.08260059 C-6.79294868 26.83160633 -6.78870384 27.58061207 -6.78433037 28.35231495 C-6.76758223 30.73673934 -6.72993875 33.12030812 -6.69172478 35.50447559 C-6.67667287 37.12425502 -6.66298535 38.74404775 -6.65070915 40.36385059 C-6.61769158 44.32772025 -6.56593724 48.29095302 -6.50422478 52.25447559 C-5.43935623 51.36145903 -4.37747436 50.46488089 -3.31672478 49.56697559 C-2.72504509 49.06810841 -2.1333654 48.56924122 -1.52375603 48.05525684 C0.62470907 46.25305259 0.62470907 46.25305259 2.46612263 43.68160915 C6.861503 40.16035552 10.50777071 40.55837729 15.989748 40.61955738 C17.05826632 40.61175743 18.12678463 40.60395747 19.22768229 40.59592116 C22.81454717 40.57594925 26.40035721 40.59178728 29.9872303 40.60750294 C32.55624194 40.60072907 35.12524873 40.59182724 37.69424629 40.58095264 C43.95217475 40.5587139 50.20980344 40.56352473 56.46774367 40.57801585 C61.55530049 40.5893087 66.6427733 40.5908388 71.73033905 40.58539677 C72.81657517 40.58424752 72.81657517 40.58424752 73.92475545 40.58307505 C75.39591595 40.58147641 76.86707644 40.57985534 78.33823689 40.5782121 C92.13603421 40.56395196 105.93366548 40.58034981 119.73143556 40.60721393 C131.56385406 40.62953883 143.3960272 40.62568466 155.22844124 40.60262012 C168.97226348 40.57584224 182.71594 40.56534022 196.45978469 40.58068144 C197.92644447 40.58227416 199.39310427 40.58384601 200.8597641 40.58539677 C201.94215848 40.58655383 201.94215848 40.58655383 203.04641942 40.58773427 C208.12479169 40.59204639 213.20307136 40.584775 218.28142929 40.572999 C225.12285896 40.55748343 231.96381834 40.56858399 238.80520248 40.59747028 C241.31581542 40.60407972 243.82646733 40.60218597 246.33706474 40.59115696 C249.76551892 40.57748507 253.19249162 40.59464023 256.62085152 40.61955738 C257.61356664 40.60840377 258.60628176 40.59725016 259.62907916 40.58575857 C266.15467445 40.67769376 270.4267909 42.08558975 275.49577522 46.25447559 C280.29620486 51.30755942 281.74362457 55.80880988 281.75748825 62.71061134 C281.76495374 64.02335653 281.77241924 65.33610172 281.78011096 66.68862706 C281.7783342 68.14382977 281.77637331 69.59903226 281.77424812 71.0542345 C281.77925074 72.60122809 281.78512643 74.14821906 281.79180086 75.69520634 C281.80761902 79.94811157 281.81103254 84.20095077 281.81244946 88.45388186 C281.81614033 93.03940474 281.83129424 97.62489127 281.84506416 102.21039295 C281.86735064 110.15572511 281.88235558 118.10104436 281.89243126 126.04640102 C281.90700954 137.53408442 281.93254397 149.02172285 281.96076255 160.50937989 C282.00624601 179.146812 282.0428544 197.78425058 282.07390022 216.42171192 C282.1040794 234.52751775 282.13842676 252.63330775 282.17839241 270.73909473 C282.18208473 272.41282883 282.18208473 272.41282883 282.18585165 274.12037573 C282.19822613 279.71806536 282.21068268 285.3157548 282.22318006 290.91344416 C282.32677113 337.36043257 282.41596671 383.80744064 282.49577522 430.25447559 C286.84981387 430.34203232 291.20362399 430.39505529 295.55827522 430.44197559 C296.78739632 430.46711231 298.01651741 430.49224903 299.2828846 430.51814747 C308.35517986 430.69620247 308.35517986 430.69620247 316.49577522 427.25447559 C318.60285387 423.27663071 318.74707571 419.83226518 318.75025082 415.37781334 C318.75345729 414.69511548 318.75666377 414.01241761 318.75996742 413.30903193 C318.76828255 411.01663706 318.76233792 408.72450241 318.75647163 406.43210316 C318.75949163 404.77389254 318.76338034 403.11568331 318.7680642 401.45747656 C318.77837251 396.89690039 318.77615519 392.33640258 318.77188361 387.7758199 C318.76942153 382.85890131 318.77842407 377.94200185 318.7859211 373.02509022 C318.79868438 363.39101529 318.80045978 353.75696821 318.79812083 344.12288625 C318.7963394 336.29410559 318.79808355 328.46533341 318.80234528 320.63655376 C318.80323806 318.96662562 318.80323806 318.96662562 318.80414888 317.26296155 C318.8053606 315.0014896 318.80657473 312.74001766 318.80779126 310.47854572 C318.81867298 289.26041329 318.81650125 268.04229675 318.81040641 246.82416343 C318.80523617 227.4030692 318.81649441 207.98202512 318.83550463 188.56094081 C318.8548651 168.62959007 318.86314221 148.69826307 318.85938138 128.76690286 C318.85746667 117.57284867 318.85998307 106.37883716 318.87409592 95.18479061 C318.88598785 85.65572499 318.88743921 76.12672833 318.87530575 66.5976618 C318.86940178 61.73417395 318.86835945 56.87081237 318.88030815 52.0073328 C318.89111527 47.55687005 318.88812557 43.10663982 318.87404647 38.65618818 C318.87138523 37.04453239 318.87381055 35.43285868 318.88178233 33.82122041 C318.89185712 31.63285794 318.88349399 29.4453086 318.87050533 27.25697899 C318.87058786 25.43269114 318.87058786 25.43269114 318.87067205 23.571549 C318.44982533 19.84791258 317.45129558 17.43544744 315.49577522 14.25447559 C310.03372725 11.17886222 303.21213087 11.97740738 297.11502266 12.00050831 C295.22602339 11.99582834 295.22602339 11.99582834 293.29886252 11.99105382 C289.81035058 11.98271208 286.3219482 11.98682824 282.83343589 11.99302626 C279.06857685 11.99755223 275.30373661 11.99056629 271.5388813 11.98506641 C264.16657047 11.9761726 256.79430037 11.9780943 249.42198794 11.9838917 C243.43103732 11.98840788 237.44009811 11.98902128 231.44914627 11.98684406 C230.59659156 11.9865376 229.74403685 11.98623113 228.86564716 11.98591538 C227.13372901 11.98527593 225.40181087 11.9846275 223.66989274 11.9839702 C207.4295916 11.97826702 191.18931305 11.98482477 174.94901562 11.99557093 C161.01105895 12.00450803 147.07313559 12.00295306 133.13517952 11.99373341 C116.95156273 11.98303332 100.76796571 11.97881465 84.58434588 11.98495793 C82.85909339 11.98559504 81.1338409 11.98622378 79.40858841 11.98684406 C78.55971593 11.98715261 77.71084346 11.98746116 76.83624757 11.98777907 C70.85128628 11.98950667 64.86633753 11.98658952 58.88137817 11.98188496 C51.58953852 11.97627911 44.29774194 11.9777864 37.00590723 11.98844644 C33.28480736 11.9937069 29.56377933 11.99575353 25.84267998 11.98914814 C21.811572 11.98210059 17.78064583 11.99050892 13.74954414 12.00050831 C12.56978899 11.99604686 11.39003384 11.99158542 10.17452854 11.98698878 C8.55581721 11.99481202 8.55581721 11.99481202 6.90440464 12.00279331 C5.50868486 12.00328037 5.50868486 12.00328037 4.08476871 12.00377727 C0.3428104 12.36611989 -2.5096488 13.34773195 -5.29841423 15.89021778 Z M15.49577522 52.25447559 C15.48768837 53.08719486 15.47960152 53.91991413 15.47126961 54.77786732 C15.39336849 62.62077151 15.30609148 70.463503 15.20824814 78.30618477 C15.15827601 82.33831108 15.11194617 86.37041107 15.07390022 90.40266895 C15.03705882 94.29313154 14.99070222 98.18337444 14.93771172 102.07364941 C14.91916163 103.55877998 14.90405592 105.04395766 14.89243126 106.52915859 C14.875579 108.60750477 14.84654757 110.68534716 14.81462288 112.7635088 C14.80129921 113.94709476 14.78797554 115.13068073 14.77424812 116.35013294 C14.49577522 119.25447559 14.49577522 119.25447559 12.49577522 122.25447559 C9.67372322 122.65320301 9.67372322 122.65320301 6.02653694 122.68684864 C5.36300209 122.69704029 4.69946724 122.70723194 4.01582527 122.71773243 C1.81895305 122.74796709 -0.37748397 122.75714377 -2.57453728 122.76619434 C-4.09627048 122.78303338 -5.61798971 122.80118256 -7.13969231 122.82059193 C-11.14767401 122.86818279 -15.15559907 122.89793302 -19.16377068 122.92403126 C-23.25262964 122.95379124 -27.34129322 123.00033709 -31.43000603 123.04549122 C-39.45464983 123.13162754 -47.47931125 123.1989265 -55.50422478 123.25447559 C-55.57286508 166.21153484 -55.62574044 209.16858777 -55.65742077 252.12569097 C-55.66117296 257.19514922 -55.66505592 262.26460735 -55.6690197 267.33406544 C-55.66980663 268.34331937 -55.67059356 269.3525733 -55.67140434 270.39241068 C-55.6844645 286.74221947 -55.70812171 303.09199668 -55.73568317 319.44178672 C-55.76372037 336.21345777 -55.78039747 352.98511225 -55.78649026 369.75680578 C-55.7906102 380.10898804 -55.80363092 390.46108102 -55.82797418 400.8132358 C-55.84381057 407.90845275 -55.84862989 415.00362342 -55.84472891 422.09885676 C-55.84280409 426.19475029 -55.84579111 430.29048761 -55.8618412 434.38635349 C-55.87642636 438.13570743 -55.87718625 441.88479991 -55.86692146 445.63416581 C-55.86505118 447.63395139 -55.87800236 449.63373383 -55.8914687 451.63347495 C-55.88549556 452.82280894 -55.87952241 454.01214294 -55.87336826 455.23751736 C-55.87450742 456.26200281 -55.87564659 457.28648826 -55.87682027 458.34201872 C-55.42750759 461.85414872 -54.3325778 464.23488939 -52.50422478 467.25447559 C-46.42709521 471.12006871 -40.10183652 470.67308033 -33.07914543 470.6286974 C-31.20111518 470.634659 -31.20111518 470.634659 -29.28514493 470.64074105 C-25.82164174 470.6513017 -22.35839762 470.64321612 -18.89490581 470.63199055 C-15.1552824 470.6231339 -11.41569235 470.63159621 -7.67606926 470.63785267 C-0.35534229 470.64733362 6.965286 470.6407473 14.28600563 470.62858973 C22.81080665 470.61496039 31.33558424 470.61660837 39.86039339 470.61872306 C55.06911514 470.62191182 70.27779003 470.61025096 85.48649788 470.59065723 C100.24627802 470.57164686 115.00600325 470.56457158 129.76579475 470.57014942 C145.83918549 470.57620572 161.91255209 470.5760334 177.98594081 470.56466359 C179.69938207 470.56345629 181.41282332 470.56225031 183.12626457 470.56104565 C183.96931384 470.56044211 184.81236311 470.55983857 185.68095932 470.55921674 C191.62435212 470.55533613 197.56773593 470.55573175 203.51112938 470.55763149 C210.75171242 470.55975244 217.99224735 470.55453677 225.23281683 470.54001794 C228.92759246 470.53276926 232.62229798 470.52870098 236.31707954 470.5332613 C240.31967682 470.53808144 244.32208181 470.52743244 248.32466316 470.515172 C249.4959543 470.51895133 250.66724543 470.52273065 251.87403023 470.5266245 C252.94558763 470.52079231 254.01714503 470.51496011 255.12117386 470.50895119 C256.04503612 470.50808441 256.96889838 470.50721763 257.92075646 470.50632459 C262.19406972 470.08837437 264.66580736 469.05256415 267.77664036 466.06121916 C269.91372663 462.57210771 269.99795682 460.4250578 270.0019331 456.3465786 C270.00804646 455.66050399 270.01415982 454.97442938 270.02045843 454.26756462 C270.03608707 451.96342047 270.02318168 449.66032461 270.01043892 447.35617542 C270.01576289 445.68971069 270.02282772 444.02325076 270.03148597 442.35680002 C270.05016008 437.77334184 270.04379197 433.19020572 270.03333294 428.60673392 C270.02635443 423.66525504 270.04232861 418.72384322 270.05533028 413.78238392 C270.07699821 404.10015529 270.07683621 394.41804406 270.06870473 384.73579914 C270.06241071 376.86791779 270.06353628 369.00007073 270.06997681 361.13218975 C270.07132929 359.45393552 270.07132929 359.45393552 270.07270909 357.74177716 C270.07456025 355.46903121 270.07642281 353.19628527 270.07829665 350.92353933 C270.09488489 329.5995183 270.08614724 308.27556338 270.06931107 286.9515463 C270.05461355 267.43341628 270.06924148 247.91544019 270.09808124 228.39732999 C270.12745862 208.36652609 270.13845233 188.33579328 270.12889904 168.30496877 C270.12787646 166.0401716 270.12688185 163.7753744 270.12591553 161.5105772 C270.12520094 159.8390052 270.12520094 159.8390052 270.12447192 158.13366406 C270.12230558 150.27414285 270.13212358 142.41468877 270.14668655 134.55518246 C270.16418341 124.97849434 270.16413061 115.40200252 270.1413349 105.82532222 C270.13016858 100.93745574 270.1270842 96.04993542 270.1456356 91.16208363 C270.16239358 86.68926642 270.15615324 82.21709856 270.13141882 77.74432378 C270.12651966 76.12459542 270.13009426 74.50481515 270.14290626 72.88513006 C270.15905366 70.68537233 270.14447956 68.48786941 270.12218761 66.28821373 C270.12191793 65.06594631 270.12164824 63.84367889 270.12137038 62.58437306 C269.27294024 58.06837681 267.78843867 56.44030329 264.49577522 53.25447559 C261.7506388 52.08886003 259.14286853 52.12991164 256.17732811 52.13142776 C255.315932 52.12943672 254.45453589 52.12744567 253.56703687 52.12539428 C252.15459042 52.12976355 252.15459042 52.12976355 250.7136097 52.13422108 C249.70972167 52.13336665 248.70583364 52.13251223 247.67152476 52.13163191 C244.29814495 52.12998108 240.92481454 52.13549205 237.55143929 52.1409502 C235.13708688 52.14123219 232.72273439 52.14107412 230.30838203 52.1405077 C225.10553444 52.14027977 219.90269807 52.14312142 214.6998539 52.14874554 C207.17741015 52.15687178 199.65497248 52.15947691 192.13252482 52.16073353 C179.92792126 52.16292228 167.72332438 52.16957757 155.51872444 52.17903614 C143.66293051 52.18821483 131.8071384 52.19529343 119.95134163 52.19954395 C119.22057861 52.19980668 118.48981558 52.2000694 117.73690823 52.20034008 C114.07089332 52.20164512 110.4048784 52.20290883 106.73886347 52.20415199 C76.32449594 52.21451909 45.91013651 52.23220693 15.49577522 52.25447559 Z M-2.93220329 66.55305958 C-3.62004906 67.23827686 -3.62004906 67.23827686 -4.3217907 67.93733692 C-5.84477232 69.45589854 -7.36404513 70.97811135 -8.88313103 72.50056934 C-9.93530678 73.5520721 -10.98763098 74.60342631 -12.04009819 75.65463734 C-14.24844144 77.86150342 -16.45495832 80.07017568 -18.66023064 82.28011036 C-21.49402448 85.1196015 -24.33228277 87.95458089 -27.17191982 90.78822708 C-29.34664188 92.95934405 -31.51898683 95.13282682 -33.69060898 97.30704403 C-34.7365186 98.35362307 -35.78317798 99.39945337 -36.83058167 100.44453716 C-38.29136159 101.90279143 -39.74892058 103.36418892 -41.20564079 104.82649708 C-42.03757454 105.65922642 -42.86950829 106.49195576 -43.72665215 107.34991932 C-45.61794403 108.94211754 -45.61794403 108.94211754 -45.50422478 110.25447559 C-29.66422478 110.25447559 -13.82422478 110.25447559 2.49577522 110.25447559 C2.49577522 94.41447559 2.49577522 78.57447559 2.49577522 62.25447559 C0.40298247 62.25447559 -1.59915778 65.22128766 -2.93220329 66.55305958 Z " fill="#000000" transform="translate(124.50422477722168,14.745524406433105)"/>
<path d="M0 0 C10.67066413 8.78562567 17.12766242 20.00138129 18.78981018 33.69955444 C19.15669874 37.71500658 19.12196327 41.72086909 19.09765625 45.75 C19.0962413 46.64871826 19.09482635 47.54743652 19.09336853 48.47338867 C19.08781583 51.31562775 19.07527237 54.15778513 19.0625 57 C19.05747888 58.93880094 19.05291705 60.87760312 19.04882812 62.81640625 C19.03786194 67.54430183 19.02063044 72.27213711 19 77 C19.75418213 77.05260986 20.50836426 77.10521973 21.28540039 77.15942383 C22.27531982 77.23700928 23.26523926 77.31459473 24.28515625 77.39453125 C25.26621338 77.46776611 26.24727051 77.54100098 27.25805664 77.61645508 C32.55597345 78.35753132 35.1841195 80.9195096 38.3125 85.0625 C41.23241166 90.14530918 41.21401273 94.24701287 41.25 99.9375 C41.2809375 101.15469727 41.2809375 101.15469727 41.3125 102.39648438 C41.35148839 108.337341 41.35148839 108.337341 39.671875 111.50390625 C36.64612901 114.21152474 33.6844224 114.1267722 29.81350708 114.13371277 C28.20264221 114.14011024 28.20264221 114.14011024 26.55923462 114.14663696 C25.38098114 114.14618378 24.20272766 114.14573059 22.98876953 114.14526367 C21.74790588 114.14862228 20.50704224 114.1519809 19.22857666 114.15544128 C15.82354982 114.16332177 12.41858396 114.16661935 9.01355219 114.16725707 C6.17065473 114.16820661 3.32776313 114.17188547 0.48486793 114.17542917 C-6.22314445 114.18357334 -12.9311434 114.18601345 -19.63916016 114.18530273 C-26.55728129 114.18470206 -33.47532442 114.19525182 -40.39342582 114.2110464 C-46.33407104 114.22412573 -52.27469077 114.22948646 -58.21535027 114.22884732 C-61.76291719 114.22859244 -65.31041481 114.23143857 -68.85796738 114.24202538 C-72.81533602 114.25351257 -76.77259786 114.24895711 -80.72998047 114.24291992 C-81.90418549 114.24853943 -83.0783905 114.25415894 -84.28817749 114.25994873 C-85.36772705 114.25575424 -86.44727661 114.25155975 -87.55953979 114.24723816 C-88.96265569 114.24805531 -88.96265569 114.24805531 -90.39411736 114.24888897 C-93.27810451 113.97343812 -95.41228219 113.29189349 -98 112 C-99.84994673 108.30010654 -99.31412504 103.94808853 -99.375 99.875 C-99.41238281 98.94945312 -99.44976562 98.02390625 -99.48828125 97.0703125 C-99.572283 90.46217474 -98.32273425 86.08036792 -94 81 C-88.66157515 76.86272074 -83.54426693 76.96168462 -77 77 C-77.01571045 75.69442139 -77.0314209 74.38884277 -77.04760742 73.04370117 C-77.10230303 68.15525592 -77.13649313 63.2668372 -77.16479492 58.37817383 C-77.17979183 56.27070553 -77.2001961 54.16326796 -77.22631836 52.0559082 C-77.26310475 49.00985078 -77.27981776 45.9642094 -77.29296875 42.91796875 C-77.30845261 41.99042282 -77.32393646 41.06287689 -77.33988953 40.10722351 C-77.34317092 27.07243691 -72.97919692 14.47451939 -64.00390625 4.87890625 C-46.21915245 -11.79646719 -20.17354534 -13.87309875 0 0 Z M-56.8125 17.1875 C-65.24497746 29.35755948 -64.48640194 41.42545444 -64.25 55.6875 C-64.1675 62.720625 -64.085 69.75375 -64 77 C-40.9 77 -17.8 77 6 77 C6.061875 70.461875 6.12375 63.92375 6.1875 57.1875 C6.21481201 55.14715576 6.24212402 53.10681152 6.27026367 51.00463867 C6.38599231 36.26879113 5.08099742 24.42478539 -5.3125 13.25 C-11.73183462 7.13701107 -19.97822409 4.0044865 -28.8125 3.6875 C-40.06323075 3.97729155 -49.56922136 8.57262179 -56.8125 17.1875 Z M-86 92 C-86 94.97 -86 97.94 -86 101 C-48.38 101 -10.76 101 28 101 C28.87447644 93.57010861 28.87447644 93.57010861 26.28268528 91.02338886 C23.8028519 89.91161323 22.18551917 89.62519683 19.47703552 89.6257782 C18.12481903 89.61525673 18.12481903 89.61525673 16.74528503 89.60452271 C15.76385025 89.61216644 14.78241547 89.61981018 13.77124023 89.62768555 C12.21214432 89.62220955 12.21214432 89.62220955 10.62155151 89.61662292 C7.18373306 89.60851273 3.7463852 89.62213091 0.30859375 89.63671875 C-2.07746887 89.63723726 -4.46353192 89.63671992 -6.84959412 89.63520813 C-11.85055924 89.63529787 -16.85136322 89.64573233 -21.85229492 89.66381836 C-28.27081591 89.68651771 -34.68910162 89.68704757 -41.10765171 89.68030071 C-46.03433839 89.67696366 -50.96097116 89.68358567 -55.88764763 89.69342995 C-58.25479793 89.69728586 -60.62195422 89.69842855 -62.98910713 89.6968441 C-66.2930665 89.69647435 -69.59672107 89.70906833 -72.90063477 89.7253418 C-73.88409378 89.72286438 -74.8675528 89.72038696 -75.8808136 89.71783447 C-77.22880035 89.72846169 -77.22880035 89.72846169 -78.60401917 89.73930359 C-79.77566038 89.74238289 -79.77566038 89.74238289 -80.97097111 89.74552441 C-83.31267411 89.88572733 -83.31267411 89.88572733 -86 92 Z " fill="#000000" transform="translate(261,135)"/>
<path d="M0 0 C1.26881012 -0.01272446 2.53762024 -0.02544891 3.84487915 -0.03855896 C5.24864383 -0.03237667 6.6524067 -0.02577064 8.0561676 -0.01878357 C9.53631959 -0.02584181 11.01646435 -0.03458643 12.49659729 -0.04489136 C16.51528114 -0.06740678 20.53357156 -0.06444065 24.55229449 -0.05556989 C27.90724428 -0.05046205 31.26211999 -0.05775093 34.61706215 -0.06504196 C42.53188833 -0.08204798 50.44652174 -0.07846833 58.36134338 -0.06175232 C66.52649219 -0.04483059 74.69110641 -0.06066436 82.85619682 -0.0929752 C89.86695355 -0.11966701 96.87754382 -0.12694823 103.88834625 -0.11846012 C108.07538818 -0.1135296 112.26210844 -0.11575294 116.44911003 -0.13624763 C120.38671044 -0.15459854 124.32354174 -0.14865423 128.26110077 -0.12404823 C129.70546395 -0.1190383 131.14988567 -0.12253503 132.59420204 -0.13519669 C134.56714484 -0.1511231 136.5402742 -0.13315777 138.51318359 -0.11352539 C139.61690528 -0.11293908 140.72062696 -0.11235277 141.85779476 -0.1117487 C145.80926237 0.7238377 147.34554966 2.38896555 149.82008362 5.5146637 C149.82008362 8.7021637 149.82008362 8.7021637 148.82008362 11.5146637 C145.2930568 13.86601491 143.8479351 13.7677152 139.67103577 13.77536011 C138.38388168 13.78244492 137.0967276 13.78952972 135.77056885 13.79682922 C134.34110988 13.79453533 132.91165124 13.79202562 131.48219299 13.7893219 C129.97924546 13.79366828 128.47630016 13.79885118 126.97335815 13.80480957 C122.88872899 13.81821773 118.80419225 13.81877631 114.71954536 13.81624627 C111.31228497 13.81517795 107.90504338 13.82005628 104.497787 13.82485169 C96.46181302 13.83595281 88.42588578 13.83638066 80.38990784 13.83033752 C72.09251898 13.82429391 63.79529953 13.83661716 55.49793959 13.85790759 C48.37940878 13.87550336 41.260932 13.88152823 34.14238024 13.87826985 C29.88839139 13.87645386 25.63452342 13.87912461 21.3805542 13.89298439 C17.38159555 13.90552555 13.38290178 13.90365413 9.38394737 13.8905735 C7.91455179 13.88820016 6.44513778 13.89096941 4.97576332 13.89919662 C2.97357679 13.90960068 0.97131531 13.89979635 -1.03086853 13.8888855 C-2.15248131 13.88905324 -3.27409409 13.88922098 -4.42969513 13.88939381 C-7.17991638 13.5146637 -7.17991638 13.5146637 -9.03688812 12.17486858 C-10.8525982 9.53761904 -10.62403666 7.62350565 -10.17991638 4.5146637 C-7.12736892 0.49834172 -4.9433902 0.01257604 0 0 Z " fill="#000000" transform="translate(199.17991638183594,421.48533630371094)"/>
<path d="M0 0 C1.88853195 -0.0129007 1.88853195 -0.0129007 3.81521606 -0.02606201 C5.21316487 -0.03049708 6.61111412 -0.03479545 8.00906372 -0.03897095 C9.47920932 -0.04687328 10.94935299 -0.05514231 12.41949463 -0.06375122 C17.24897412 -0.08995033 22.07846222 -0.10527408 26.9079895 -0.11953735 C28.57050711 -0.1248974 30.23302465 -0.13027491 31.89554214 -0.13566971 C38.80980363 -0.15729295 45.7240628 -0.17603077 52.63834953 -0.1872921 C62.54915463 -0.20354027 72.45956827 -0.23674513 82.37022579 -0.29369295 C89.33845971 -0.33236982 96.3065888 -0.35192194 103.27492726 -0.35721266 C107.43744914 -0.36086849 111.5995533 -0.37291413 115.76195908 -0.4053154 C119.6773087 -0.43535778 123.59198697 -0.44172202 127.50742722 -0.42993164 C128.94375611 -0.4297106 130.38011582 -0.43804131 131.81633759 -0.45558548 C133.7783065 -0.4782462 135.74057939 -0.46700726 137.70263672 -0.45410156 C138.80028288 -0.45741171 139.89792904 -0.46072186 141.0288372 -0.46413231 C144.9757385 0.36290353 146.51023432 2.03199415 148.978302 5.15390015 C148.9046804 8.90860166 148.64989039 10.48231176 145.978302 13.15390015 C143.33551121 13.40837574 143.33551121 13.40837574 139.9115448 13.41459656 C137.97025444 13.42522377 137.97025444 13.42522377 135.98974609 13.43606567 C134.54721035 13.43377163 133.10467493 13.4312619 131.66213989 13.42855835 C130.14948779 13.43290347 128.63683789 13.43808595 127.12419128 13.44404602 C123.00851238 13.45746906 118.89292513 13.45801102 114.77722859 13.45548272 C111.34516513 13.45441521 107.91312039 13.45929074 104.48106092 13.46408814 C96.38613299 13.47519482 88.29125145 13.47561427 80.19631958 13.46957397 C71.83703599 13.46353246 63.47792064 13.47584699 55.11866575 13.49714404 C47.94920019 13.51474023 40.77978828 13.52076453 33.61030191 13.5175063 C29.32499937 13.51569007 25.03981682 13.51836324 20.75453377 13.53222084 C16.72522034 13.54476238 12.6961698 13.5428902 8.66686058 13.52980995 C7.18617796 13.52743654 5.70547704 13.53020612 4.22481537 13.53843307 C2.20724842 13.54883672 0.18960711 13.53903304 -1.82795715 13.52812195 C-3.52338606 13.52837356 -3.52338606 13.52837356 -5.25306606 13.52863026 C-8.021698 13.15390015 -8.021698 13.15390015 -9.88927555 11.81801128 C-11.63953995 9.24597248 -11.33680502 7.17892754 -11.021698 4.15390015 C-7.98916933 -0.39489286 -5.12936945 0.02605761 0 0 Z " fill="#000000" transform="translate(200.02169799804688,347.8460998535156)"/>
<path d="M0 0 C1.25764664 -0.00860046 2.51529327 -0.01720093 3.81105042 -0.02606201 C5.21263081 -0.03049737 6.61421165 -0.03479572 8.01579285 -0.03897095 C9.48579096 -0.04687097 10.95578713 -0.05513986 12.42578125 -0.06375122 C17.26069788 -0.08998172 22.09562323 -0.10527933 26.93058777 -0.11953735 C28.59403171 -0.12489651 30.25747559 -0.13027402 31.92091942 -0.13566971 C38.83942953 -0.15729946 45.75793729 -0.1760369 52.67647266 -0.1872921 C62.59687199 -0.20353613 72.51687994 -0.23672351 82.4371317 -0.29369295 C89.40959171 -0.33237111 96.38194695 -0.35192222 103.35451144 -0.35721266 C107.52040151 -0.36086893 111.68587424 -0.3729188 115.85164833 -0.4053154 C119.77108837 -0.43535926 123.68985777 -0.44172148 127.60938835 -0.42993164 C129.04732893 -0.4297106 130.48530029 -0.4380415 131.92313385 -0.45558548 C133.88734595 -0.47824619 135.85186169 -0.46700727 137.81616211 -0.45410156 C138.91510709 -0.45741171 140.01405207 -0.46072186 141.14629841 -0.46413231 C145.09527433 0.36255533 146.62955059 2.03018291 149.09855652 5.15390015 C149.02493492 8.90860166 148.77014491 10.48231176 146.09855652 13.15390015 C143.45576572 13.40837574 143.45576572 13.40837574 140.03179932 13.41459656 C138.09050896 13.42522377 138.09050896 13.42522377 136.11000061 13.43606567 C134.66746486 13.43377163 133.22492945 13.4312619 131.78239441 13.42855835 C130.2697423 13.43290347 128.7570924 13.43808595 127.2444458 13.44404602 C123.1287669 13.45746906 119.01317964 13.45801102 114.89748311 13.45548272 C111.46541965 13.45441521 108.0333749 13.45929074 104.60131544 13.46408814 C96.50638751 13.47519482 88.41150597 13.47561427 80.3165741 13.46957397 C71.9572905 13.46353246 63.59817515 13.47584699 55.23892027 13.49714404 C48.06945471 13.51474023 40.9000428 13.52076453 33.73055643 13.5175063 C29.44525389 13.51569007 25.16007134 13.51836324 20.87478828 13.53222084 C16.84547486 13.54476238 12.81642431 13.5428902 8.7871151 13.52980995 C7.30643247 13.52743654 5.82573156 13.53020612 4.34506989 13.53843307 C2.32750294 13.54883672 0.30986163 13.53903304 -1.70770264 13.52812195 C-3.40313155 13.52837356 -3.40313155 13.52837356 -5.13281155 13.52863026 C-7.90144348 13.15390015 -7.90144348 13.15390015 -9.76511478 11.81801128 C-11.54069727 9.21773673 -11.28347959 7.210189 -10.90144348 4.15390015 C-7.82459544 0.09805501 -4.87394414 0.02473924 0 0 Z " fill="#000000" transform="translate(199.9014434814453,273.8460998535156)"/>
<path d="M0 0 C0.83442627 -0.00686325 1.66885254 -0.0137265 2.52856445 -0.02079773 C5.29004879 -0.03911719 8.05096787 -0.03522133 10.8125 -0.02954102 C12.72916856 -0.03410004 14.64583548 -0.03940477 16.5625 -0.04542542 C20.5807967 -0.05436639 24.59889475 -0.05192181 28.6171875 -0.04199219 C33.77255622 -0.03049557 38.92724072 -0.05071958 44.08251953 -0.07990932 C48.04073457 -0.09823343 51.99878446 -0.09798655 55.95703125 -0.0922718 C57.85808269 -0.09211816 59.75914502 -0.09819836 61.66015625 -0.11056328 C64.3155442 -0.12540187 66.96965276 -0.11484986 69.625 -0.09765625 C70.41366455 -0.10732422 71.2023291 -0.11699219 72.01489258 -0.12695312 C77.32794218 -0.05472636 77.32794218 -0.05472636 79.79296875 2.27915955 C81.09295116 4.98856523 81.40552091 6.43894816 80.8125 9.40405273 C77.94716548 12.40579071 76.27498804 13.34203348 72.12510681 13.89852905 C70.67717698 13.91610606 69.22887651 13.91180859 67.78100586 13.88989258 C66.98690811 13.89368927 66.19281036 13.89748596 65.37464905 13.90139771 C62.75847456 13.90878723 60.14341896 13.88744575 57.52734375 13.86499023 C55.70561351 13.86260495 53.88388078 13.86170067 52.06214905 13.86221313 C48.24822543 13.85908798 44.43467849 13.84254343 40.62084961 13.81567383 C35.73259074 13.78167032 30.84474509 13.77404612 25.9563818 13.77556419 C22.19629473 13.77502035 18.43629795 13.76405131 14.67624092 13.74956131 C12.87372076 13.74319852 11.07119037 13.73925563 9.26865959 13.7377739 C6.75046229 13.73343673 4.23270278 13.71592767 1.71459961 13.69458008 C0.97007538 13.69548645 0.22555115 13.69639282 -0.54153442 13.69732666 C-4.21461527 13.65180248 -7.12770659 13.56309102 -10.1875 11.40405273 C-11.58685013 8.60535247 -11.44015405 6.49906481 -11.1875 3.40405273 C-8.67602341 -0.76416929 -4.33559198 -0.02474729 0 0 Z " fill="#000000" transform="translate(200.1875,302.595947265625)"/>
<path d="M0 0 C0.83442627 -0.00686325 1.66885254 -0.0137265 2.52856445 -0.02079773 C5.29004879 -0.03911719 8.05096787 -0.03522133 10.8125 -0.02954102 C12.72916856 -0.03410004 14.64583548 -0.03940477 16.5625 -0.04542542 C20.5807967 -0.05436639 24.59889475 -0.05192181 28.6171875 -0.04199219 C33.77255622 -0.03049557 38.92724072 -0.05071958 44.08251953 -0.07990932 C48.04073457 -0.09823343 51.99878446 -0.09798655 55.95703125 -0.0922718 C57.85808269 -0.09211816 59.75914502 -0.09819836 61.66015625 -0.11056328 C64.3155442 -0.12540187 66.96965276 -0.11484986 69.625 -0.09765625 C70.41366455 -0.10732422 71.2023291 -0.11699219 72.01489258 -0.12695312 C77.32794218 -0.05472636 77.32794218 -0.05472636 79.79296875 2.27915955 C81.09295116 4.98856523 81.40552091 6.43894816 80.8125 9.40405273 C77.94716548 12.40579071 76.27498804 13.34203348 72.12510681 13.89852905 C70.67717698 13.91610606 69.22887651 13.91180859 67.78100586 13.88989258 C66.98690811 13.89368927 66.19281036 13.89748596 65.37464905 13.90139771 C62.75847456 13.90878723 60.14341896 13.88744575 57.52734375 13.86499023 C55.70561351 13.86260495 53.88388078 13.86170067 52.06214905 13.86221313 C48.24822543 13.85908798 44.43467849 13.84254343 40.62084961 13.81567383 C35.73259074 13.78167032 30.84474509 13.77404612 25.9563818 13.77556419 C22.19629473 13.77502035 18.43629795 13.76405131 14.67624092 13.74956131 C12.87372076 13.74319852 11.07119037 13.73925563 9.26865959 13.7377739 C6.75046229 13.73343673 4.23270278 13.71592767 1.71459961 13.69458008 C0.97007538 13.69548645 0.22555115 13.69639282 -0.54153442 13.69732666 C-4.21461527 13.65180248 -7.12770659 13.56309102 -10.1875 11.40405273 C-11.58685013 8.60535247 -11.44015405 6.49906481 -11.1875 3.40405273 C-8.67602341 -0.76416929 -4.33559198 -0.02474729 0 0 Z " fill="#000000" transform="translate(200.1875,376.595947265625)"/>
<path d="M0 0 C0.83442627 -0.00686325 1.66885254 -0.0137265 2.52856445 -0.02079773 C5.29004879 -0.03911719 8.05096787 -0.03522133 10.8125 -0.02954102 C12.72916856 -0.03410004 14.64583548 -0.03940477 16.5625 -0.04542542 C20.5807967 -0.05436639 24.59889475 -0.05192181 28.6171875 -0.04199219 C33.77255622 -0.03049557 38.92724072 -0.05071958 44.08251953 -0.07990932 C48.04073457 -0.09823343 51.99878446 -0.09798655 55.95703125 -0.0922718 C57.85808269 -0.09211816 59.75914502 -0.09819836 61.66015625 -0.11056328 C64.3155442 -0.12540187 66.96965276 -0.11484986 69.625 -0.09765625 C70.41366455 -0.10732422 71.2023291 -0.11699219 72.01489258 -0.12695312 C77.31063443 -0.05496165 77.31063443 -0.05496165 79.82421875 2.2440033 C81.26518825 5.39347654 80.91753393 7.15801557 79.8125 10.40405273 C75.75575777 13.65127399 71.98275229 13.83429694 66.98046875 13.79223633 C66.20748444 13.79749329 65.43450012 13.80275024 64.63809204 13.8081665 C62.09185369 13.82133262 59.54624433 13.81264067 57 13.80249023 C55.22550334 13.80451195 53.45100749 13.8074242 51.67651367 13.81118774 C47.96101964 13.8156065 44.24574225 13.80919452 40.53027344 13.79516602 C35.77207697 13.77807435 31.01438818 13.78791795 26.25621033 13.80588341 C22.59301949 13.81673338 18.92994864 13.81326934 15.26675415 13.80550003 C13.51250142 13.80350138 11.75823773 13.80594553 10.0039978 13.81293869 C7.55054947 13.82057322 5.09791882 13.80892147 2.64453125 13.79223633 C1.92230377 13.79830902 1.20007629 13.80438171 0.45596313 13.81063843 C-4.33095912 13.7504481 -7.74403088 12.84752185 -11.1875 9.40405273 C-11.64330372 4.16230999 -11.64330372 4.16230999 -10.18359375 1.73399353 C-7.02518507 -0.37036482 -3.6704432 -0.02095066 0 0 Z " fill="#000000" transform="translate(200.1875,450.595947265625)"/>
<path d="M0 0 C2 2 2 2 2.5625 5.125 C1.26493137 14.06380612 -8.99166354 21.14761818 -15.24487305 27.37524414 C-16.83045796 28.95539644 -18.41053442 30.54091976 -19.99023438 32.12695312 C-20.99967892 33.13573806 -22.00943299 34.14421338 -23.01953125 35.15234375 C-23.92807861 36.05976318 -24.83662598 36.96718262 -25.77270508 37.90209961 C-28.23040368 40.21701839 -29.33801396 40.87390742 -32.625 41.5 C-37.77658267 40.73680257 -40.39379927 37.57846072 -44 34 C-44.6703125 33.35546875 -45.340625 32.7109375 -46.03125 32.046875 C-51.88631609 26.33578595 -51.88631609 26.33578595 -52.25 22.0625 C-52 19 -52 19 -50.9375 17.125 C-47.63352513 15.20656298 -45.76373735 15.32129326 -42 16 C-39.01291962 18.39697534 -36.49271547 21.09938564 -34 24 C-30.15387927 22.42140174 -27.75846654 19.97344745 -24.8671875 17.02734375 C-24.15032272 16.30267662 -24.15032272 16.30267662 -23.41897583 15.56336975 C-21.89946386 14.02610959 -20.3868361 12.48230674 -18.875 10.9375 C-17.35515441 9.39002523 -15.83386581 7.84404074 -14.30960083 6.30091858 C-12.93081258 4.90429199 -11.55683935 3.50291677 -10.18310547 2.10131836 C-6.55479971 -1.3910578 -4.82503122 -1.10573632 0 0 Z " fill="#000000" transform="translate(167,425)"/>
<path d="M0 0 C2 2 2 2 2.5625 5.125 C1.26493137 14.06380612 -8.99166354 21.14761818 -15.24487305 27.37524414 C-16.83045796 28.95539644 -18.41053442 30.54091976 -19.99023438 32.12695312 C-20.99967892 33.13573806 -22.00943299 34.14421338 -23.01953125 35.15234375 C-23.92807861 36.05976318 -24.83662598 36.96718262 -25.77270508 37.90209961 C-28.23040368 40.21701839 -29.33801396 40.87390742 -32.625 41.5 C-37.77658267 40.73680257 -40.39379927 37.57846072 -44 34 C-44.6703125 33.35546875 -45.340625 32.7109375 -46.03125 32.046875 C-51.88631609 26.33578595 -51.88631609 26.33578595 -52.25 22.0625 C-52 19 -52 19 -50.9375 17.125 C-47.63352513 15.20656298 -45.76373735 15.32129326 -42 16 C-39.01291962 18.39697534 -36.49271547 21.09938564 -34 24 C-30.15387927 22.42140174 -27.75846654 19.97344745 -24.8671875 17.02734375 C-24.15032272 16.30267662 -24.15032272 16.30267662 -23.41897583 15.56336975 C-21.89946386 14.02610959 -20.3868361 12.48230674 -18.875 10.9375 C-17.35515441 9.39002523 -15.83386581 7.84404074 -14.30960083 6.30091858 C-12.93081258 4.90429199 -11.55683935 3.50291677 -10.18310547 2.10131836 C-6.55479971 -1.3910578 -4.82503122 -1.10573632 0 0 Z " fill="#000000" transform="translate(167,351)"/>
<path d="M0 0 C2 2 2 2 2.5625 5.125 C1.26493137 14.06380612 -8.99166354 21.14761818 -15.24487305 27.37524414 C-16.83045796 28.95539644 -18.41053442 30.54091976 -19.99023438 32.12695312 C-20.99967892 33.13573806 -22.00943299 34.14421338 -23.01953125 35.15234375 C-23.92807861 36.05976318 -24.83662598 36.96718262 -25.77270508 37.90209961 C-28.23040368 40.21701839 -29.33801396 40.87390742 -32.625 41.5 C-37.77658267 40.73680257 -40.39379927 37.57846072 -44 34 C-44.6703125 33.35546875 -45.340625 32.7109375 -46.03125 32.046875 C-51.88631609 26.33578595 -51.88631609 26.33578595 -52.25 22.0625 C-52 19 -52 19 -50.9375 17.125 C-47.63352513 15.20656298 -45.76373735 15.32129326 -42 16 C-39.01291962 18.39697534 -36.49271547 21.09938564 -34 24 C-30.15387927 22.42140174 -27.75846654 19.97344745 -24.8671875 17.02734375 C-24.15032272 16.30267662 -24.15032272 16.30267662 -23.41897583 15.56336975 C-21.89946386 14.02610959 -20.3868361 12.48230674 -18.875 10.9375 C-17.35515441 9.39002523 -15.83386581 7.84404074 -14.30960083 6.30091858 C-12.93081258 4.90429199 -11.55683935 3.50291677 -10.18310547 2.10131836 C-6.55479971 -1.3910578 -4.82503122 -1.10573632 0 0 Z " fill="#000000" transform="translate(167,277)"/>
<path d="M0 0 C5.03961493 1.67593752 7.99598945 5.04472409 11.6484375 8.796875 C12.73995117 9.85938477 12.73995117 9.85938477 13.85351562 10.94335938 C16.95010824 14.0688112 19.06402287 16.23601351 20.38671875 20.484375 C20.3359375 23.109375 20.3359375 23.109375 19.2109375 25.421875 C16.83766318 27.55782189 15.52859516 28.03335934 12.3359375 28.109375 C7.46942905 25.75350342 3.8820165 22.05751343 0.0859375 18.296875 C-0.55085937 17.69294922 -1.18765625 17.08902344 -1.84375 16.46679688 C-4.71733987 13.62683412 -6.46028842 11.74266546 -7.71484375 7.84375 C-7.6640625 5.109375 -7.6640625 5.109375 -5.6015625 2.171875 C-2.6640625 0.109375 -2.6640625 0.109375 0 0 Z " fill="#000000" transform="translate(173.6640625,109.890625)"/>
<path d="M0 0 C1.64548828 -0.00773438 1.64548828 -0.00773438 3.32421875 -0.015625 C4.46503906 -0.00015625 5.60585937 0.0153125 6.78125 0.03125 C8.49248047 0.00804687 8.49248047 0.00804687 10.23828125 -0.015625 C11.33527344 -0.01046875 12.43226563 -0.0053125 13.5625 0 C15.06393555 0.00676758 15.06393555 0.00676758 16.59570312 0.01367188 C19.9927379 0.66837312 21.18650574 1.82400741 23.28125 4.53125 C23.7254938 7.64095662 23.95614109 9.5548424 22.13476562 12.18994141 C19.47274181 14.11633219 17.44962144 13.91961922 14.1875 13.9296875 C12.99253906 13.93355469 11.79757813 13.93742188 10.56640625 13.94140625 C9.31730469 13.92980469 8.06820312 13.91820312 6.78125 13.90625 C5.53214844 13.91785156 4.28304687 13.92945313 2.99609375 13.94140625 C1.20365234 13.93560547 1.20365234 13.93560547 -0.625 13.9296875 C-1.72134766 13.92630371 -2.81769531 13.92291992 -3.94726562 13.91943359 C-6.71875 13.53125 -6.71875 13.53125 -8.57226562 12.18994141 C-10.39364109 9.5548424 -10.1629938 7.64095662 -9.71875 4.53125 C-6.76643776 0.71568857 -4.75564169 0.0214356 0 0 Z " fill="#000000" transform="translate(151.71875,168.46875)"/>
<path d="M0 0 C1.6406543 -0.05607422 1.6406543 -0.05607422 3.31445312 -0.11328125 C12.33873575 -0.2122679 12.33873575 -0.2122679 15.44921875 2.69921875 C17.1875 5.375 17.1875 5.375 17.1875 8.5625 C16.1875 11.375 16.1875 11.375 13.1875 13.375 C10.5078125 13.63378906 10.5078125 13.63378906 7.3125 13.640625 C6.16265625 13.64320313 5.0128125 13.64578125 3.828125 13.6484375 C2.62671875 13.64070312 1.4253125 13.63296875 0.1875 13.625 C-1.61460937 13.63660156 -1.61460937 13.63660156 -3.453125 13.6484375 C-5.17789062 13.64457031 -5.17789062 13.64457031 -6.9375 13.640625 C-8.51917969 13.63724121 -8.51917969 13.63724121 -10.1328125 13.63378906 C-12.8125 13.375 -12.8125 13.375 -15.8125 11.375 C-16.6875 9.0625 -16.6875 9.0625 -16.8125 6.375 C-13.14618929 -1.30679387 -7.67844251 0.09849897 0 0 Z " fill="#000000" transform="translate(304.8125,168.625)"/>
<path d="M0 0 C2.9375 0.4375 2.9375 0.4375 4.59619141 1.58398438 C6.52258219 4.24600819 6.32586922 6.26912856 6.3359375 9.53125 C6.33980469 10.72621094 6.34367188 11.92117187 6.34765625 13.15234375 C6.33605469 14.40144531 6.32445312 15.65054688 6.3125 16.9375 C6.32410156 18.18660156 6.33570313 19.43570313 6.34765625 20.72265625 C6.34378906 21.91761719 6.33992187 23.11257812 6.3359375 24.34375 C6.33255371 25.44009766 6.32916992 26.53644531 6.32568359 27.66601562 C5.9375 30.4375 5.9375 30.4375 4.60009766 32.29882812 C2.03058779 34.05862166 -0.03496291 33.75286845 -3.0625 33.4375 C-6.0625 31.4375 -6.0625 31.4375 -7.0625 28.4375 C-7.34613866 24.46303767 -7.34003696 20.48345532 -7.375 16.5 C-7.40400391 15.40236328 -7.43300781 14.30472656 -7.46289062 13.17382812 C-7.47126953 12.11744141 -7.47964844 11.06105469 -7.48828125 9.97265625 C-7.51015503 8.52451538 -7.51015503 8.52451538 -7.5324707 7.04711914 C-6.72455939 2.56100798 -4.42324146 0.63189164 0 0 Z " fill="#000000" transform="translate(232.0625,85.5625)"/>
<path d="M0 0 C2 2 2 2 2.63671875 5.0703125 C1.67235679 11.02214154 -1.92441983 13.83152249 -6.1875 17.875 C-7.34088867 19.03128906 -7.34088867 19.03128906 -8.51757812 20.2109375 C-14.99158829 26.52379205 -14.99158829 26.52379205 -20 27 C-22.70637529 26.02269781 -23.70256222 25.59487555 -25 23 C-25.35124351 19.54453132 -25.46692235 17.67980375 -23.47119141 14.77416992 C-22.77171387 14.09974854 -22.07223633 13.42532715 -21.3515625 12.73046875 C-20.59359375 11.98732422 -19.835625 11.24417969 -19.0546875 10.47851562 C-18.25289063 9.72248047 -17.45109375 8.96644531 -16.625 8.1875 C-15.8309375 7.41212891 -15.036875 6.63675781 -14.21875 5.83789062 C-6.62460019 -1.51813754 -6.62460019 -1.51813754 0 0 Z " fill="#000000" transform="translate(295,111)"/>
</svg>
