<?xml version="1.0" encoding="UTF-8"?>
<svg version="1.1" xmlns="http://www.w3.org/2000/svg" viewBox="0 0 512 512">
<path d="M0 0 C1.3275918 0.8228221 2.62569982 1.69390753 3.90234375 2.59375 C9.15679345 6.17241316 14.62426665 9.30729323 20.15759277 12.43218994 C22.62203073 13.82413006 25.08207052 15.22376616 27.54244995 16.62286377 C28.81627118 17.34714432 30.09029964 18.07106052 31.36453247 18.7946167 C37.67473736 22.37865873 43.9650876 25.99679835 50.25 29.625 C51.31855225 30.24173584 52.38710449 30.85847168 53.48803711 31.49389648 C61.66001961 36.21563807 69.81337142 40.96890895 77.96191406 45.73095703 C85.29341326 50.01267768 92.64306619 54.26215253 100 58.5 C108.57313468 63.44014625 117.13843903 68.39328989 125.6875 73.375 C126.68064209 73.95354736 127.67378418 74.53209473 128.69702148 75.12817383 C133.01080815 77.64711776 137.31520894 80.17814323 141.5859375 82.76953125 C142.26825439 83.18348145 142.95057129 83.59743164 143.65356445 84.02392578 C145.39853545 85.08755691 147.13896381 86.15863142 148.87890625 87.23046875 C151.1945413 88.54333818 153.33694466 89.60530399 155.77734375 90.61328125 C159 92 159 92 161 94 C161.26844215 96.05656815 161.26844215 96.05656815 161.29434204 98.64190674 C161.31580795 100.10970833 161.31580795 100.10970833 161.33770752 101.60716248 C161.34308533 102.68458206 161.34846313 103.76200165 161.35400391 104.87207031 C161.3671463 106.00389236 161.3802887 107.13571442 161.39382935 108.30183411 C161.43336469 112.06060018 161.4566354 115.81920622 161.4765625 119.578125 C161.48471355 120.85961174 161.49286461 122.14109848 161.50126266 123.46141815 C161.53870503 129.54401862 161.5678294 135.62653859 161.5844866 141.70923066 C161.60402327 148.72738292 161.65663315 155.7442721 161.73748839 162.76197934 C161.80513689 168.84248403 161.82878049 174.92245867 161.83689499 181.00331879 C161.84664963 183.58857539 161.86994306 186.17381739 161.90697098 188.75882721 C161.95557659 192.37702855 161.95386059 195.99192499 161.93994141 199.61035156 C161.97837158 201.21433556 161.97837158 201.21433556 162.01757812 202.85072327 C161.91782616 209.96034749 161.91782616 209.96034749 159.26369572 212.96677017 C157.23884864 214.51006573 155.23208675 215.78107086 153 217 C151.98897217 217.6384082 150.97794434 218.27681641 149.9362793 218.93457031 C148.51955933 219.74812988 148.51955933 219.74812988 147.07421875 220.578125 C146.03072266 221.18140625 144.98722656 221.7846875 143.91210938 222.40625 C142.84798828 223.0146875 141.78386719 223.623125 140.6875 224.25 C138.54516146 225.48366074 136.40321587 226.71800422 134.26171875 227.953125 C133.32287842 228.49098633 132.38403809 229.02884766 131.41674805 229.58300781 C129.57513807 230.66278398 127.77627517 231.81581656 126 233 C122.9124407 233.32162076 120.85984439 233.48724515 118.125 231.9375 C116.19941691 228.62121801 116.23685184 226.75214514 117 223 C118.67504883 221.55151367 118.67504883 221.55151367 120.89453125 220.16796875 C121.71034668 219.65306885 122.52616211 219.13816895 123.36669922 218.60766602 C124.23568848 218.07713623 125.10467773 217.54660645 126 217 C126.85223145 216.47011475 127.70446289 215.94022949 128.58251953 215.39428711 C131.18968536 213.78530313 133.81094434 212.20210162 136.4375 210.625 C137.33404297 210.07972656 138.23058594 209.53445313 139.15429688 208.97265625 C140.43723633 208.20115234 140.43723633 208.20115234 141.74609375 207.4140625 C142.51622803 206.9495166 143.2863623 206.4849707 144.07983398 206.00634766 C146 205 146 205 148 205 C147.67 198.07 147.34 191.14 147 184 C144.21175781 185.59328125 144.21175781 185.59328125 141.3671875 187.21875 C135.77539062 190.4140625 135.77539062 190.4140625 130.18359375 193.609375 C129.57541809 193.95718018 128.96724243 194.30498535 128.34063721 194.66333008 C127.10425085 195.36927668 125.86689689 196.07353121 124.62860107 196.77612305 C121.44673418 198.58437218 118.28798851 200.42085807 115.15722656 202.31640625 C114.53397491 202.6880188 113.91072327 203.05963135 113.26858521 203.44250488 C111.54903517 204.46931327 109.8370016 205.50867913 108.12548828 206.54882812 C104.75045173 208.11586587 102.67283718 208.38320661 99 208 C97.125 206.9375 97.125 206.9375 96 205 C95.25 201.6875 95.25 201.6875 96 198 C97.62011719 196.56469727 97.62011719 196.56469727 99.796875 195.19140625 C100.61510742 194.67489502 101.43333984 194.15838379 102.27636719 193.6262207 C107.12779737 190.72953941 112.05389964 187.98091275 117 185.25 C118.09054687 184.6300415 119.18109375 184.01008301 120.3046875 183.37133789 C125.25404228 180.56439867 130.1497558 177.86479309 135.375 175.60546875 C141.89411051 172.7691234 141.89411051 172.7691234 147 168 C149.17548768 161.21917226 148.70431584 154.00064827 148 147 C133.62153841 155.18648805 119.26185602 163.4003968 104.98071289 171.75585938 C97.31504883 176.23907839 89.63073841 180.68933871 81.9375 185.125 C80.84872559 185.752854 79.75995117 186.38070801 78.63818359 187.02758789 C76.63212982 188.18364289 74.62473974 189.33738365 72.61572266 190.48828125 C71.0072508 191.41787409 69.40608148 192.36041777 67.81787109 193.32421875 C63.33386571 196.02568198 63.33386571 196.02568198 59.75 195.75 C58.8425 195.5025 57.935 195.255 57 195 C56.01 195 55.02 195 54 195 C53.67 195.33 53.34 195.66 53 196 C47.1589404 196.37086093 47.1589404 196.37086093 45 196 C42.76586987 192.64880481 42.76152238 191.5822245 42.8046875 187.67578125 C42.81113281 186.64775391 42.81757813 185.61972656 42.82421875 184.56054688 C42.84097656 183.48869141 42.85773438 182.41683594 42.875 181.3125 C42.88402344 180.22904297 42.89304687 179.14558594 42.90234375 178.02929688 C42.9259266 175.3526429 42.95883874 172.67643203 43 170 C42.19481934 170.47308594 41.38963867 170.94617188 40.56005859 171.43359375 C37.50006049 173.2309649 34.43962183 175.02758158 31.37890625 176.82373047 C30.06786356 177.59329719 28.7569845 178.36314278 27.44628906 179.13330078 C23.61571335 181.38398467 19.78209773 183.62933454 15.94372559 185.86669922 C14.62515622 186.63549894 13.30722387 187.40539204 11.98986816 188.17626953 C10.05053693 189.30956364 8.10782588 190.43682865 6.1640625 191.5625 C5.02662598 192.22378906 3.88918945 192.88507813 2.71728516 193.56640625 C0 195 0 195 -2 195 C-2.103125 195.78375 -2.20625 196.5675 -2.3125 197.375 C-3 200 -3 200 -6 202 C-7.46759766 201.87044922 -7.46759766 201.87044922 -8.96484375 201.73828125 C-14.84436568 201.58602578 -19.66890136 205.30592717 -24.5625 208.1875 C-26.21971069 209.13991577 -26.21971069 209.13991577 -27.91040039 210.11157227 C-31.28397666 212.05716952 -34.64380852 214.02459002 -38 216 C-38.95487305 216.56009766 -39.90974609 217.12019531 -40.89355469 217.69726562 C-45.38672529 220.33613742 -49.86975414 222.99156736 -54.34765625 225.65625 C-61.5839055 229.95233452 -68.88213501 234.14017049 -76.17626953 238.33691406 C-83.57098134 242.59344644 -90.94736371 246.88001844 -98.3125 251.1875 C-106.14562055 255.76632444 -113.99725976 260.31083711 -121.875 264.8125 C-122.76743408 265.32256592 -123.65986816 265.83263184 -124.5793457 266.3581543 C-131.40247594 270.24852967 -135.06279464 272.1522974 -143 270 C-147.97912861 267.50216472 -152.64397755 264.56181238 -157.36669922 261.61425781 C-162.36712073 258.54891505 -167.47340971 255.66481101 -172.5625 252.75 C-181.05771642 247.86056932 -189.53772195 242.94620678 -198 238 C-206.3174901 233.13892419 -214.65201634 228.30851791 -223 223.5 C-231.34798454 218.69148159 -239.6824396 213.86095653 -248 209 C-256.77747868 203.87109775 -265.57018082 198.76927116 -274.375 193.6875 C-275.50550781 193.03458984 -276.63601563 192.38167969 -277.80078125 191.70898438 C-278.84363281 191.10763672 -279.88648438 190.50628906 -280.9609375 189.88671875 C-281.88696777 189.35264404 -282.81299805 188.81856934 -283.76708984 188.26831055 C-285.1590113 187.4776882 -286.56820979 186.71589511 -288 186 C-288 193.59 -288 201.18 -288 209 C-286.02 209.66 -284.04 210.32 -282 211 C-280.33236954 211.85967635 -278.69093121 212.77188076 -277.078125 213.73046875 C-276.14887207 214.27823975 -275.21961914 214.82601074 -274.26220703 215.39038086 C-273.26817871 215.98343018 -272.27415039 216.57647949 -271.25 217.1875 C-269.08632451 218.46419778 -266.92224834 219.74021671 -264.7578125 221.015625 C-263.64180664 221.67498047 -262.52580078 222.33433594 -261.37597656 223.01367188 C-255.97873616 226.18925388 -250.55233349 229.31371869 -245.125 232.4375 C-242.94270142 233.69530051 -240.7604098 234.95311308 -238.578125 236.2109375 C-236.3854595 237.47403269 -234.19275111 238.73705344 -232 240 C-218.32957674 247.87367702 -204.67027411 255.76471032 -191.04956055 263.72412109 C-182.52041216 268.70477887 -173.97524563 273.65755843 -165.40551758 278.56811523 C-160.33745016 281.4753042 -155.29579278 284.41033527 -150.3125 287.4609375 C-149.44149658 287.98727783 -148.57049316 288.51361816 -147.6730957 289.0559082 C-146.06344374 290.03156504 -144.46230726 291.02147017 -142.87182617 292.02807617 C-142.16517822 292.4532251 -141.45853027 292.87837402 -140.73046875 293.31640625 C-139.82397583 293.88016968 -139.82397583 293.88016968 -138.89916992 294.45532227 C-135.32970806 295.47903603 -132.53017401 293.28467744 -129.42651367 291.61816406 C-128.51619385 291.08932617 -127.60587402 290.56048828 -126.66796875 290.015625 C-125.63470459 289.4175 -124.60144043 288.819375 -123.53686523 288.203125 C-121.87892944 287.23632812 -121.87892944 287.23632812 -120.1875 286.25 C-119.02105905 285.57266804 -117.85447141 284.89558865 -116.68774414 284.21875 C-114.28999486 282.8268939 -111.89351214 281.4328926 -109.49804688 280.03710938 C-106.27745034 278.16067719 -103.05311974 276.29073957 -99.828125 274.421875 C-97.86432138 273.28170107 -95.90077631 272.14108168 -93.9375 271 C-92.97239502 270.43933838 -92.00729004 269.87867676 -91.01293945 269.30102539 C-85.69185837 266.19673076 -80.4062209 263.04084056 -75.15234375 259.82421875 C-74.00860158 259.12686019 -72.86480326 258.42959372 -71.72094727 257.73242188 C-69.54043811 256.39977359 -67.36486429 255.05900558 -65.19506836 253.70898438 C-64.21030518 253.10763672 -63.22554199 252.50628906 -62.2109375 251.88671875 C-61.34774902 251.35264404 -60.48456055 250.81856934 -59.59521484 250.26831055 C-55.99142581 248.5070985 -52.64850247 247.64356703 -48.6875 248.5 C-47 250 -47 250 -45.9375 253.3125 C-46 257 -46 257 -47.87109375 259.3671875 C-51.76572751 262.97025169 -56.49307153 265.29698178 -61.125 267.8125 C-69.94093973 272.69480537 -78.65879263 277.71052873 -87.3125 282.875 C-99.62108674 290.20805879 -111.98403958 297.4428587 -124.44335938 304.51757812 C-126.00700342 305.42422888 -127.55506302 306.35940461 -129.07226562 307.34179688 C-131.8316313 309.10598148 -133.63580416 309.99855094 -136.9453125 310.01171875 C-140.8883407 308.70577974 -144.28876557 306.89007888 -147.875 304.8125 C-148.65037109 304.37252686 -149.42574219 303.93255371 -150.22460938 303.47924805 C-152.82359189 301.9983078 -155.41281498 300.50144942 -158 299 C-159.36753418 298.20722656 -159.36753418 298.20722656 -160.76269531 297.3984375 C-165.7360356 294.51058115 -170.70169458 291.60978837 -175.6640625 288.703125 C-182.05281992 284.96365411 -188.46116076 281.25874966 -194.875 277.5625 C-195.95458984 276.94028564 -197.03417969 276.31807129 -198.14648438 275.67700195 C-200.3368252 274.41488483 -202.52725502 273.15292215 -204.71777344 271.89111328 C-211.22871257 268.13971976 -217.73663194 264.38309006 -224.24511719 260.62744141 C-229.68585336 257.48817754 -235.12731477 254.35018503 -240.5703125 251.21484375 C-251.53917031 244.89489797 -262.49900385 238.55988113 -273.4375 232.1875 C-274.96624756 231.29792603 -274.96624756 231.29792603 -276.52587891 230.39038086 C-277.4647998 229.84260986 -278.4037207 229.29483887 -279.37109375 228.73046875 C-280.19536865 228.24989014 -281.01964355 227.76931152 -281.86889648 227.27416992 C-283.61029285 226.23300282 -285.31184188 225.12543875 -287 224 C-287 230.93 -287 237.86 -287 245 C-285.47375 245.84820312 -283.9475 246.69640625 -282.375 247.5703125 C-269.53459354 254.72356148 -256.77856308 262.00059966 -244.09765625 269.43359375 C-237.74953385 273.15334912 -231.37637887 276.82895249 -225 280.5 C-215.66124142 285.87891974 -206.34359541 291.2925953 -197.0390625 296.73046875 C-188.63119824 301.64057321 -180.20377102 306.51634269 -171.75708008 311.359375 C-166.20301976 314.54915883 -160.68093287 317.78094618 -155.19921875 321.09375 C-154.10544922 321.74923828 -153.01167969 322.40472656 -151.88476562 323.08007812 C-149.79935331 324.33234465 -147.72082464 325.59616828 -145.65039062 326.87304688 C-144.71775391 327.43056641 -143.78511719 327.98808594 -142.82421875 328.5625 C-142.01041748 329.05878906 -141.19661621 329.55507813 -140.3581543 330.06640625 C-137.39122786 331.24101301 -136.0126127 330.97418244 -133 330 C-130.65606539 328.931069 -130.65606539 328.931069 -128.32421875 327.55078125 C-127.42662842 327.0398291 -126.52903809 326.52887695 -125.60424805 326.00244141 C-124.64172119 325.44476074 -123.67919434 324.88708008 -122.6875 324.3125 C-121.67276611 323.73161621 -120.65803223 323.15073242 -119.61254883 322.55224609 C-110.45972793 317.30054678 -101.34856184 311.97625034 -92.2421875 306.64453125 C-84.33742717 302.0209683 -76.40072972 297.45298155 -68.46362305 292.88525391 C-67.43019775 292.29019043 -66.39677246 291.69512695 -65.33203125 291.08203125 C-64.42171143 290.55843018 -63.5113916 290.0348291 -62.57348633 289.49536133 C-60.82454735 288.47911513 -59.09791007 287.42369997 -57.39331055 286.3347168 C-54.07331744 284.48320172 -51.73397944 284.51596563 -48 285 C-46 286.625 -46 286.625 -45 289 C-44.75 291.875 -44.75 291.875 -46 295 C-52.04599296 300.01736899 -59.45559138 303.64312669 -66.27130127 307.48904419 C-69.3816238 309.24451586 -72.48538184 311.01153526 -75.58984375 312.77734375 C-76.2178186 313.13420761 -76.84579346 313.49107147 -77.49279785 313.85874939 C-83.39560188 317.2166752 -89.26360431 320.63285528 -95.125 324.0625 C-96.55875977 324.8970874 -96.55875977 324.8970874 -98.02148438 325.74853516 C-102.77496189 328.5171576 -107.51635778 331.30338034 -112.23352051 334.13334656 C-114.59690926 335.54794208 -116.96740542 336.95034429 -119.33905029 338.3510437 C-121.0197695 339.34961245 -122.69094512 340.36418943 -124.36181641 341.37915039 C-134.24304642 347.19761443 -134.24304642 347.19761443 -140 346 C-142.62887066 344.74885775 -144.88468973 343.49825659 -147.3125 341.9375 C-148.81653289 341.01240912 -150.32182631 340.08936568 -151.828125 339.16796875 C-152.64990234 338.66056152 -153.47167969 338.1531543 -154.31835938 337.63037109 C-159.34403419 334.57488526 -164.46010909 331.67486778 -169.5625 328.75 C-178.05752497 323.86023184 -186.5376675 318.94612009 -195 314 C-206.54718726 307.25280507 -218.12902168 300.56660602 -229.71777344 293.89111328 C-236.21336316 290.14856359 -242.70606042 286.40099757 -249.19897461 282.65380859 C-254.28625032 279.71817241 -259.37426104 276.78383388 -264.4649353 273.85409546 C-266.87543748 272.46671905 -269.28551376 271.07860376 -271.69555664 269.69042969 C-273.40143968 268.70826185 -275.10793986 267.72716615 -276.81445312 266.74609375 C-278.35842773 265.85664062 -278.35842773 265.85664062 -279.93359375 264.94921875 C-280.84165771 264.42674561 -281.74972168 263.90427246 -282.68530273 263.3659668 C-284.49126201 262.30022034 -286.25521129 261.16319248 -288 260 C-289.19445856 267.04770901 -289.83198587 274.28220868 -287 281 C-281.52878404 286.86576833 -273.61098996 289.95288522 -266.46533203 293.31542969 C-260.7988508 296.07002462 -255.42362199 299.30077133 -250 302.5 C-247.81376468 303.76260902 -245.62626526 305.02303178 -243.4375 306.28125 C-237.27972218 309.83381412 -231.13775469 313.41298079 -225 317 C-212.36256546 324.38414893 -199.68324702 331.69490135 -187 339 C-183.71261122 340.89341888 -180.42535239 342.78705732 -177.13891602 344.68212891 C-174.9792822 345.92631319 -172.81832993 347.16821198 -170.65600586 348.40771484 C-165.13117906 351.58170365 -159.64688847 354.80719477 -154.20703125 358.125 C-153.11213379 358.78556396 -152.01723633 359.44612793 -150.88916016 360.12670898 C-148.80018943 361.38974459 -146.71991028 362.6673019 -144.64990234 363.96118164 C-143.71742676 364.52184326 -142.78495117 365.08250488 -141.82421875 365.66015625 C-141.01041748 366.16168213 -140.19661621 366.66320801 -139.3581543 367.17993164 C-136.99614435 368.25098234 -136.99614435 368.25098234 -134.51806641 367.3190918 C-133.27162354 366.66614136 -133.27162354 366.66614136 -132 366 C-130.77156372 365.36143066 -130.77156372 365.36143066 -129.51831055 364.70996094 C-128.64988525 364.22301758 -127.78145996 363.73607422 -126.88671875 363.234375 C-125.40498169 362.40510498 -125.40498169 362.40510498 -123.89331055 361.55908203 C-122.83539307 360.96208496 -121.77747559 360.36508789 -120.6875 359.75 C-119.57737549 359.12593262 -118.46725098 358.50186523 -117.32348633 357.85888672 C-109.90803596 353.6768352 -102.53479228 349.4257182 -95.1875 345.125 C-92.20920427 343.38385402 -89.2308888 341.64274199 -86.25244141 339.90185547 C-84.56717046 338.91639828 -82.88196866 337.93082162 -81.19769287 336.94366455 C-77.38652698 334.71003738 -73.57004427 332.48597976 -69.74649048 330.27362061 C-68.51078999 329.55648109 -67.27699805 328.83604158 -66.04525757 328.11212158 C-64.32428252 327.10125974 -62.59585602 326.10311695 -60.8671875 325.10546875 C-59.87831543 324.52949951 -58.88944336 323.95353027 -57.87060547 323.36010742 C-54.83740369 321.92296104 -52.33624651 321.29192889 -49 321 C-46.625 322 -46.625 322 -45 324 C-44.4375 327.4375 -44.4375 327.4375 -45 331 C-49.35324122 335.27229252 -55.01576556 337.94463687 -60.3125 340.875 C-68.55115587 345.47872372 -76.73795616 350.15650716 -84.875 354.9375 C-94.27611403 360.45217172 -103.7490285 365.826257 -113.27685547 371.11889648 C-114.72535889 371.92435913 -114.72535889 371.92435913 -116.203125 372.74609375 C-117.15123047 373.26929199 -118.09933594 373.79249023 -119.07617188 374.33154297 C-121.14032438 375.5094336 -123.17612507 376.73768898 -125.18945312 378.00048828 C-126.23552734 378.65130371 -127.28160156 379.30211914 -128.359375 379.97265625 C-129.29749023 380.574729 -130.23560547 381.17680176 -131.20214844 381.79711914 C-134.68777813 383.29569658 -136.38446936 383.03377927 -140 382 C-142.41162109 380.9152832 -142.41162109 380.9152832 -144.7734375 379.55078125 C-145.66780518 379.0398291 -146.56217285 378.52887695 -147.48364258 378.00244141 C-148.43779053 377.44476074 -149.39193848 376.88708008 -150.375 376.3125 C-151.89033325 375.44117432 -151.89033325 375.44117432 -153.4362793 374.55224609 C-156.63022235 372.71170219 -159.81590063 370.85751341 -163 369 C-164.97785722 367.85024774 -166.95572163 366.70050788 -168.93359375 365.55078125 C-172.90541407 363.23829332 -176.87346801 360.91946834 -180.83984375 358.59765625 C-190.43942238 352.98321325 -200.08135951 347.4419968 -209.71777344 341.89111328 C-216.22871257 338.13971976 -222.73663194 334.38309006 -229.24511719 330.62744141 C-234.68585336 327.48817754 -240.12731477 324.35018503 -245.5703125 321.21484375 C-256.39364167 314.97872075 -267.20821351 308.72808398 -278 302.4375 C-278.9605127 301.87796631 -279.92102539 301.31843262 -280.91064453 300.74194336 C-282.72601062 299.68231478 -284.53972466 298.61984945 -286.3515625 297.55419922 C-288.17449819 296.48443442 -290.00297913 295.42408137 -291.8359375 294.37158203 C-292.73570312 293.84806152 -293.63546875 293.32454102 -294.5625 292.78515625 C-295.36816406 292.32117432 -296.17382812 291.85719238 -297.00390625 291.37915039 C-299 290 -299 290 -301 287 C-301.26006222 284.84882545 -301.26006222 284.84882545 -301.27415466 282.30703735 C-301.28412979 281.34251144 -301.29410492 280.37798553 -301.30438232 279.38423157 C-301.305047 278.32753769 -301.30571167 277.27084381 -301.30639648 276.18212891 C-301.31888176 274.51102806 -301.31888176 274.51102806 -301.33161926 272.8061676 C-301.35577082 269.11293065 -301.36449759 265.41987011 -301.37109375 261.7265625 C-301.38005583 259.16449936 -301.38917759 256.60243678 -301.39845276 254.04037476 C-301.41495914 248.66524632 -301.42267908 243.29018915 -301.42553711 237.91503906 C-301.42917216 231.70564582 -301.45906458 225.49674694 -301.50094169 219.28750479 C-301.53983312 213.31112601 -301.55112997 207.33502113 -301.55226326 201.35850143 C-301.55647542 198.81713555 -301.56894927 196.27576962 -301.58978081 193.73448563 C-301.61658798 190.18143733 -301.61190032 186.62975739 -301.59936523 183.07666016 C-301.61419952 182.02401474 -301.62903381 180.97136932 -301.64431763 179.88682556 C-301.57239625 172.74034827 -301.57239625 172.74034827 -298.60992432 168.90863037 C-296.17504259 167.12800816 -293.79487736 165.47267027 -291.17578125 163.9765625 C-290.24330566 163.43845947 -289.31083008 162.90035645 -288.35009766 162.34594727 C-287.34769043 161.77803467 -286.3452832 161.21012207 -285.3125 160.625 C-284.25595215 160.017771 -283.1994043 159.41054199 -282.11083984 158.78491211 C-279.87309323 157.4994016 -277.63346354 156.21716423 -275.39208984 154.93798828 C-271.03397514 152.44808512 -266.68912549 149.93556411 -262.34399414 147.4230957 C-255.80339489 143.64259461 -249.25536313 139.87497324 -242.70898438 136.10449219 C-231.12318234 129.43043688 -219.54446647 122.74535916 -208 116 C-196.44987611 109.25133525 -184.86514179 102.56365056 -173.2734375 95.88671875 C-170.0352484 94.0203162 -166.79860562 92.15126237 -163.5625 90.28125 C-152.43098963 83.84986096 -141.28831986 77.43852007 -130.125 71.0625 C-129.5454657 70.73148285 -128.9659314 70.4004657 -128.36883545 70.05941772 C-122.46016138 66.68495207 -116.54995574 63.31318031 -110.63821411 59.9440918 C-78.77231461 41.78197147 -47.01936819 23.38110464 -15.81420898 4.09960938 C-14.95126221 3.56916016 -14.08831543 3.03871094 -13.19921875 2.4921875 C-12.45502686 2.03183105 -11.71083496 1.57147461 -10.9440918 1.09716797 C-6.88809841 -1.19187313 -4.43111013 -1.23086393 0 0 Z M-13.8125 17.9375 C-14.74102783 18.46819092 -15.66955566 18.99888184 -16.6262207 19.5456543 C-24.99016542 24.35868 -33.23212928 29.3655925 -41.46435547 34.39889526 C-50.17858736 39.72361383 -58.95461082 44.9172973 -67.8125 50 C-68.88636963 50.61681641 -69.96023926 51.23363281 -71.06665039 51.86914062 C-73.10734903 53.04097973 -75.14811704 54.21269805 -77.18896484 55.38427734 C-81.1777025 57.67691811 -85.16058358 59.97803409 -89.125 62.3125 C-89.74093018 62.66763672 -90.35686035 63.02277344 -90.99145508 63.38867188 C-92.36264148 64.20285842 -93.68830907 65.09307178 -95 66 C-95 66.66 -95 67.32 -95 68 C-93.30700116 69.06640852 -91.59476329 70.1023141 -89.875 71.125 C-88.44800781 71.99511719 -88.44800781 71.99511719 -86.9921875 72.8828125 C-83.11949382 74.32875296 -81.78456564 73.50831589 -78 72 C-76.16336653 71.05548379 -74.35349885 70.05753662 -72.5703125 69.015625 C-71.0241626 68.1177124 -71.0241626 68.1177124 -69.44677734 67.20166016 C-68.35059082 66.5576123 -67.2544043 65.91356445 -66.125 65.25 C-64.96986088 64.57680118 -63.81441978 63.9041203 -62.65869141 63.23193359 C-59.68383557 61.49997903 -56.71276536 59.76164734 -53.74291992 58.02111816 C-51.00192657 56.41526234 -48.25872818 54.81318592 -45.515625 53.2109375 C-44.49098145 52.61192627 -43.46633789 52.01291504 -42.41064453 51.39575195 C-40.39792965 50.22169525 -38.38329698 49.05091968 -36.36669922 47.88354492 C-31.990134 45.34853126 -27.64110757 42.79491559 -23.3671875 40.08984375 C-16.35015535 35.73064323 -11.08614338 32.82403869 -2.55078125 34.5625 C-0.02250461 35.18043662 -0.02250461 35.18043662 2.3137207 34.37255859 C5.84190109 33.8832372 7.40715377 34.81361654 10.53125 36.4765625 C11.58699219 37.03633789 12.64273438 37.59611328 13.73046875 38.17285156 C19.04703678 41.14396828 24.28541807 44.22879356 29.5 47.375 C31.87036755 48.79507563 34.24333358 50.21076122 36.6171875 51.625 C37.52396744 52.16548477 37.52396744 52.16548477 38.44906616 52.71688843 C45.12658649 56.68664546 51.87230647 60.5349939 58.625 64.375 C74.33849696 73.32024477 74.33849696 73.32024477 82.125 77.875 C82.81158691 78.27380371 83.49817383 78.67260742 84.20556641 79.08349609 C86.7331863 80.56935801 88.91730386 81.91730386 91 84 C91.375 86.875 91.375 86.875 91 90 C89.66666667 91.33333333 88.33333333 92.66666667 87 94 C86.33333333 97 86.33333333 97 87 100 C87.680625 100.639375 88.36125 101.27875 89.0625 101.9375 C91 104 91 104 91.3515625 107.18359375 C90.83539372 110.04490784 90.11389867 110.90741974 87.8269043 112.76635742 C84.71184397 114.67740286 81.54309141 116.41638519 78.3125 118.125 C77.13565201 118.77043227 75.96028796 119.41857719 74.78637695 120.06933594 C72.38091515 121.40120902 69.97015938 122.72266952 67.55566406 124.03808594 C62.19015462 126.97846522 56.94122781 130.11559991 51.6875 133.25 C49.92067284 134.29704363 48.15375298 135.34393087 46.38671875 136.390625 C45.61763184 136.85017578 44.84854492 137.30972656 44.05615234 137.78320312 C42.35052593 138.79256456 40.624873 139.76799546 38.89453125 140.734375 C38.26933594 141.15203125 37.64414062 141.5696875 37 142 C37 142.66 37 143.32 37 144 C39.2950546 146.06642513 39.2950546 146.06642513 42.3125 148 C43.29863281 148.70125 44.28476562 149.4025 45.30078125 150.125 C50.46869204 151.34739917 52.71781452 149.4953723 57.12426758 146.8125 C58.07325928 146.214375 59.02225098 145.61625 60 145 C61.74828169 144.01082579 63.50212286 143.03140495 65.26171875 142.0625 C67.07109573 141.04305555 68.87966093 140.02216923 70.6875 139 C72.16682007 138.16359985 72.16682007 138.16359985 73.67602539 137.31030273 C83.80991539 131.5646954 93.86774607 125.69159946 103.91796875 119.80126953 C107.11781871 117.93114176 110.3237175 116.07176097 113.53125 114.21484375 C114.60383057 113.59279053 115.67641113 112.9707373 116.78149414 112.32983398 C118.81848945 111.14879586 120.85665542 109.96977345 122.89624023 108.79321289 C128.74434502 105.39680383 134.42334599 101.82635509 140 98 C137.60030318 95.34434213 135.03555811 93.72001447 131.93359375 91.953125 C130.90411621 91.36329834 129.87463867 90.77347168 128.81396484 90.16577148 C127.69973145 89.53356689 126.58549805 88.9013623 125.4375 88.25 C124.2674468 87.58132488 123.0976925 86.91212649 121.92822266 86.24243164 C119.49645633 84.85046746 117.06341756 83.46076798 114.62939453 82.07275391 C109.03377343 78.87980605 103.45465587 75.65823916 97.875 72.4375 C96.26129517 71.50695801 96.26129517 71.50695801 94.61499023 70.55761719 C86.40714837 65.82158816 78.22004303 61.05069126 70.03857422 56.26928711 C62.70687429 51.98755029 55.35709124 47.73793815 48 43.5 C13.82081629 23.80473419 13.82081629 23.80473419 0.19848633 15.48681641 C-5.91042017 11.77646045 -7.85257996 14.5255556 -13.8125 17.9375 Z M-31.78245544 58.75300598 C-38.14566989 62.74897143 -44.66390485 66.46138631 -51.1875 70.1875 C-53.3065425 71.40919771 -55.4250664 72.63179557 -57.54296875 73.85546875 C-61.68967864 76.24695752 -65.84127671 78.6294689 -70 81 C-65.34559302 85.09587814 -60.08218402 87.89029366 -54.6875 90.875 C-46.51545144 95.4433909 -38.3879444 100.07540172 -30.3125 104.8125 C-20.17926791 110.75018314 -9.99628929 116.59614736 0.2097168 122.4074707 C1.310979 123.03484131 2.41224121 123.66221191 3.546875 124.30859375 C4.61744141 124.91429199 5.68800781 125.51999023 6.79101562 126.14404297 C8.9878604 127.41461616 11.16309932 128.72308632 13.31835938 130.06298828 C14.37345703 130.71380371 15.42855469 131.36461914 16.515625 132.03515625 C17.45180664 132.62820557 18.38798828 133.22125488 19.35253906 133.83227539 C22.56745917 135.25029115 23.71490728 135.16059595 27 134 C29.08092562 132.9399124 31.12110245 131.79826422 33.12890625 130.60546875 C33.71214661 130.26159119 34.29538696 129.91771362 34.89630127 129.56341553 C36.78921129 128.4449946 38.67585169 127.31644577 40.5625 126.1875 C41.86317792 125.41616181 43.16420565 124.64541322 44.46557617 123.87524414 C48.31620926 121.59320458 52.15863973 119.29760234 56 117 C57.09376953 116.34708984 58.18753906 115.69417969 59.31445312 115.02148438 C64.88480871 111.69499236 70.44686368 108.35515454 76 105 C75.75660889 104.071875 75.75660889 104.071875 75.50830078 103.125 C75.00022148 101.0009259 74.86648993 99.17857728 74.875 97 C74.87242187 96.34 74.86984375 95.68 74.8671875 95 C75.00681282 92.89740694 75.46660284 91.03400705 76 89 C69.72495246 84.67336905 63.29019761 80.81597112 56.625 77.125 C45.39283183 70.84371343 34.32348698 64.31400252 23.26953125 57.7265625 C22.23119141 57.11151855 21.19285156 56.49647461 20.12304688 55.86279297 C18.00014732 54.59655441 15.88711624 53.31365411 13.78320312 52.01611328 C6.34956305 47.5001885 0.29559556 44.590984 -8.50585938 46.24267578 C-16.89038113 48.78856326 -24.42267799 54.12871405 -31.78245544 58.75300598 Z M-116.26171875 77.7109375 C-117.29103516 78.29198242 -118.32035156 78.87302734 -119.38085938 79.47167969 C-120.47205078 80.09977539 -121.56324219 80.72787109 -122.6875 81.375 C-123.80060547 82.00825195 -124.91371094 82.64150391 -126.06054688 83.29394531 C-129.37916229 85.18660811 -132.69017141 87.09202289 -136 89 C-136.93021973 89.53206055 -137.86043945 90.06412109 -138.81884766 90.61230469 C-141.21685162 91.98428117 -143.60982924 93.36443187 -146 94.75 C-146.70471436 95.15524902 -147.40942871 95.56049805 -148.13549805 95.97802734 C-151.65849817 97.88927523 -151.65849817 97.88927523 -154 101 C-153.36199463 101.34144043 -152.72398926 101.68288086 -152.06665039 102.03466797 C-140.44836687 108.26266048 -128.89109463 114.54489677 -117.56640625 121.29296875 C-111.93140848 124.64807105 -106.24550418 127.91460509 -100.5625 131.1875 C-99.45535645 131.8254248 -98.34821289 132.46334961 -97.20751953 133.12060547 C-94.93680714 134.42875814 -92.66597273 135.73669902 -90.39501953 137.04443359 C-86.00543131 139.57288186 -81.61758172 142.10433619 -77.22998047 144.63623047 C-75.07162546 145.88164862 -72.91309596 147.12676443 -70.75439453 148.37158203 C-65.32169516 151.50454476 -59.89118891 154.64119914 -54.46484375 157.78515625 C-43.36585638 164.21145254 -32.24284793 170.59136757 -21.0625 176.875 C-19.99572021 177.47642822 -18.92894043 178.07785645 -17.82983398 178.69750977 C-16.84571533 179.24850342 -15.86159668 179.79949707 -14.84765625 180.3671875 C-13.98148682 180.85300293 -13.11531738 181.33881836 -12.22290039 181.83935547 C-9.9293004 183.11177195 -9.9293004 183.11177195 -7 184 C-4.18472157 182.77737564 -4.18472157 182.77737564 -1.109375 180.9140625 C-0.531875 180.58139374 0.045625 180.24872498 0.640625 179.90597534 C2.51628739 178.82209517 4.38309398 177.72388186 6.25 176.625 C7.52526016 175.88398034 8.80097676 175.14374563 10.07714844 174.40429688 C18.76912421 169.35645428 27.42749203 164.24847427 36 159 C33.31676427 156.1435039 30.7369858 154.06096026 27.34375 152.109375 C25.95591309 151.3052417 25.95591309 151.3052417 24.54003906 150.48486328 C23.53682617 149.9123584 22.53361328 149.33985352 21.5 148.75 C20.44264648 148.1401123 19.38529297 147.53022461 18.29589844 146.90185547 C15.44832975 145.26177902 12.59751019 143.6275782 9.74438477 141.99719238 C6.88534149 140.36279599 4.02893405 138.72379934 1.171875 137.0859375 C-5.88016149 133.04806177 -12.93942888 129.0229283 -20 125 C-24.75082201 122.29310618 -29.50102681 119.58513627 -34.25 116.875 C-34.83258575 116.54262329 -35.41517151 116.21024658 -36.01541138 115.86779785 C-45.08028332 110.69398463 -54.09921579 105.44476771 -63.10302734 100.16552734 C-71.49135134 95.26285882 -79.95723973 90.50466381 -88.45385742 85.79248047 C-89.91142456 84.98254639 -89.91142456 84.98254639 -91.3984375 84.15625 C-92.80174316 83.37701172 -92.80174316 83.37701172 -94.23339844 82.58203125 C-97.83389019 80.52315492 -101.3396058 78.32294936 -104.83056641 76.08398438 C-109.3402549 73.83066264 -112.23695483 75.41904333 -116.26171875 77.7109375 Z M-173.69921875 110.5703125 C-174.64845215 111.12968506 -175.59768555 111.68905762 -176.57568359 112.26538086 C-177.60258301 112.87905518 -178.62948242 113.49272949 -179.6875 114.125 C-181.88142398 115.42071929 -184.0754368 116.71628815 -186.26953125 118.01171875 C-187.39182129 118.6773584 -188.51411133 119.34299805 -189.67041016 120.02880859 C-194.72522109 123.02136934 -199.79953078 125.98015663 -204.875 128.9375 C-206.35190308 129.79927856 -206.35190308 129.79927856 -207.85864258 130.6784668 C-218.43654954 136.84712885 -229.04562853 142.96157039 -239.65625 149.07373047 C-244.26777425 151.73034016 -248.8785214 154.38829557 -253.48876953 157.04711914 C-255.66664882 158.30312898 -257.84469506 159.55884939 -260.02294922 160.81420898 C-262.01377642 161.96224519 -264.00324363 163.11264363 -265.99121094 164.265625 C-268.12774809 165.4972024 -270.27253918 166.71450987 -272.42285156 167.921875 C-273.52338867 168.54578125 -274.62392578 169.1696875 -275.7578125 169.8125 C-276.76215332 170.37582031 -277.76649414 170.93914062 -278.80126953 171.51953125 C-279.88964111 172.25236328 -279.88964111 172.25236328 -281 173 C-281 173.66 -281 174.32 -281 175 C-280.42894531 175.32049316 -279.85789062 175.64098633 -279.26953125 175.97119141 C-267.18769443 182.75882111 -255.15672063 189.62440301 -243.19726562 196.62548828 C-235.81482909 200.94618897 -228.412751 205.23153453 -221 209.5 C-211.6641231 214.87736528 -202.34854514 220.28810667 -193.04785156 225.72607422 C-187.84849986 228.76344623 -182.64162673 231.78686237 -177.421875 234.7890625 C-175.76792725 235.74039063 -175.76792725 235.74039063 -174.08056641 236.7109375 C-171.88049566 237.9753089 -169.67966291 239.23835538 -167.47802734 240.5 C-162.29255568 243.48154792 -157.14273408 246.50306868 -152.0546875 249.6484375 C-150.67458496 250.49801025 -150.67458496 250.49801025 -149.26660156 251.36474609 C-147.55072763 252.42693866 -145.84129382 253.49963194 -144.13964844 254.58447266 C-143.38458008 255.05159668 -142.62951172 255.5187207 -141.8515625 256 C-141.20010254 256.4125 -140.54864258 256.825 -139.87744141 257.25 C-137.40583711 258.2373561 -136.47293511 257.9582695 -134 257 C-132.08334162 256.01388033 -130.19562013 254.97085523 -128.328125 253.89453125 C-126.63792236 252.92471313 -126.63792236 252.92471313 -124.91357422 251.93530273 C-123.69230012 251.22784455 -122.47111086 250.5202399 -121.25 249.8125 C-119.98343912 249.08306135 -118.7166721 248.35398052 -117.44970703 247.62524414 C-108.59163778 242.52407873 -99.7581318 237.38019986 -90.93579102 232.2175293 C-83.70529199 227.98674659 -76.45007879 223.80042423 -69.1875 219.625 C-58.7048409 213.59431598 -48.28578159 207.46211291 -37.89331055 201.27783203 C-32.61999935 198.14001381 -27.34237028 195.01893599 -22 192 C-24.12478031 189.75644316 -26.29768748 187.95483708 -28.875 186.25 C-29.53242188 185.80140625 -30.18984375 185.3528125 -30.8671875 184.890625 C-33.77610312 183.67591298 -35.00843803 183.99992646 -38 185 C-40.50291923 186.33430886 -42.89867756 187.70799554 -45.3125 189.1875 C-46.83808567 190.10362436 -48.36415544 191.01894291 -49.890625 191.93359375 C-51.12329102 192.67585205 -51.12329102 192.67585205 -52.38085938 193.43310547 C-57.08389728 196.2466865 -61.82541029 198.99427993 -66.5625 201.75 C-68.62377655 202.95168804 -70.68497352 204.1535126 -72.74609375 205.35546875 C-76.86272674 207.75485936 -80.98003515 210.15308684 -85.09765625 212.55078125 C-86.09547119 213.132229 -87.09328613 213.71367676 -88.12133789 214.31274414 C-90.11337349 215.47318624 -92.10604316 216.63254059 -94.09936523 217.79077148 C-99.15331482 220.73269732 -104.18498285 223.70570458 -109.1875 226.734375 C-110.18507324 227.33499756 -111.18264648 227.93562012 -112.21044922 228.55444336 C-114.1023697 229.69564954 -115.98972177 230.84447683 -117.87158203 232.00219727 C-124.79951725 236.17065611 -129.66218832 237.43066563 -137.65625 236.15625 C-140.09558821 235.87666639 -140.09558821 235.87666639 -142.78417969 236.66992188 C-146.81269892 237.08341702 -148.34298954 236.17749054 -151.796875 234.125 C-152.90708008 233.47708496 -154.01728516 232.82916992 -155.16113281 232.16162109 C-156.35755458 231.4413011 -157.55384011 230.72075478 -158.75 230 C-159.99999851 229.26347428 -161.25099202 228.52863486 -162.50292969 227.79541016 C-165.08082212 226.28310419 -167.65355663 224.76254441 -170.22265625 223.23535156 C-174.80301684 220.51733218 -179.42057285 217.86646676 -184.04052734 215.21630859 C-193.75772517 209.64144886 -203.44296714 204.01065412 -213.125 198.375 C-214.10243164 197.80700684 -215.07986328 197.23901367 -216.08691406 196.65380859 C-217.8982304 195.59757645 -219.70669734 194.53643648 -221.51171875 193.46948242 C-223.14234758 192.50649626 -224.78021149 191.55563438 -226.42578125 190.6184082 C-227.15410156 190.19132568 -227.88242188 189.76424316 -228.6328125 189.32421875 C-229.58631592 188.77640747 -229.58631592 188.77640747 -230.55908203 188.2175293 C-232 187 -232 187 -232.75 183.4375 C-231.90629648 179.57052553 -230.80505644 178.62408505 -228 176 C-227.92357291 173.88850355 -227.92357291 173.88850355 -229 172 C-229.515625 171.566875 -230.03125 171.13375 -230.5625 170.6875 C-232 169 -232 169 -232.75 165.6875 C-232 162 -232 162 -230.37988281 160.56469727 C-229.66155273 160.11151123 -228.94322266 159.6583252 -228.203125 159.19140625 C-227.38489258 158.67489502 -226.56666016 158.15838379 -225.72363281 157.6262207 C-220.87238095 154.72964589 -215.94917535 151.97509961 -211 149.25 C-203.15647553 144.89476633 -195.34729362 140.50301866 -187.63647461 135.91699219 C-183.19584375 133.28031709 -178.73075827 130.68892686 -174.25 128.12109375 C-173.65855698 127.78175308 -173.06711395 127.44241241 -172.45774841 127.0927887 C-170.06918449 125.72254022 -167.68059957 124.35238108 -165.2883606 122.98855591 C-163.61904772 122.03679982 -161.95205379 121.08097999 -160.28515625 120.125 C-159.31457275 119.57070312 -158.34398926 119.01640625 -157.34399414 118.4453125 C-154.92327733 117.0771184 -154.92327733 117.0771184 -153 115 C-155.10016623 113.82558465 -157.20458755 112.66035988 -159.3125 111.5 C-159.90740234 111.16613281 -160.50230469 110.83226562 -161.11523438 110.48828125 C-166.41600156 107.58618525 -168.57723763 107.5264092 -173.69921875 110.5703125 Z M141.3984375 111.5703125 C139.96975342 112.40937134 139.96975342 112.40937134 138.51220703 113.26538086 C137.47692871 113.87905518 136.44165039 114.49272949 135.375 115.125 C133.17192778 116.42066266 130.96880132 117.7162331 128.765625 119.01171875 C127.07276367 120.01017822 127.07276367 120.01017822 125.34570312 121.02880859 C120.28065218 124.01298995 115.20340574 126.97612049 110.125 129.9375 C109.14700439 130.50839355 108.16900879 131.07928711 107.16137695 131.66748047 C100.75998138 135.40115055 94.34844502 139.11670389 87.92285156 142.80859375 C85.70057086 144.09249205 83.48490289 145.38791187 81.27636719 146.6953125 C76.46254117 149.53163817 71.75286121 152.19448737 66.58203125 154.32421875 C59.95475322 157.05048233 59.95475322 157.05048233 55 162 C53.03837807 169.84510142 53.95344635 178.06892283 55 186 C63.45323815 181.20784739 71.86058242 176.3404241 80.25 171.4375 C88.81758287 166.4307343 97.40102095 161.45264588 106 156.5 C114.78431076 151.43963863 123.55602408 146.35839004 132.3125 141.25 C133.31474609 140.66541016 134.31699219 140.08082031 135.34960938 139.47851562 C139.17730707 137.24352654 139.17730707 137.24352654 143 135 C143.91442871 134.55648193 144.82885742 134.11296387 145.77099609 133.65600586 C148.23232406 132.20073108 148.23232406 132.20073108 148.56762695 129.5480957 C148.54144287 128.60023193 148.51525879 127.65236816 148.48828125 126.67578125 C148.47216797 125.64775391 148.45605469 124.61972656 148.43945312 123.56054688 C148.39755859 122.48869141 148.35566406 121.41683594 148.3125 120.3125 C148.28994141 119.22904297 148.26738281 118.14558594 148.24414062 117.02929688 C148.1851579 114.35148095 148.10290307 111.67642973 148 109 C145.22382471 109 143.78857074 110.15873008 141.3984375 111.5703125 Z M-145.16796875 124.109375 C-146.53649629 124.94428839 -147.87558522 125.82868159 -149.1875 126.75 C-150.75621258 127.73224665 -152.32523973 128.71399106 -153.89453125 129.6953125 C-154.72033691 130.23446289 -155.54614258 130.77361328 -156.39697266 131.32910156 C-160.95963492 134.25790108 -165.67948613 136.9165698 -170.375 139.625 C-172.40157664 140.81158679 -174.42760359 141.99911281 -176.453125 143.1875 C-181.13538899 145.92385072 -185.83450794 148.62849736 -190.546875 151.3125 C-191.17933136 151.67282318 -191.81178772 152.03314636 -192.46340942 152.40438843 C-195.55230102 154.16313248 -198.64303171 155.9185635 -201.73583984 157.67041016 C-202.85684082 158.30769043 -203.9778418 158.9449707 -205.1328125 159.6015625 C-206.12168457 160.16182129 -207.11055664 160.72208008 -208.12939453 161.29931641 C-211.16786966 163.09945399 -214.07860156 165.01682928 -217 167 C-216.91621094 167.58007812 -216.83242187 168.16015625 -216.74609375 168.7578125 C-216.64425781 169.53898437 -216.54242188 170.32015625 -216.4375 171.125 C-216.28087891 172.27355469 -216.28087891 172.27355469 -216.12109375 173.4453125 C-215.98008451 176.42015254 -216.4773671 179.07536742 -217 182 C-216.34854004 182.37584229 -215.69708008 182.75168457 -215.02587891 183.13891602 C-214.10210449 183.67186279 -213.17833008 184.20480957 -212.2265625 184.75390625 C-210.66736084 185.65338989 -210.66736084 185.65338989 -209.07666016 186.57104492 C-206.74547548 187.91603526 -204.4144027 189.26121748 -202.08349609 190.60668945 C-196.12126252 194.04790073 -190.15713467 197.48569713 -184.1875 200.9140625 C-183.09791992 201.54103027 -182.00833984 202.16799805 -180.88574219 202.81396484 C-178.71163981 204.06314586 -176.53519933 205.30826635 -174.35644531 206.54931641 C-169.30423852 209.44209986 -164.33619703 212.39007322 -159.484375 215.609375 C-147.39736902 223.64257524 -147.39736902 223.64257524 -133.29296875 225.23046875 C-124.46026291 223.16092455 -116.62273504 217.62165954 -109.03076172 212.87744141 C-105.08316696 210.43205687 -101.07038499 208.10949351 -97.04931641 205.78759766 C-94.05594926 204.05871649 -91.07178527 202.31491053 -88.08984375 200.56640625 C-83.89794944 198.10997929 -79.70255265 195.6597126 -75.50390625 193.21484375 C-74.4358374 192.59279053 -73.36776855 191.9707373 -72.26733398 191.32983398 C-70.24230203 190.15062378 -68.21708811 188.971726 -66.19165039 187.79321289 C-60.09904136 184.24250072 -54.03770173 180.64329922 -48 177 C-50.47920705 174.22660553 -53.20522701 172.59211203 -56.43359375 170.76953125 C-57.54323486 170.13958252 -58.65287598 169.50963379 -59.79614258 168.8605957 C-61.00989842 168.17784386 -62.22368506 167.49514678 -63.4375 166.8125 C-64.69649643 166.09971225 -65.95519951 165.38640612 -67.21362305 164.67260742 C-69.83303721 163.18731883 -72.45370805 161.7042825 -75.07519531 160.22265625 C-80.58370731 157.10656562 -86.07387388 153.95850544 -91.56549072 150.81277466 C-100.88463217 145.47696955 -110.21658242 140.16376314 -119.5625 134.875 C-120.4594458 134.36686768 -121.3563916 133.85873535 -122.28051758 133.33520508 C-123.98791077 132.37057525 -125.70069781 131.41541934 -127.41918945 130.47070312 C-129.24870344 129.42813457 -131.04177508 128.32041198 -132.80541992 127.16992188 C-138.64805866 123.25396788 -138.64805866 123.25396788 -145.16796875 124.109375 Z " fill="#000000" transform="translate(310,65)"/>
<path d="M0 0 C7.93798696 7.79233582 7.93798696 7.79233582 8.09765625 13.4765625 C8.09100795 14.85940867 8.07908295 16.24223728 8.0625 17.625 C8.05798828 18.33140625 8.05347656 19.0378125 8.04882812 19.765625 C8.03703875 21.51045275 8.01910324 23.255237 8 25 C8.98355469 24.83886719 9.96710938 24.67773438 10.98046875 24.51171875 C33.90672981 21.26282547 65.95905721 24.40407788 85 38.4375 C89.37419911 42.07474165 92.17987936 45.53963809 94 51 C94.11155375 53.64984386 94.16765042 56.27408522 94.17700195 58.92456055 C94.18357315 59.73144821 94.19014435 60.53833588 94.19691467 61.36967468 C94.2166361 64.04202367 94.228309 66.71431643 94.23828125 69.38671875 C94.24235678 70.30071756 94.2464323 71.21471638 94.25063133 72.15641212 C94.27148926 76.99611815 94.28579099 81.83579586 94.29516602 86.67553711 C94.30621711 91.66444844 94.34060277 96.65291211 94.38033772 101.64166546 C94.40653786 105.48595485 94.41486097 109.33013824 94.41844749 113.17450905 C94.42330632 115.01283598 94.4349002 116.85115841 94.45348549 118.68939781 C94.47794487 121.2694434 94.47689955 123.84833974 94.4699707 126.4284668 C94.48918579 127.55644684 94.48918579 127.55644684 94.50878906 128.70721436 C94.44616007 135.14210524 92.41736732 140.3815843 88.02734375 145.13671875 C62.963364 163.73559718 28.01571108 164.24446174 -1.77832031 160.34716797 C-5.07328343 159.83228472 -8.26144285 159.04723781 -11.5 158.25 C-17.94049881 156.76315631 -22.67166812 157.40877204 -29 159 C-57.37413178 164.44476583 -96.16007203 165.65332728 -121.59375 149.3359375 C-127.02653194 145.33190666 -130.83173928 141.50478216 -133 135 C-133.09805296 133.34334524 -133.13923715 131.68304879 -133.14717102 130.02351379 C-133.15432632 128.99601013 -133.16148163 127.96850647 -133.16885376 126.90986633 C-133.17154266 125.78307968 -133.17423157 124.65629303 -133.17700195 123.49536133 C-133.18357315 122.30808441 -133.19014435 121.1208075 -133.19691467 119.89755249 C-133.21666361 115.95905196 -133.22831687 112.02056475 -133.23828125 108.08203125 C-133.24232995 106.72418383 -133.24644691 105.36633662 -133.25063133 104.00848961 C-133.26968046 97.6268844 -133.28391061 91.24529071 -133.2922433 84.86366254 C-133.30200726 77.50808074 -133.32830558 70.15280054 -133.36874419 62.79732496 C-133.39895763 57.10546426 -133.41371721 51.41368974 -133.41702431 45.72175044 C-133.41936938 42.32544514 -133.42825768 38.92946213 -133.45348549 35.53324318 C-133.47783241 31.73912193 -133.47691927 27.94578678 -133.4699707 24.15161133 C-133.48278076 23.03494583 -133.49559082 21.91828033 -133.50878906 20.76777649 C-133.45437992 12.60616815 -131.94587034 6.71267387 -126.0625 0.875 C-97.28418648 -21.65780719 -29.59001457 -23.06201859 0 0 Z M-120 14 C-120.29467517 16.39682493 -120.29467517 16.39682493 -119 19 C-107.353955 31.68050745 -84.25206459 33.13969305 -68.08496094 33.85717773 C-48.14350498 34.49175233 -21.95918384 33.43931271 -6 20 C-4.58809436 17.39562767 -4.58809436 17.39562767 -4 15 C-12.29622815 3.51739851 -28.67081843 0.89363263 -41.875 -1.25 C-66.30092983 -4.0920107 -101.29228314 -4.70771686 -120 14 Z M-120 34 C-120.14567407 37.56206722 -120.23419196 41.12336551 -120.3125 44.6875 C-120.35439453 45.69490234 -120.39628906 46.70230469 -120.43945312 47.74023438 C-120.58390948 53.78915301 -120.58390948 53.78915301 -117.80859375 59.015625 C-101.66622839 70.42080108 -82.35176478 72.23311936 -63.125 72.25 C-62.4350293 72.25067474 -61.74505859 72.25134949 -61.03417969 72.25204468 C-41.30335023 72.22142985 -18.70786495 70.70786495 -4 56 C-3.72234584 53.67182795 -3.72234584 53.67182795 -3.8046875 50.9921875 C-3.81113281 50.00605469 -3.81757813 49.01992188 -3.82421875 48.00390625 C-3.84097656 46.97136719 -3.85773438 45.93882812 -3.875 44.875 C-3.88402344 43.83472656 -3.89304687 42.79445313 -3.90234375 41.72265625 C-3.92596253 39.14820908 -3.95889851 36.57421788 -4 34 C-5.19753906 34.47050781 -6.39507812 34.94101562 -7.62890625 35.42578125 C-17.67188826 39.29580136 -27.30801537 42.44523713 -38 44 C-38.63542725 44.0928125 -39.27085449 44.185625 -39.92553711 44.28125 C-67.00658341 47.79134974 -94.96935476 45.02502172 -120 34 Z M8 38 C8 48.89 8 59.78 8 71 C22.20271118 78.10135559 49.71025347 71.57518198 64.5625 66.6875 C70.00987782 64.57822463 75.86919679 62.26405493 80 58 C80.94603582 55.52143261 80.94603582 55.52143261 81 53 C73.52305248 42.68696894 57.54749644 39.84501185 45.8125 37.75 C34.47893957 36.28131614 18.88250533 34.37249822 8 38 Z M-120 73 C-120.14567407 76.56206722 -120.23419196 80.12336551 -120.3125 83.6875 C-120.35439453 84.69490234 -120.39628906 85.70230469 -120.43945312 86.74023438 C-120.58644728 92.81686711 -120.58644728 92.81686711 -117.75390625 98.046875 C-96.23685953 113.30719182 -63.75296346 113.73992186 -38.625 109.75 C-27.0245208 107.70907256 -14.77938237 105.03139447 -5.76953125 97.015625 C-3.11518703 92.49210681 -3.57054659 88.32607937 -3.75 83.1875 C-3.76804687 82.20845703 -3.78609375 81.22941406 -3.8046875 80.22070312 C-3.85167113 77.81279229 -3.91734306 75.40690665 -4 73 C-4.68449219 73.27972656 -5.36898437 73.55945313 -6.07421875 73.84765625 C-40.54709321 87.42509011 -82.49459493 89.06452587 -116.97265625 74.34375 C-117.97167969 73.9003125 -118.97070312 73.456875 -120 73 Z M74.9375 75.25 C53.25055404 84.29904483 31.14838763 84.23264711 8 84 C8 92.58 8 101.16 8 110 C22.00729105 117.00364553 49.564336 110.31826019 64.1875 105.6875 C70.9809185 103.26651932 75.94145135 100.05854865 81 95 C81.27765416 92.67182795 81.27765416 92.67182795 81.1953125 89.9921875 C81.18886719 89.00605469 81.18242187 88.01992188 81.17578125 87.00390625 C81.15902344 85.97136719 81.14226562 84.93882812 81.125 83.875 C81.11597656 82.83472656 81.10695313 81.79445313 81.09765625 80.72265625 C81.07403747 78.14820908 81.04110149 75.57421788 81 73 C78.93963835 73 76.76625952 74.43284231 74.9375 75.25 Z M-120 112 C-120.14575327 115.39537852 -120.23421542 118.78994902 -120.3125 122.1875 C-120.35439453 123.14720703 -120.39628906 124.10691406 -120.43945312 125.09570312 C-120.56588409 130.97400009 -120.56588409 130.97400009 -117.75390625 136.015625 C-96.43577048 151.37677815 -63.74078107 151.6980476 -38.75 147.8125 C-27.23196983 145.800499 -15.00220677 142.86350281 -6 135 C-3.86395692 131.79593538 -3.75791092 131.00399253 -3.8046875 127.33203125 C-3.81113281 126.43935547 -3.81757813 125.54667969 -3.82421875 124.62695312 C-3.84097656 123.69818359 -3.85773438 122.76941406 -3.875 121.8125 C-3.88402344 120.87212891 -3.89304687 119.93175781 -3.90234375 118.96289062 C-3.92590944 116.64167032 -3.95880884 114.32096356 -4 112 C-7.10557447 113.02262467 -10.19499755 114.07059051 -13.26953125 115.18359375 C-47.2422751 127.20702349 -86.8231952 126.07850499 -120 112 Z M73.875 114.25 C52.78294476 123.09263124 30.53008787 123.39859981 8 123 C7.97421875 123.94101562 7.9484375 124.88203125 7.921875 125.8515625 C7.36288977 138.12382908 7.36288977 138.12382908 3 143 C2.4225 143.78375 1.845 144.5675 1.25 145.375 C0.8375 145.91125 0.425 146.4475 0 147 C3.99835029 150.99835029 17.54006945 149.23677977 22.875 149.25 C42.86617158 149.24322976 66.07278886 147.92721114 81 133 C81.27741245 130.76964703 81.27741245 130.76964703 81.1953125 128.2109375 C81.18886719 127.26992188 81.18242187 126.32890625 81.17578125 125.359375 C81.15902344 124.37453125 81.14226562 123.3896875 81.125 122.375 C81.11597656 121.38242187 81.10695313 120.38984375 81.09765625 119.3671875 C81.07404116 116.91121866 81.04110799 114.45572832 81 112 C78.23458993 112 76.397255 113.10914352 73.875 114.25 Z " fill="#000000" transform="translate(409,286)"/>
<path d="M0 0 C3.84097177 2.47714846 6.37691599 4.80575564 8.5 8.875 C9.36367324 14.27295774 8.86698589 18.29937383 6.375 23.1875 C1.35751344 29.12926041 -4.08949091 32.34109012 -11.97973633 33.22070312 C-22.61662967 33.82276736 -32.60899743 33.22054812 -41.5 26.6875 C-44.78516758 23.15594485 -46.86396469 19.92475925 -47.09375 14.984375 C-46.72002824 10.08861993 -45.25805747 6.75929708 -42 3 C-30.3231185 -6.16381352 -12.98186496 -7.01020708 0 0 Z M-33 12 C-33.80528889 14.05000871 -33.80528889 14.05000871 -34 16 C-28.19448244 19.99935654 -23.06658898 21.27030668 -16 21 C-11.47389099 20.13435073 -7.31243084 19.31243084 -4 16 C-3.85912001 13.97104162 -3.85912001 13.97104162 -5 12 C-13.30375742 6.39496374 -24.51314324 6.96731251 -33 12 Z " fill="#000000" transform="translate(186,224)"/>
<path d="M0 0 C6.23790323 4.90120968 6.23790323 4.90120968 7.625 9.0625 C8.16070806 13.67310212 8.09834402 17.11581196 6 21.3125 C0.88822997 27.23139162 -4.66977558 31.26139302 -12.53271484 32.36547852 C-14.76012625 32.49928327 -16.95635215 32.53004023 -19.1875 32.5 C-19.97286133 32.49315186 -20.75822266 32.48630371 -21.56738281 32.47924805 C-30.87260593 32.22374675 -38.7773649 29.82930523 -45.375 23.0625 C-48.11576647 18.59221538 -47.89013555 14.155695 -47.375 9.0625 C-45.26297963 3.59609434 -40.41018874 -0.48494539 -35.1875 -2.984375 C-23.58757439 -7.0290859 -10.63137291 -6.10319556 0 0 Z M-33.375 11.0625 C-34.035 12.0525 -34.695 13.0425 -35.375 14.0625 C-31.33518364 18.62646974 -25.76818027 19.80608783 -19.875 20.4375 C-14.45635213 19.85693059 -9.15100136 18.9461378 -5.3125 14.875 C-4.8484375 13.9778125 -4.8484375 13.9778125 -4.375 13.0625 C-9.7810433 8.40729604 -13.17921567 7.90373593 -20.25 7.8125 C-21.44367188 7.78671875 -22.63734375 7.7609375 -23.8671875 7.734375 C-27.74131856 8.09676588 -30.08753566 9.01142895 -33.375 11.0625 Z " fill="#000000" transform="translate(331.375,137.9375)"/>
</svg>
