<svg
     viewBox="0 0 200 200"
     fill="none"
     xmlns="http://www.w3.org/2000/svg">
    <path d="M0 80C0 42.2876 0 23.4315 11.7157 11.7157C23.4315 0 42.2876 0 80 0H120C157.712 0 176.569 0 188.284 11.7157C200 23.4315 200 42.2876 200 80V120C200 157.712 200 176.569 188.284 188.284C176.569 200 157.712 200 120 200H80C42.2876 200 23.4315 200 11.7157 188.284C0 176.569 0 157.712 0 120V80Z"
          fill="#54749F" />
    <path d="M155.335 134.746C152.526 135.14 138.877 134.746 138.167 134.746C134.638 134.782 131.237 133.427 128.699 130.975C125.812 128.198 123.208 125.152 120.447 122.249C119.612 121.369 118.71 120.557 117.748 119.819C115.492 118.083 113.267 118.477 112.21 121.128C111.385 124.002 110.814 126.943 110.506 129.917C110.483 130.539 110.339 131.151 110.08 131.716C109.821 132.282 109.453 132.791 108.997 133.215C108.542 133.638 108.007 133.968 107.423 134.185C106.84 134.401 106.22 134.501 105.598 134.478C103.736 134.572 101.874 134.604 100.028 134.478C93.3111 134.451 86.6967 132.828 80.7297 129.744C74.2851 126.143 68.6676 121.229 64.2402 115.321C57.1531 105.97 51.031 95.9251 45.9675 85.3404C45.6993 84.8197 40.3816 73.5058 40.2553 72.9693C39.9398 72.2333 39.9158 71.4048 40.1883 70.6518C40.4608 69.8988 41.0094 69.2776 41.7228 68.9139C42.6696 68.551 60.2006 68.9139 60.4846 68.9139C61.7893 68.8955 63.0653 69.2964 64.1249 70.0577C65.1845 70.8191 65.9717 71.9005 66.3704 73.1429C69.6128 81.4281 74.0404 89.1989 79.5147 96.2125C80.2827 97.146 81.1808 97.9643 82.1815 98.6425C82.4393 98.8924 82.7591 99.069 83.1078 99.1542C83.4566 99.2394 83.8218 99.2301 84.1658 99.1272C84.5098 99.0243 84.8202 98.8316 85.0649 98.5689C85.3097 98.3062 85.48 97.983 85.5583 97.6326C86.2531 95.3461 86.6612 92.9821 86.7733 90.595C86.868 85.8611 86.7733 82.7052 86.505 77.9714C86.6004 76.3582 86.0558 74.7724 84.9893 73.5583C83.9229 72.3441 82.4207 71.5995 80.8086 71.486C79.42 71.2493 79.2307 70.1132 80.1932 68.9771C82.0394 66.6259 84.5957 66.2472 87.3729 66.1052C91.5703 65.8685 95.7834 66.1052 99.9965 66.1052H100.912C102.761 66.1006 104.607 66.2857 106.419 66.6575C107.478 66.8745 108.439 67.428 109.159 68.2355C109.878 69.0431 110.317 70.0614 110.411 71.1389C110.623 72.3312 110.718 73.5415 110.695 74.7524C110.585 79.928 110.332 85.0879 110.269 90.2478C110.231 92.2922 110.416 94.3346 110.821 96.3387C111.437 99.0843 113.314 99.7786 115.239 97.7904C117.639 95.2102 119.838 92.4513 121.82 89.5377C125.379 84.2458 128.313 78.5587 130.561 72.5906C131.776 69.5293 132.707 68.8508 136.005 68.8508H154.609C155.718 68.8339 156.824 68.9774 157.891 69.2769C158.268 69.3772 158.619 69.5537 158.924 69.7955C159.229 70.0373 159.481 70.3392 159.665 70.6824C159.848 71.0257 159.959 71.4031 159.991 71.791C160.022 72.179 159.974 72.5693 159.848 72.9377C158.764 76.8976 156.897 80.5999 154.357 83.8256C150.57 89.1906 146.593 94.4136 142.712 99.6997C142.217 100.373 141.769 101.08 141.37 101.814C139.919 104.449 140.029 105.917 142.128 108.126C145.505 111.613 149.118 114.864 152.369 118.43C154.763 121.037 156.927 123.846 158.838 126.825C161.237 130.58 159.769 134.115 155.335 134.746Z"
          fill="white" />
</svg>