<svg
	 viewBox="0 0 200 200"
	 fill="none"
	 xmlns="http://www.w3.org/2000/svg">
	<path d="M0 80C0 42.2876 0 23.4315 11.7157 11.7157C23.4315 0 42.2876 0 80 0H120C157.712 0 176.569 0 188.284 11.7157C200 23.4315 200 42.2876 200 80V120C200 157.712 200 176.569 188.284 188.284C176.569 200 157.712 200 120 200H80C42.2876 200 23.4315 200 11.7157 188.284C0 176.569 0 157.712 0 120V80Z"
		  fill="black" />
	<path d="M56.2735 41.3295C54.694 43.1634 53.888 45.5207 54.0206 47.919V152.034C53.8575 154.436 54.6672 156.804 56.2735 158.623L56.6091 159L116 100.682V99.2704L56.6091 41L56.2735 41.3295Z"
		  fill="url(#paint0_linear_148_8)" />
	<path d="M135.389 120L116 100.701V99.2991L135.389 80L135.815 80.2804L159.034 93.271C165.655 96.9626 165.655 103.037 159.034 106.776L135.909 119.766L135.389 120Z"
		  fill="url(#paint1_linear_148_8)" />
	<path d="M136 120.002L116.013 100L57 159.057C58.3383 160.249 60.0514 160.935 61.8421 160.996C63.6328 161.056 65.3882 160.488 66.804 159.389L136 120.002Z"
		  fill="url(#paint2_linear_148_8)" />
	<path d="M136 79.9948L66.804 40.648C65.3974 39.5336 63.6434 38.9512 61.8502 39.0032C60.0571 39.0552 58.3397 39.7384 57 40.9325L116.013 100L136 79.9948Z"
		  fill="url(#paint3_linear_148_8)" />
	<path opacity="0.2"
		  d="M135.432 120L66.804 158.723C65.4397 159.744 63.777 160.296 62.0677 160.296C60.3585 160.296 58.6958 159.744 57.3315 158.723L57 159.052L57.3315 159.428C58.6958 160.448 60.3585 161 62.0677 161C63.777 161 65.4397 160.448 66.804 159.428L136 120.422L135.432 120Z"
		  fill="black" />
	<path opacity="0.12"
		  d="M56.6335 158.368C55.4564 156.576 54.8795 154.298 55.021 152V152.677C54.8963 154.982 55.5154 157.255 56.7435 159L57 158.684L56.6335 158.368Z"
		  fill="black" />
	<path opacity="0.12"
		  d="M158.927 106.161L135 119.573L135.431 120L158.927 106.825C160.314 106.244 161.518 105.303 162.41 104.102C163.303 102.901 163.852 101.484 164 100C163.701 101.349 163.086 102.609 162.205 103.679C161.324 104.749 160.201 105.599 158.927 106.161Z"
		  fill="black" />
	<path opacity="0.25"
		  d="M66.1005 41.2783L158.95 93.8338C160.218 94.396 161.336 95.2469 162.213 96.3179C163.09 97.389 163.702 98.6502 164 100C163.853 98.5146 163.306 97.0963 162.417 95.8942C161.529 94.6922 160.331 93.751 158.95 93.1697L66.1005 40.6143C59.4786 36.8197 54 39.9502 54 47.5395V48.2509C54.1429 40.6617 59.4786 37.5312 66.1005 41.2783Z"
		  fill="white" />
	<defs>
		<linearGradient id="paint0_linear_148_8"
						x1="110.727"
						y1="46.8365"
						x2="31.7599"
						y2="127.257"
						gradientUnits="userSpaceOnUse">
			<stop stop-color="#00A0FF" />
			<stop offset="0.01"
				  stop-color="#00A1FF" />
			<stop offset="0.26"
				  stop-color="#00BEFF" />
			<stop offset="0.51"
				  stop-color="#00D2FF" />
			<stop offset="0.76"
				  stop-color="#00DFFF" />
			<stop offset="1"
				  stop-color="#00E3FF" />
		</linearGradient>
		<linearGradient id="paint1_linear_148_8"
						x1="167.689"
						y1="100"
						x2="53.2926"
						y2="100"
						gradientUnits="userSpaceOnUse">
			<stop stop-color="#FFE000" />
			<stop offset="0.41"
				  stop-color="#FFBD00" />
			<stop offset="0.78"
				  stop-color="#FFA500" />
			<stop offset="1"
				  stop-color="#FF9C00" />
		</linearGradient>
		<linearGradient id="paint2_linear_148_8"
						x1="125.154"
						y1="110.901"
						x2="17.278"
						y2="218.65"
						gradientUnits="userSpaceOnUse">
			<stop stop-color="#FF3A44" />
			<stop offset="1"
				  stop-color="#C31162" />
		</linearGradient>
		<linearGradient id="paint3_linear_148_8"
						x1="42.1283"
						y1="6.04186"
						x2="90.2925"
						y2="54.1617"
						gradientUnits="userSpaceOnUse">
			<stop stop-color="#32A071" />
			<stop offset="0.07"
				  stop-color="#2DA771" />
			<stop offset="0.48"
				  stop-color="#15CF74" />
			<stop offset="0.8"
				  stop-color="#06E775" />
			<stop offset="1"
				  stop-color="#00F076" />
		</linearGradient>
	</defs>
</svg>