<svg
     viewBox="0 0 200 200"
     fill="none"
     xmlns="http://www.w3.org/2000/svg">
    <path d="M0 80C0 42.2876 0 23.4315 11.7157 11.7157C23.4315 0 42.2876 0 80 0H120C157.712 0 176.569 0 188.284 11.7157C200 23.4315 200 42.2876 200 80V120C200 157.712 200 176.569 188.284 188.284C176.569 200 157.712 200 120 200H80C42.2876 200 23.4315 200 11.7157 188.284C0 176.569 0 157.712 0 120V80Z"
          fill="#C8102E" />
    <path d="M100 58.6046C81.5656 58.6046 66.5714 43.5299 66.5714 25H71.2933C71.2933 40.911 84.1724 53.8563 100 53.8563C115.828 53.8563 128.707 40.911 128.707 25H133.429C133.429 43.5299 118.433 58.6046 100 58.6046Z"
          fill="white" />
    <path d="M39.357 92.2108H44.6816V118.606H39.357V107.886H27.3278V118.606H22V92.2108H27.3278V102.858H39.357V92.2108Z"
          fill="white" />
    <path d="M69.367 107.319C69.367 111.61 67.2471 113.903 63.3975 113.903C59.527 113.903 57.3959 111.544 57.3959 107.136V92.227H52.068V107.319C52.068 114.743 56.1723 119 63.325 119C70.5486 119 74.69 114.662 74.69 107.099V92.2108H69.367V107.319Z"
          fill="white" />
    <path fill-rule="evenodd"
          clip-rule="evenodd"
          d="M85.2199 113.095L82.8308 118.59H77.3918L88.9582 92.2108H93.659L105.179 118.59H99.5946L97.2361 113.095H85.2199ZM95.2549 108.335H87.2027L91.2151 98.8907L95.2549 108.335Z"
          fill="white" />
    <path d="M130.933 110.361L124.973 92.2092H120.624L114.664 110.361L108.864 92.2238H103.193L112.346 118.605H116.755L122.724 101.276L128.694 118.605H133.141L142.27 92.2238H136.746L130.933 110.361Z"
          fill="white" />
    <path d="M151.82 107.246H161.51V102.44H151.82V97.0368H165.887V92.2286H146.565V118.588H166.393V113.78H151.82V107.246Z"
          fill="white" />
    <path d="M172.743 118.571H178V92.2092H172.743V118.571Z"
          fill="white" />
</svg>