<svg
     viewBox="0 0 200 200"
     fill="none"
     xmlns="http://www.w3.org/2000/svg">
    <path d="M0 80C0 42.2876 0 23.4315 11.7157 11.7157C23.4315 0 42.2876 0 80 0H120C157.712 0 176.569 0 188.284 11.7157C200 23.4315 200 42.2876 200 80V120C200 157.712 200 176.569 188.284 188.284C176.569 200 157.712 200 120 200H80C42.2876 200 23.4315 200 11.7157 188.284C0 176.569 0 157.712 0 120V80Z"
          fill="black" />
    <path fill-rule="evenodd"
          clip-rule="evenodd"
          d="M123.86 34H123.006C116.62 34.8431 109.954 38.6318 106.318 42.8895C102.398 47.458 99.1622 53.3124 99.7313 61.6538C108.262 62.323 113.537 57.9125 117.389 53.365C121.315 48.7859 124.545 42.4627 123.86 34ZM148.832 122.32V122.083C140.485 118.12 133.803 111.397 132.876 99.9042C131.833 87.2523 137.94 79.8436 145.665 74.9272C141.66 68.6672 135.179 64.6097 126.047 63.2291C119.032 62.1735 113.58 64.1674 108.156 66.1509C107.705 66.3158 107.254 66.4807 106.803 66.6437C106.315 66.8218 105.828 67.018 105.343 67.2137C103.831 67.823 102.33 68.4283 100.822 68.4722C98.5186 68.5424 96.1148 67.5194 93.9882 66.6144C93.4004 66.3642 92.8338 66.1231 92.2963 65.9165C89.6774 64.9259 86.6896 63.9247 83.7651 63.4715C76.9413 62.4282 70.8129 64.7625 66.355 67.5026C57.9082 72.6561 51.5533 83.2897 51 96.3684V101.738C52.3068 120.012 59.3309 134.292 68.4206 145.347C71.5032 149.089 75.7346 153.241 80.9776 154H83.4121C86.4633 153.57 88.9949 152.593 91.5032 151.625C94.8644 150.329 98.1839 149.048 102.656 149.12C106.328 149.183 109.358 150.361 112.362 151.529C115.397 152.709 118.406 153.879 122.026 153.879C129.955 153.879 134.566 147.496 138.276 142.361C138.466 142.097 138.655 141.836 138.841 141.58C143.014 135.805 146.434 129.581 148.832 122.32Z"
          fill="white" />
</svg>