<svg
     viewBox="0 0 200 200"
     fill="none"
     xmlns="http://www.w3.org/2000/svg">
    <path d="M0 80C0 42.2876 0 23.4315 11.7157 11.7157C23.4315 0 42.2876 0 80 0H120C157.712 0 176.569 0 188.284 11.7157C200 23.4315 200 42.2876 200 80V120C200 157.712 200 176.569 188.284 188.284C176.569 200 157.712 200 120 200H80C42.2876 200 23.4315 200 11.7157 188.284C0 176.569 0 157.712 0 120V80Z"
          fill="#4AA0EC" />
    <path d="M35.1194 100.098L62.7699 110.418L73.4724 144.837C74.1572 147.041 76.8528 147.856 78.642 146.393L94.0547 133.828C95.6703 132.512 97.9716 132.446 99.66 133.672L127.459 153.855C129.373 155.246 132.085 154.197 132.565 151.884L152.929 53.9278C153.453 51.4015 150.971 49.2937 148.565 50.2242L35.0871 94.0003C32.2868 95.0803 32.3112 99.045 35.1194 100.098ZM71.7476 104.924L125.787 71.6412C126.758 71.0447 127.757 72.3579 126.923 73.1316L82.3252 114.588C80.7577 116.047 79.7464 118 79.46 120.119L77.9407 131.378C77.7396 132.881 75.6279 133.03 75.2131 131.575L69.3703 111.045C68.7012 108.703 69.6764 106.202 71.7476 104.924Z"
          fill="white" />
</svg>