<svg viewBox="0 0 600 445" fill="none" xmlns="http://www.w3.org/2000/svg">
<g clip-path="url(#clip0_55_3134)">
<path d="M600 392.701H0V393.001H600V392.701Z" fill="#EBEBEB"/>
<path d="M539.881 412.008H513.866V412.308H539.881V412.008Z" fill="#EBEBEB"/>
<path d="M413.6 405.785H372.669V406.085H413.6V405.785Z" fill="#EBEBEB"/>
<path d="M529.333 400.87H475.903V401.17H529.333V400.87Z" fill="#EBEBEB"/>
<path d="M207.618 406.917H194.252V407.217H207.618V406.917Z" fill="#EBEBEB"/>
<path d="M183.569 406.917H137.502V407.217H183.569V406.917Z" fill="#EBEBEB"/>
<path d="M112.802 401.853H79.5684V402.153H112.802V401.853Z" fill="#EBEBEB"/>
<path d="M259.286 174.975L259.826 159.213L250.145 156.051C249.746 150.665 248.845 145.347 247.564 140.223L255.769 134.175L250.195 119.37L240.046 120.187C237.626 115.4 234.784 110.846 231.598 106.573L236.855 97.8015L226.045 86.2735L216.971 90.9178C212.884 87.4454 208.576 84.3016 203.964 81.5212L205.434 71.453L191.036 64.9219L184.44 72.6488C179.414 71.0188 174.208 69.8001 168.821 68.9917L166.368 59.1225L150.557 58.5815L147.434 68.26C142.004 68.6978 136.726 69.5578 131.6 70.84L125.507 62.6777L110.696 68.2084L111.515 78.3547C106.724 80.8136 102.169 83.6539 97.8948 86.8397L89.1612 81.586L77.586 92.3476L82.2312 101.459C78.7596 105.503 75.612 109.853 72.87 114.463L62.7996 112.953L56.2248 127.342L63.996 133.936C62.3664 138.961 61.1028 144.206 60.3372 149.551L50.4204 152.041L49.8804 167.803L59.6028 170.969C60 176.394 60.9024 181.673 62.1852 186.794L53.9808 192.842L59.5548 207.648L69.7044 206.829C72.1236 211.616 74.9664 216.17 78.1524 220.443L72.894 229.214L83.7048 240.744L92.778 236.098C96.8244 239.569 101.174 242.717 105.786 245.497L104.274 255.562L118.672 262.093L125.31 254.367C130.336 255.997 135.542 257.216 140.93 258.024L143.383 267.893L159.194 268.434L162.318 258.756C167.747 258.318 173.026 257.458 178.151 256.176L184.202 264.336L199.013 258.805L198.235 248.663C203.027 246.204 207.54 243.36 211.855 240.175L220.59 245.431L232.164 234.668L227.52 225.557C230.992 221.513 234.139 217.163 236.881 212.553L246.952 214.064L253.526 199.674L245.754 193.08C247.385 188.056 248.646 182.853 249.413 177.467L259.286 174.975ZM152.731 226.037C118.198 224.854 91.1556 195.907 92.3388 161.387C93.5232 126.827 122.484 99.7998 157.018 100.982C191.551 102.165 218.593 131.111 217.409 165.671C216.226 200.19 187.265 227.22 152.731 226.037Z" fill="#EBEBEB"/>
<path d="M529.148 122.852L533.125 119.14L531.536 116.009C532.753 114.599 533.831 113.083 534.768 111.521L538.244 112.046L540.497 107.078L537.822 104.804C538.4 103.047 538.818 101.244 539.083 99.4256L542.506 98.568L542.682 93.1224L539.336 92.0429C539.186 90.2005 538.903 88.3834 538.457 86.5818L541.272 84.4851L539.354 79.3838L535.861 79.6597C535.033 78.0368 534.061 76.4703 532.945 74.9614L534.755 71.9567L531.031 67.9709L527.908 69.5686C526.476 68.3512 524.98 67.2753 523.417 66.3385L523.922 62.8624L518.961 60.6015L516.686 63.275C514.919 62.7065 513.115 62.2891 511.295 62.024L510.446 58.6139L504.998 58.4172L503.909 61.7709C502.075 61.9113 500.247 62.2039 498.453 62.6609L496.367 59.8386L491.253 61.7445L491.539 65.247C489.916 66.0746 488.328 67.0462 486.838 68.1629L483.812 66.3529L479.836 70.0652L481.434 73.2066C480.208 74.6267 479.14 76.1333 478.202 77.695L474.726 77.1696L472.472 82.139L475.147 84.4131C474.569 86.1704 474.151 87.9731 473.886 89.7915L470.464 90.6491L470.287 96.0959L473.633 97.1742C473.773 99.007 474.066 100.835 474.511 102.637L471.688 104.722L473.605 109.824L477.109 109.557C477.937 111.18 478.909 112.746 480.026 114.257L478.217 117.262L481.94 121.247L485.063 119.649C486.493 120.865 487.991 121.942 489.553 122.879L489.038 126.344L493.999 128.605L496.284 125.942C498.053 126.511 499.847 126.917 501.675 127.192L502.524 130.602L507.972 130.799L509.061 127.445C510.895 127.305 512.723 127.012 514.517 126.555L516.603 129.379L521.718 127.473L521.431 123.97C523.054 123.143 524.632 122.182 526.133 121.055L529.148 122.852ZM500.809 99.9054C497.884 96.7736 498.051 91.8618 501.185 88.9375C504.321 86.0096 509.235 86.1776 512.161 89.3105C515.087 92.4423 514.919 97.3541 511.782 100.282C508.649 103.206 503.735 103.037 500.809 99.9054Z" fill="#EBEBEB"/>
<path d="M383.987 284.675L371.578 276.109C371.574 276.099 371.574 276.088 371.571 276.079C370.343 271.572 368.65 267.235 366.58 263.158L369.759 250.686L351.759 231.417L339.088 233.735C335.164 231.395 330.953 229.411 326.543 227.879C326.533 227.877 326.521 227.875 326.512 227.87L318.808 214.904L292.45 214L283.879 226.404C283.864 226.408 283.847 226.413 283.83 226.416C279.327 227.643 274.991 229.332 270.918 231.399L258.447 228.221L239.17 246.214L241.485 258.854C241.482 258.859 241.48 258.86 241.477 258.865C239.087 262.832 237.148 267.042 235.615 271.452L222.646 279.149L221.742 305.497L234.162 314.07C235.389 318.608 237.029 322.936 239.139 327.046C239.14 327.048 239.14 327.048 239.141 327.051L235.971 339.484L253.971 358.751L266.562 356.448C270.537 358.797 274.753 360.783 279.217 362.317C279.221 362.32 279.223 362.32 279.228 362.32L286.919 375.267L313.277 376.17L321.841 363.775C326.398 362.55 330.739 360.859 334.863 358.787C334.863 358.787 334.865 358.787 334.866 358.785L347.281 361.947L366.558 343.956L364.243 331.314C366.634 327.347 368.573 323.135 370.105 318.724L370.107 318.722L383.081 311.02L383.987 284.675ZM301.845 324.725C285.46 324.164 272.661 310.414 273.22 294.084C273.781 277.706 287.49 264.912 303.875 265.472C320.26 266.033 333.06 279.736 332.5 296.113C331.941 312.444 318.229 325.286 301.845 324.725Z" fill="#EBEBEB"/>
<path d="M412.258 209.85C412.229 209.85 412.2 209.85 412.171 209.849L391.391 209.138C390.528 209.109 389.74 208.641 389.299 207.9L383.704 198.482C380.729 197.404 377.797 196.043 374.964 194.43L365.956 196.077C365.106 196.238 364.237 195.946 363.648 195.314L349.457 180.125C348.868 179.494 348.641 178.607 348.853 177.771L351.119 168.883C349.742 166.068 348.59 163.061 347.688 159.923L338.651 153.684C337.94 153.195 337.529 152.376 337.558 151.515L338.269 130.744C338.298 129.881 338.766 129.093 339.508 128.653L348.947 123.05C350.066 119.987 351.424 117.071 352.991 114.357L351.336 105.321C351.181 104.473 351.468 103.602 352.099 103.014L367.297 88.8284C367.928 88.2383 368.816 88.0128 369.653 88.2251L378.575 90.4981C381.461 89.0947 384.46 87.9384 387.514 87.0544L393.75 78.0284C394.24 77.3184 395.045 76.8794 395.922 76.9369L416.702 77.6494C417.565 77.6782 418.354 78.1448 418.794 78.8873L424.4 88.3222C427.379 89.4125 430.288 90.7691 433.073 92.3668L442.138 90.7068C442.988 90.552 443.857 90.8387 444.446 91.4696L458.638 106.662C459.227 107.293 459.454 108.181 459.241 109.017L456.966 117.938C458.371 120.824 459.527 123.82 460.412 126.869L469.442 133.102C470.153 133.591 470.564 134.41 470.536 135.273L469.824 156.045C469.795 156.907 469.327 157.695 468.586 158.136L459.143 163.741C458.023 166.803 456.668 169.718 455.104 172.428L456.758 181.468C456.913 182.316 456.626 183.186 455.995 183.774L440.797 197.957C440.167 198.547 439.28 198.775 438.443 198.56L429.562 196.298C426.635 197.711 423.619 198.866 420.576 199.74L414.346 208.759C413.869 209.443 413.089 209.85 412.258 209.85ZM392.948 204.123L410.959 204.741L416.924 196.107C417.265 195.614 417.772 195.257 418.351 195.101C421.669 194.209 424.961 192.948 428.137 191.351C428.143 191.349 428.148 191.346 428.154 191.343C428.683 191.082 429.3 191.002 429.904 191.159L438.349 193.31L451.522 181.017L449.946 172.412C449.834 171.805 449.95 171.179 450.268 170.648C452.005 167.766 453.479 164.604 454.648 161.252C454.84 160.657 455.246 160.157 455.777 159.845L464.804 154.486L465.421 136.482L456.778 130.514C456.325 130.203 455.987 129.752 455.813 129.232C455.791 129.167 455.772 129.099 455.755 129.03C454.852 125.721 453.594 122.471 452.018 119.368C451.74 118.82 451.672 118.19 451.822 117.595L453.986 109.105L441.686 95.9364L433.06 97.5149C432.455 97.6264 431.832 97.5125 431.305 97.1982C428.305 95.4086 425.137 93.9297 421.89 92.801C421.706 92.7374 421.52 92.6523 421.361 92.5551C421.01 92.3392 420.719 92.0429 420.51 91.6903L415.144 82.6596L397.133 82.0418L391.163 90.6828C390.808 91.1973 390.276 91.5596 389.671 91.7047C386.339 92.6175 383.098 93.8697 380.006 95.4374C379.458 95.7157 378.827 95.7853 378.234 95.6329L369.744 93.4691L356.572 105.765L358.147 114.369C358.247 114.908 358.166 115.466 357.922 115.957C357.887 116.026 357.848 116.093 357.808 116.161C356.066 119.054 354.59 122.225 353.423 125.587C353.226 126.151 352.837 126.628 352.324 126.933L343.29 132.296L342.673 150.298L351.325 156.272C351.818 156.611 352.175 157.116 352.332 157.694C353.264 161.144 354.52 164.42 356.064 167.43C356.153 167.603 356.222 167.785 356.269 167.975C356.371 168.381 356.37 168.807 356.267 169.214L354.109 177.675L366.409 190.84L374.975 189.274C375.576 189.164 376.195 189.276 376.72 189.586C379.774 191.391 382.957 192.868 386.185 193.982C386.768 194.166 387.274 194.561 387.594 195.102L392.948 204.123ZM404.074 181.375C403.63 181.375 403.187 181.367 402.74 181.351C381.805 180.634 365.357 163.027 366.074 142.101C366.792 121.177 384.436 104.74 405.342 105.451C426.277 106.168 442.726 123.775 442.008 144.702C441.661 154.825 437.388 164.216 429.977 171.14C422.884 177.768 413.729 181.375 404.074 181.375ZM404.028 110.494C386.39 110.494 371.748 124.522 371.14 142.275C370.518 160.409 384.772 175.667 402.914 176.288C411.706 176.582 420.088 173.448 426.517 167.44C432.941 161.438 436.644 153.301 436.944 144.528C437.566 126.394 423.311 111.135 405.169 110.513C404.788 110.501 404.406 110.494 404.028 110.494Z" fill="#EBEBEB"/>
<path d="M460.127 60.3603L451.518 58.0502L449.207 49.4464L452.577 46.0771L456.133 53.437L463.496 56.9922L460.127 60.3603Z" fill="#E0E0E0"/>
<path d="M460.661 54.6004C462.229 53.0327 462.229 50.4779 460.661 48.9102C459.092 47.3425 456.548 47.3545 454.98 48.9222L459.262 42.5015L465.005 45.403L466.264 51.4351L460.661 54.6004Z" fill="#E0E0E0"/>
<path d="M451.898 46.756L458.206 40.4504L466.814 42.7606L469.126 51.3655L462.818 57.6711L454.209 55.3597L451.898 46.756ZM463.352 51.9113C464.92 50.3436 464.92 47.7887 463.352 46.2211C461.784 44.6534 459.24 44.6653 457.671 46.233C456.103 47.8007 456.103 50.3328 457.671 51.8993C459.24 53.467 461.784 53.479 463.352 51.9113Z" fill="#F0F0F0"/>
<path d="M108.265 289.919L112.884 288.679L114.125 284.062L112.317 282.255L110.409 286.204L106.457 288.112L108.265 289.919Z" fill="#E0E0E0"/>
<path d="M107.978 286.828C107.137 285.987 107.137 284.616 107.978 283.774C108.82 282.933 110.185 282.939 111.026 283.78L108.728 280.334L105.647 281.891L104.971 285.127L107.978 286.828Z" fill="#E0E0E0"/>
<path d="M112.681 282.619L109.296 279.236L104.677 280.476L103.437 285.094L106.822 288.477L111.441 287.237L112.681 282.619ZM106.534 285.385C105.693 284.544 105.693 283.173 106.534 282.331C107.375 281.491 108.741 281.497 109.582 282.337C110.423 283.178 110.423 284.537 109.582 285.378C108.742 286.22 107.376 286.226 106.534 285.385Z" fill="#F0F0F0"/>
<path d="M91.6355 36.7777L95.4695 40.61C96.4679 41.6079 98.1011 41.6079 99.0995 40.61C100.098 39.612 100.098 37.9796 99.0995 36.9816L95.2655 33.1493C94.2671 32.1514 92.6339 32.1514 91.6355 33.1493C90.6371 34.1473 90.6371 35.781 91.6355 36.7777Z" fill="#F0F0F0"/>
<path d="M88.9342 27.2337C91.8886 26.1734 95.0914 27.5599 96.0874 30.3319C97.0834 33.1038 95.4958 36.2104 92.5414 37.272C89.587 38.3323 86.3842 36.9457 85.3882 34.1738C84.3922 31.4018 85.9798 28.2952 88.9342 27.2337Z" fill="#E0E0E0"/>
<path d="M84.7561 33.5335L85.312 35.0806L96.721 30.9848L96.1651 29.4377L84.7561 33.5335Z" fill="#F0F0F0"/>
<path d="M300 446.872C428.498 446.872 532.667 440.792 532.667 433.291C532.667 425.79 428.498 419.709 300 419.709C171.501 419.709 67.333 425.79 67.333 433.291C67.333 440.792 171.501 446.872 300 446.872Z" fill="#F5F5F5"/>
<path d="M154.416 139.834C154.344 139.834 154.271 139.821 154.199 139.794C148.798 137.703 145.566 135.66 143.888 133.206C142.669 133.451 141.305 133.289 140.01 132.674C138.752 132.076 137.542 131.032 136.673 129.529C135.863 130.154 134.862 130.324 133.763 129.978C132.544 129.596 131.275 128.569 130.22 127.087C129.55 127.571 128.862 127.644 128.358 127.602C124.79 127.312 119.957 120.214 119.61 112.649C119.594 112.319 119.851 112.037 120.182 112.024C120.506 111.996 120.794 112.264 120.809 112.596C121.138 119.775 125.74 126.187 128.456 126.408C128.897 126.451 129.265 126.313 129.575 126.073C127.945 123.215 127.099 119.139 128.347 114.784C129.379 111.179 130.291 109.77 131.386 110.031C133.453 110.546 133.182 118.394 132.086 123.571C131.838 124.745 131.48 125.587 131.072 126.189C132.019 127.587 133.141 128.527 134.124 128.837C135.002 129.112 135.653 128.879 136.133 128.422C135.19 126.099 134.994 122.935 136.274 118.899C137.959 113.587 138.637 113.443 139.043 113.358C139.328 113.296 139.614 113.391 139.817 113.621C140.926 114.872 139.601 123.124 138.204 127.204C138.023 127.734 137.797 128.198 137.536 128.592C138.281 130.052 139.379 131.046 140.527 131.592C141.449 132.03 142.394 132.189 143.255 132.109C143.147 131.882 143.05 131.652 142.962 131.418C142.01 128.843 142.476 125.869 144.384 122.328C145.65 119.98 146.682 118.885 147.632 118.883C147.914 118.883 148.444 118.988 148.817 119.677C149.863 121.607 149.106 127.977 147.037 131.137C146.55 131.882 145.877 132.447 145.096 132.814C146.704 134.927 149.756 136.789 154.634 138.679C154.943 138.799 155.096 139.146 154.978 139.454C154.884 139.689 154.656 139.834 154.416 139.834ZM147.631 120.079C147.628 120.079 146.953 120.084 145.439 122.894C143.704 126.115 143.261 128.766 144.086 130.999C144.187 131.273 144.307 131.539 144.446 131.803C145.087 131.528 145.636 131.082 146.032 130.479C147.712 127.911 148.517 122.637 147.892 120.575C147.763 120.152 147.632 120.079 147.631 120.079ZM139.025 115.026C138.715 115.608 138.194 116.806 137.417 119.259C136.387 122.507 136.381 125.117 136.955 127.113C136.994 127.012 137.032 126.911 137.066 126.812C138.478 122.688 139.165 117.007 139.025 115.026ZM131.122 111.248C130.919 111.434 130.336 112.189 129.499 115.111C128.396 118.965 129.076 122.481 130.372 125.002C130.62 124.481 130.793 123.882 130.912 123.32C132.156 117.43 131.794 112.101 131.122 111.248Z" fill="#263238"/>
<path d="M200.038 202.705C198.208 202.705 196.283 202.288 194.564 201.279C194.279 201.11 194.183 200.744 194.351 200.458C194.518 200.171 194.886 200.079 195.172 200.243C199.452 202.756 204.985 201.002 206.124 199.172C206.256 198.957 206.377 198.685 206.3 198.367C204.607 198.546 202.524 198.097 200.143 196.608C197.089 194.7 196.854 194.133 196.873 193.679C196.885 193.411 197.038 193.177 197.282 193.052C198.478 192.446 203.888 194.94 206.144 196.423C206.44 196.617 206.689 196.827 206.891 197.049C207.888 196.806 208.661 196.291 209.174 195.675C209.527 195.252 209.762 194.791 209.879 194.33C209.8 194.342 209.719 194.351 209.639 194.358C207.72 194.551 205.795 193.729 203.746 191.835C202.337 190.533 201.79 189.636 201.972 188.925C202.03 188.698 202.219 188.295 202.835 188.141C204.494 187.729 208.591 189.474 210.266 191.31C210.643 191.723 210.9 192.209 211.037 192.731C212.603 191.995 214.259 190.346 216.22 187.608C216.413 187.338 216.787 187.277 217.057 187.47C217.327 187.662 217.388 188.037 217.196 188.306C214.93 191.472 213.04 193.267 211.141 193.998C211.067 194.843 210.718 195.702 210.098 196.445C209.49 197.173 208.603 197.8 207.481 198.138C207.601 198.678 207.493 199.248 207.145 199.807C206.131 201.435 203.23 202.705 200.038 202.705ZM198.972 194.386C199.375 194.683 199.954 195.077 200.779 195.594C202.408 196.612 203.858 197.081 205.099 197.179C203.111 195.948 200.51 194.857 198.972 194.386ZM203.16 189.291C203.227 189.478 203.494 189.971 204.559 190.955C206.342 192.603 207.965 193.336 209.516 193.167C209.644 193.154 209.772 193.136 209.9 193.11C209.815 192.745 209.641 192.408 209.38 192.12C207.691 190.269 203.98 189.097 203.16 189.291Z" fill="#263238"/>
<path d="M215.93 201.06L197.232 204.454L180.256 111.841L144.179 118.392L85.3921 222.743L91.7041 257.178L167.108 243.487L172.271 271.651L208.348 265.101L203.185 236.938L221.884 233.542L215.93 201.06ZM121.313 218.239L152.464 163.584L161.156 211.006L121.313 218.239Z" fill="#F96857"/>
<path d="M366.516 105.543C365.818 99.145 364.54 93.4607 362.68 88.489C360.821 83.5172 358.024 78.6438 354.292 73.8687C350.56 69.0937 345.478 64.9484 339.047 61.4351C332.615 57.9231 324.126 55.4774 313.579 54.104C291.629 51.2457 274.518 55.1416 262.241 65.7868C249.962 76.4344 241.885 96.83 238.003 126.972C236.424 139.232 236.033 150.565 236.831 160.971C237.626 171.377 239.537 179.746 242.564 186.08C246.706 194.978 252.566 202.085 260.143 207.396C267.719 212.709 278.098 216.224 291.283 217.941C314.8 221.003 332.226 216.492 343.566 204.402C354.904 192.316 362.426 171.883 366.132 143.109C367.787 130.271 367.914 117.75 366.516 105.543Z" fill="#F96857"/>
<path d="M302.119 205.627C299.233 205.529 296.162 205.269 292.991 204.855C282.006 203.425 273.506 200.646 267.727 196.593C262.025 192.596 257.711 187.338 254.537 180.513L254.478 180.389C252.17 175.564 250.663 168.691 249.996 159.965C249.27 150.504 249.641 139.971 251.098 128.657C255.38 95.4063 264.227 81.5334 270.894 75.752C278.668 69.011 289.159 65.9644 302.97 66.4369C305.8 66.5341 308.796 66.7872 311.875 67.1878C320.738 68.3417 327.751 70.3016 332.719 73.0136C337.53 75.6416 341.29 78.6631 343.891 81.9916C346.776 85.6811 348.937 89.4222 350.316 93.1094C351.784 97.0316 352.819 101.696 353.395 106.973C354.673 118.139 354.552 129.706 353.044 141.424C349.716 167.259 343.289 185.411 333.94 195.377C327.005 202.771 316.597 206.125 302.123 205.628C302.12 205.627 302.119 205.627 302.119 205.627Z" fill="#263238"/>
<path d="M325.603 105.897L325.759 101.353L322.969 100.442C322.854 98.8895 322.595 97.3566 322.225 95.8789L324.59 94.136L322.984 89.8684L320.058 90.1034C319.361 88.7241 318.541 87.4107 317.623 86.1788L319.139 83.6504L316.022 80.3278L313.406 81.6664C312.228 80.6661 310.986 79.7593 309.656 78.9581L310.08 76.0554L305.93 74.1722L304.03 76.3996C302.581 75.9294 301.08 75.578 299.527 75.3453L298.82 72.5002L294.263 72.3442L293.363 75.1342C291.797 75.2601 290.276 75.5084 288.799 75.8778L287.042 73.5257L282.773 75.1198L283.009 78.0441C281.628 78.753 280.315 79.571 279.083 80.4898L276.565 78.9761L273.229 82.0779L274.568 84.7035C273.568 85.8694 272.66 87.1228 271.87 88.4518L268.967 88.0164L267.072 92.1641L269.312 94.0653C268.842 95.5142 268.478 97.0255 268.258 98.5657L265.399 99.2829L265.243 103.826L268.045 104.739C268.159 106.303 268.42 107.824 268.789 109.301L266.424 111.044L268.031 115.311L270.956 115.075C271.654 116.454 272.473 117.768 273.391 119L271.876 121.528L274.992 124.852L277.607 123.513C278.773 124.514 280.027 125.42 281.356 126.223L280.92 129.124L285.07 131.007L286.984 128.78C288.432 129.25 289.933 129.602 291.486 129.834L292.193 132.68L296.75 132.835L297.65 130.046C299.215 129.92 300.737 129.671 302.214 129.302L303.959 131.654L308.228 130.06L308.004 127.136C309.385 126.427 310.686 125.607 311.93 124.689L314.448 126.204L317.784 123.101L316.445 120.475C317.446 119.309 318.353 118.056 319.142 116.727L322.045 117.162L323.94 113.014L321.7 111.113C322.17 109.665 322.534 108.165 322.754 106.613L325.603 105.897ZM294.889 120.615C284.935 120.275 277.14 111.93 277.481 101.981C277.823 92.019 286.17 84.2285 296.124 84.5691C306.078 84.9098 313.873 93.2532 313.531 103.215C313.192 113.164 304.843 120.956 294.889 120.615Z" fill="#F96857"/>
<path opacity="0.3" d="M344.546 189.353L344.876 186.291L343.034 185.54C343.028 184.487 342.937 183.444 342.762 182.428L344.442 181.362L343.589 178.399L341.594 178.415C341.192 177.447 340.718 176.517 340.159 175.643L341.297 174.012L339.371 171.615L337.534 172.38C336.8 171.654 336.008 170.981 335.144 170.376L335.591 168.426L332.89 166.944L331.478 168.369C330.51 167.957 329.509 167.656 328.506 167.425L328.166 165.463L325.103 165.12L324.352 166.961C323.298 166.967 322.27 167.073 321.239 167.248L320.173 165.554L317.208 166.422L317.224 168.415C316.268 168.818 315.34 169.292 314.45 169.851L312.818 168.699L310.422 170.624L311.188 172.461C310.474 173.195 309.787 173.985 309.181 174.849L307.243 174.417L305.761 177.117L307.174 178.513C306.775 179.497 306.461 180.483 306.229 181.499L304.266 181.824L303.936 184.886L305.777 185.651C305.77 186.69 305.874 187.732 306.05 188.749L304.357 189.815L305.225 192.778L307.219 192.776C307.622 193.731 308.095 194.659 308.656 195.535L307.505 197.166L309.431 199.576L311.284 198.797C312.017 199.524 312.808 200.197 313.673 200.803L313.226 202.753L315.928 204.236L317.338 202.824C318.307 203.222 319.308 203.523 320.311 203.754L320.651 205.716L323.714 206.059L324.466 204.218C325.505 204.212 326.548 204.107 327.578 203.932L328.644 205.625L331.595 204.757L331.594 202.764C332.549 202.361 333.478 201.888 334.367 201.329L335.984 202.48L338.395 200.556L337.615 198.718C338.342 197.985 339.016 197.194 339.635 196.331L341.572 196.762L343.054 194.062L341.641 192.666C342.04 191.683 342.341 190.696 342.571 189.693L344.546 189.353ZM329.099 188.164C327.676 190.754 324.413 191.71 321.822 190.287C319.231 188.865 318.289 185.604 319.712 183.015C321.136 180.425 324.383 179.484 326.975 180.905C329.566 182.328 330.521 185.575 329.099 188.164Z" fill="#F96857"/>
<path d="M361.548 137.517L357.971 135.047C357.97 135.045 357.97 135.041 357.969 135.039C357.615 133.74 357.126 132.49 356.53 131.315L357.447 127.72L352.258 122.165L348.606 122.833C347.476 122.158 346.261 121.587 344.991 121.145C344.988 121.144 344.985 121.144 344.981 121.143L342.761 117.406L335.164 117.145L332.693 120.721C332.688 120.722 332.683 120.723 332.679 120.724C331.38 121.078 330.131 121.565 328.956 122.16L325.361 121.244L319.805 126.43L320.472 130.074C320.471 130.075 320.471 130.077 320.47 130.078C319.781 131.221 319.222 132.435 318.78 133.706L315.042 135.925L314.782 143.519L318.361 145.99C318.714 147.297 319.188 148.545 319.795 149.73C319.795 149.731 319.795 149.731 319.795 149.731L318.882 153.315L324.07 158.869L327.7 158.205C328.845 158.882 330.06 159.455 331.348 159.896C331.349 159.898 331.35 159.898 331.351 159.898L333.568 163.629L341.165 163.889L343.633 160.316C344.946 159.964 346.198 159.475 347.387 158.878C347.387 158.878 347.388 158.878 347.388 158.877L350.967 159.789L356.523 154.603L355.855 150.959C356.544 149.816 357.103 148.601 357.545 147.331L361.284 145.11L361.548 137.517ZM337.871 149.062C333.148 148.9 329.459 144.937 329.62 140.23C329.782 135.509 333.733 131.822 338.455 131.983C343.179 132.145 346.867 136.094 346.707 140.814C346.546 145.521 342.593 149.224 337.871 149.062Z" fill="white"/>
<path d="M387.651 76.9142L388.277 75.4065C388.278 75.4065 388.279 75.4053 388.28 75.4053C388.729 75.1738 389.15 74.8955 389.535 74.5837L390.929 74.6364L392.561 72.2951L392.028 71.0069C392.186 70.5391 392.301 70.0485 392.363 69.5471C392.363 69.5459 392.363 69.5447 392.363 69.5435L393.56 68.434L393.057 65.6249L391.549 65C391.548 64.9988 391.548 64.9964 391.547 64.9952C391.315 64.5466 391.038 64.1268 390.726 63.7417L390.779 62.3504L388.436 60.7191L387.15 61.2505H387.149C386.675 61.0873 386.185 60.9782 385.683 60.9158L384.573 59.7188L381.763 60.2213L381.137 61.7302C380.684 61.9629 380.263 62.2352 379.875 62.5519L378.487 62.4991L376.856 64.8404L377.385 66.1203C377.227 66.5941 377.112 67.0846 377.052 67.592L375.855 68.7003L376.358 71.5094L377.865 72.1344C378.098 72.589 378.377 73.01 378.69 73.3986L378.637 74.784L380.979 76.4152L382.266 75.8827C382.74 76.0458 383.231 76.155 383.732 76.2173L384.842 77.4156L387.651 76.9142ZM381.545 69.1333C381.233 67.3869 382.398 65.7208 384.139 65.409C385.886 65.0971 387.552 66.2558 387.865 68.0022C388.178 69.7486 387.017 71.4135 385.271 71.7266C383.529 72.0384 381.858 70.8797 381.545 69.1333Z" fill="#F96857"/>
<path d="M354.728 68.9559L353.812 68.1822C355.405 66.2967 357.665 63.9074 361.021 62.1501L361.578 63.2141C358 65.0864 355.708 67.7984 354.728 68.9559Z" fill="#F96857"/>
<path d="M364.309 62.1345L363.835 61.031C368.375 59.0878 373.117 58.3298 377.922 58.776L377.811 59.9706C373.203 59.5316 368.662 60.2681 364.309 62.1345Z" fill="#F96857"/>
<path d="M362.043 70.4324L361.052 69.7571C363.517 66.1383 368.388 62.9873 372.897 62.0938L373.13 63.2692C368.904 64.1088 364.345 67.0535 362.043 70.4324Z" fill="#F96857"/>
<path d="M282.412 185.865C282.251 185.865 282.095 185.8 281.981 185.682L279.464 183.09C278.183 182.969 276.916 182.734 275.689 182.388L271.768 184.116C271.582 184.201 271.366 184.18 271.194 184.068L264.624 179.714C264.454 179.6 264.353 179.409 264.355 179.204L264.42 174.93C263.622 173.937 262.91 172.859 262.301 171.72L258.935 170.415C258.744 170.34 258.605 170.176 258.563 169.976L256.997 162.253C256.956 162.053 257.021 161.846 257.167 161.703L259.76 159.189C259.88 157.914 260.116 156.646 260.461 155.412L258.734 151.497C258.652 151.31 258.671 151.094 258.782 150.922L263.137 144.354C263.25 144.184 263.411 144.078 263.647 144.085L267.92 144.151C268.924 143.35 270.004 142.639 271.135 142.034L272.441 138.667C272.515 138.476 272.681 138.337 272.881 138.295L280.607 136.729C280.807 136.69 281.015 136.753 281.156 136.899L283.669 139.489C284.946 139.609 286.216 139.845 287.453 140.191L291.368 138.464C291.554 138.383 291.77 138.401 291.942 138.514L298.512 142.866C298.682 142.98 298.783 143.171 298.781 143.376L298.716 147.652C299.515 148.647 300.226 149.725 300.833 150.861L304.201 152.167C304.392 152.241 304.531 152.406 304.573 152.606L306.139 160.328C306.18 160.529 306.115 160.736 305.969 160.879L303.374 163.394C303.256 164.655 303.02 165.92 302.672 167.164L304.402 171.085C304.484 171.272 304.465 171.489 304.354 171.66L300 178.229C299.887 178.399 299.707 178.484 299.491 178.498L295.216 178.433C294.22 179.227 293.141 179.936 292.006 180.543L290.696 183.917C290.623 184.108 290.456 184.247 290.256 184.289L282.53 185.855C282.491 185.861 282.451 185.865 282.412 185.865ZM275.647 181.151C275.704 181.151 275.761 181.159 275.816 181.176C277.102 181.553 278.437 181.802 279.79 181.915C279.935 181.927 280.069 181.991 280.17 182.095L282.613 184.613L289.696 183.177L290.968 179.9C291.02 179.764 291.121 179.652 291.25 179.584C292.453 178.957 293.59 178.211 294.628 177.364C294.737 177.275 294.86 177.214 295.015 177.23L299.18 177.293L303.173 171.272L301.488 167.453C301.432 167.325 301.422 167.178 301.462 167.043C301.841 165.734 302.089 164.398 302.201 163.071C302.213 162.926 302.276 162.792 302.381 162.69L304.9 160.248L303.464 153.17L300.192 151.901C300.053 151.847 299.939 151.744 299.872 151.611C299.248 150.411 298.5 149.28 297.65 148.245C297.56 148.135 297.511 147.997 297.514 147.855L297.577 143.688L291.553 139.698L287.742 141.377C287.612 141.433 287.468 141.443 287.333 141.404C286.032 141.027 284.69 140.777 283.345 140.665C283.2 140.653 283.066 140.589 282.965 140.487L280.525 137.971L273.443 139.407L272.174 142.678C272.122 142.814 272.021 142.926 271.891 142.994C270.696 143.616 269.558 144.365 268.512 145.217C268.403 145.306 268.256 145.37 268.122 145.354L263.958 145.289L259.966 151.311L261.648 155.124C261.72 155.288 261.715 155.475 261.636 155.635C261.298 156.833 261.049 158.17 260.936 159.513C260.924 159.657 260.861 159.791 260.756 159.893L258.239 162.334L259.674 169.412L262.945 170.68C263.092 170.736 263.209 170.848 263.273 170.988C263.894 172.178 264.641 173.308 265.486 174.336C265.576 174.446 265.626 174.586 265.624 174.728L265.56 178.892L271.584 182.884L275.405 181.2C275.482 181.169 275.564 181.151 275.647 181.151ZM281.549 177.271C278.515 177.271 275.45 176.412 272.737 174.615C269.178 172.257 266.749 168.654 265.898 164.471C265.048 160.287 265.879 156.023 268.238 152.465H268.24C273.118 145.118 283.062 143.1 290.407 147.967C297.754 152.84 299.77 162.78 294.9 170.125C291.827 174.759 286.734 177.271 281.549 177.271ZM269.239 153.128C267.058 156.418 266.288 160.362 267.076 164.232C267.862 168.102 270.108 171.434 273.401 173.615C280.201 178.117 289.396 176.255 293.898 169.462C298.403 162.668 296.539 153.473 289.744 148.967C282.949 144.465 273.751 146.332 269.239 153.128Z" fill="white"/>
<path d="M510.991 211.885L492.157 209.344L504.613 116.017L468.276 111.116L380.132 192.23L375.501 226.93L451.452 237.175L447.665 265.557L484.002 270.458L487.789 242.076L506.623 244.617L510.991 211.885ZM415.689 199.029L462.199 156.654L455.821 204.442L415.689 199.029Z" fill="#F96857"/>
<path d="M472.961 269.568C472.925 269.568 472.889 269.564 472.853 269.558C472.528 269.499 472.31 269.187 472.37 268.86L500.362 115.413C500.42 115.089 500.736 114.886 501.059 114.931C501.385 114.991 501.601 115.304 501.541 115.629L473.55 269.076C473.497 269.365 473.245 269.568 472.961 269.568Z" fill="#263238"/>
<path d="M497.797 117.992C497.778 118.534 497.323 118.959 496.78 118.941C496.238 118.922 495.813 118.467 495.831 117.924C495.849 117.382 496.305 116.957 496.848 116.975C497.391 116.993 497.816 117.448 497.797 117.992Z" fill="#263238"/>
<path d="M493.799 138.744C493.779 139.286 493.325 139.711 492.782 139.693C492.24 139.675 491.815 139.219 491.833 138.676C491.851 138.134 492.307 137.709 492.849 137.727C493.392 137.745 493.817 138.2 493.799 138.744Z" fill="#263238"/>
<path d="M489.799 159.494C489.78 160.036 489.325 160.461 488.783 160.443C488.24 160.425 487.816 159.969 487.834 159.427C487.852 158.884 488.308 158.46 488.85 158.478C489.394 158.497 489.818 158.952 489.799 159.494Z" fill="#263238"/>
<path d="M481.935 181.098C481.916 181.64 481.461 182.065 480.919 182.047C480.377 182.028 479.952 181.573 479.97 181.03C479.988 180.488 480.444 180.063 480.986 180.081C481.529 180.099 481.955 180.554 481.935 181.098Z" fill="#263238"/>
<path d="M481.801 200.998C481.782 201.54 481.327 201.965 480.785 201.947C480.242 201.928 479.818 201.473 479.836 200.931C479.854 200.388 480.309 199.964 480.852 199.982C481.395 200 481.82 200.456 481.801 200.998Z" fill="#263238"/>
<path d="M477.803 221.75C477.783 222.292 477.329 222.717 476.786 222.699C476.244 222.681 475.819 222.225 475.837 221.682C475.855 221.14 476.311 220.715 476.853 220.733C477.396 220.751 477.821 221.206 477.803 221.75Z" fill="#263238"/>
<path d="M473.803 242.502C473.784 243.044 473.329 243.469 472.787 243.451C472.244 243.432 471.819 242.977 471.837 242.434C471.857 241.892 472.311 241.467 472.854 241.485C473.397 241.503 473.822 241.958 473.803 242.502Z" fill="#263238"/>
<path d="M469.805 263.252C469.785 263.795 469.331 264.22 468.788 264.202C468.246 264.184 467.821 263.728 467.839 263.185C467.857 262.643 468.313 262.218 468.855 262.236C469.398 262.254 469.823 262.71 469.805 263.252Z" fill="#263238"/>
<path d="M480.953 181.664C480.677 181.664 480.427 181.472 480.367 181.189C480.297 180.865 480.504 180.547 480.828 180.476L483.809 179.836C484.137 179.772 484.452 179.972 484.521 180.298C484.591 180.622 484.385 180.94 484.061 181.011L481.08 181.651C481.037 181.659 480.995 181.664 480.953 181.664Z" fill="#263238"/>
<path d="M490.902 170.613C490.902 170.613 488.216 177.604 487.313 181.841C486.409 186.077 486.354 195.543 486.354 195.543" fill="#263238"/>
<path d="M486.354 196.143H486.35C486.019 196.141 485.752 195.871 485.754 195.54C485.756 195.151 485.819 185.963 486.726 181.715C487.63 177.482 490.231 170.686 490.342 170.397C490.46 170.088 490.806 169.935 491.117 170.052C491.426 170.171 491.581 170.519 491.462 170.827C491.436 170.898 488.784 177.825 487.9 181.965C487.019 186.094 486.955 195.453 486.954 195.547C486.952 195.878 486.684 196.143 486.354 196.143Z" fill="#263238"/>
<path d="M266.942 299.675C268.609 272.803 265.543 223.956 316.075 230.423C370.237 237.353 354.742 300.658 354.742 300.658L266.942 299.675Z" fill="#263238"/>
<path d="M301.817 283.523C313.995 283.523 323.867 273.655 323.867 261.482C323.867 249.31 313.995 239.442 301.817 239.442C289.639 239.442 279.767 249.31 279.767 261.482C279.767 273.655 289.639 283.523 301.817 283.523Z" fill="white"/>
<path d="M304.713 239.477C294.268 237.695 283.101 245.39 282 253.187L323.409 256.993C321.95 248.105 313 240.891 304.713 239.477Z" fill="#263238"/>
<path d="M318.692 260.934C318.395 266.697 315.254 271.219 311.674 271.035C308.094 270.851 305.433 266.031 305.728 260.269C306.024 254.506 309.166 249.984 312.746 250.168C316.325 250.352 318.988 255.172 318.692 260.934Z" fill="#263238"/>
<path d="M301.817 284.722C288.996 284.722 278.566 274.298 278.566 261.482C278.566 248.667 288.996 238.243 301.817 238.243C314.638 238.243 325.067 248.667 325.067 261.482C325.067 274.298 314.637 284.722 301.817 284.722ZM301.817 240.642C290.32 240.642 280.966 249.99 280.966 261.482C280.966 272.975 290.319 282.323 301.817 282.323C313.314 282.323 322.667 272.975 322.667 261.482C322.667 249.99 313.313 240.642 301.817 240.642Z" fill="#F96857"/>
<path opacity="0.3" d="M348.582 298.998C348.535 298.998 348.488 298.992 348.44 298.981C348.119 298.903 347.92 298.579 347.998 298.257C348.037 298.095 351.86 281.831 347.89 265.388C347.812 265.067 348.01 264.743 348.332 264.664C348.65 264.592 348.978 264.783 349.056 265.106C353.098 281.839 349.205 298.372 349.164 298.537C349.098 298.815 348.853 298.998 348.582 298.998Z" fill="white"/>
<path opacity="0.3" d="M345.238 256.396C345.01 256.396 344.792 256.266 344.692 256.045C343.148 252.68 341.234 249.59 339.001 246.861C338.791 246.604 338.83 246.228 339.086 246.018C339.342 245.807 339.72 245.844 339.931 246.102C342.228 248.91 344.197 252.087 345.782 255.546C345.92 255.847 345.788 256.204 345.487 256.34C345.406 256.378 345.322 256.396 345.238 256.396Z" fill="white"/>
<path d="M154.482 425.71C154.333 425.71 154.184 425.709 154.036 425.704C150.724 425.613 148.112 422.856 148.202 419.544C148.292 416.233 151.021 413.673 154.364 413.715C154.402 413.716 154.44 413.716 154.48 413.716C157.946 413.716 166.286 409.506 183.733 382.014C184.67 380.539 186.206 379.543 187.937 379.291C189.671 379.045 191.423 379.559 192.743 380.707C214.272 399.47 237.088 411.149 237.316 411.265C240.269 412.765 241.448 416.375 239.948 419.327C238.448 422.28 234.839 423.461 231.886 421.961C230.98 421.501 211.037 411.31 190.128 394.198C175.505 416.171 164.653 425.71 154.482 425.71Z" fill="#263238"/>
<path d="M191.604 379.63C191.434 379.63 191.263 379.618 191.091 379.594C189.123 379.313 187.755 377.49 188.037 375.521C188.89 369.552 187.833 347.183 180.267 329.791C179.577 328.206 180.112 326.355 181.541 325.382C197.979 314.185 232.992 312.846 234.475 312.794C236.452 312.751 238.128 314.279 238.198 316.266C238.267 318.251 236.712 319.918 234.726 319.986C234.402 319.998 203.79 321.171 188.061 329.824C194.761 347.142 196.281 368.731 195.163 376.54C194.907 378.335 193.367 379.63 191.604 379.63Z" fill="#263238"/>
<path d="M197.652 374.971C195.258 369.326 184.466 369.968 178.13 374.805C174.744 377.39 170.161 385.17 169.679 387.988C169.198 390.808 171.151 393.362 174.506 393.072C178.644 392.714 184.324 386.704 184.324 386.704C180.545 390.408 185.42 393.021 192.696 387.665C196.733 384.693 200.333 381.292 197.652 374.971Z" fill="#F96857"/>
<path d="M404.048 301.258C403.994 301.258 403.937 301.251 403.882 301.234C403.564 301.143 403.379 300.809 403.472 300.493C405.07 294.927 406.816 291.527 409.112 289.636C408.76 288.442 408.8 287.07 409.295 285.727C409.778 284.421 410.71 283.123 412.13 282.123C411.435 281.372 411.176 280.39 411.422 279.266C411.694 278.017 412.602 276.663 413.985 275.48C413.441 274.855 413.308 274.175 413.304 273.672C413.274 270.095 419.913 264.646 427.419 263.621C427.748 263.56 428.05 263.805 428.094 264.135C428.139 264.462 427.91 264.764 427.581 264.81C420.455 265.783 414.48 270.938 414.504 273.662C414.508 274.103 414.671 274.458 414.939 274.745C417.64 272.865 421.628 271.656 426.077 272.51C429.76 273.215 431.258 273.992 431.085 275.11C430.758 277.212 422.914 277.647 417.657 277.022C416.465 276.88 415.593 276.598 414.957 276.247C413.65 277.315 412.812 278.515 412.594 279.521C412.398 280.42 412.689 281.046 413.188 281.484C415.415 280.336 418.551 279.856 422.687 280.77C428.132 281.971 428.334 282.634 428.457 283.029C428.543 283.31 428.474 283.601 428.264 283.823C427.116 285.038 418.776 284.461 414.586 283.435C414.04 283.302 413.559 283.12 413.142 282.894C411.754 283.769 410.861 284.949 410.421 286.142C410.068 287.099 409.988 288.053 410.15 288.905C410.366 288.776 410.586 288.659 410.812 288.551C413.295 287.373 416.297 287.571 419.997 289.152C422.451 290.202 423.634 291.131 423.72 292.077C423.747 292.357 423.692 292.893 423.036 293.327C421.206 294.542 414.792 294.357 411.459 292.583C410.673 292.164 410.05 291.546 409.613 290.801C407.651 292.592 406.07 295.798 404.626 300.823C404.548 301.088 404.308 301.258 404.048 301.258ZM410.558 290.066C410.889 290.68 411.382 291.186 412.02 291.525C414.729 292.966 420.056 293.296 422.055 292.49C422.463 292.324 422.524 292.186 422.524 292.186C422.524 292.183 422.458 291.511 419.523 290.256C416.159 288.818 413.477 288.617 411.326 289.635C411.064 289.76 410.807 289.903 410.558 290.066ZM414.558 282.188C414.662 282.218 414.766 282.246 414.868 282.272C419.105 283.308 424.826 283.486 426.788 283.163C426.18 282.906 424.94 282.496 422.426 281.942C419.098 281.209 416.496 281.438 414.558 282.188ZM416.073 275.444C416.614 275.646 417.226 275.765 417.797 275.832C423.777 276.539 429.056 275.703 429.845 274.959C429.641 274.774 428.836 274.26 425.85 273.69C421.911 272.94 418.469 273.927 416.073 275.444Z" fill="#263238"/>
<path d="M247.832 423.707C248.623 423.454 248.358 422.691 247.476 422.691H231.229C200.292 419.417 178.676 423.806 192.298 424.841C205.918 425.876 191.339 425.659 181.392 429.419C171.445 433.181 255.377 434.128 263.01 429.419C270.049 425.076 236.87 427.219 247.832 423.707Z" fill="#263238"/>
<path d="M364.163 428.493L222.8 423.809L216.934 286.804L383.867 290.536L364.163 428.493Z" fill="#F96857"/>
<path d="M266.943 425.872C266.633 425.872 266.37 425.636 266.345 425.322L255.013 287.718C254.986 287.389 255.232 287.098 255.563 287.072C255.903 287.053 256.183 287.29 256.21 287.62L267.541 425.223C267.568 425.553 267.323 425.843 266.992 425.87C266.975 425.871 266.958 425.872 266.943 425.872Z" fill="#263238"/>
<path d="M364.163 428.493L402.158 422.712L414.125 295.317L383.867 290.536L364.163 428.493Z" fill="#F96857"/>
<path opacity="0.2" d="M364.163 428.493L402.158 422.712L414.125 295.317L383.867 290.536L364.163 428.493Z" fill="black"/>
<path d="M234.881 397.401L231.396 316.004C231.032 307.507 237.929 300.472 246.434 300.663L352.105 303.025C360.93 303.221 367.598 311.083 366.35 319.817L354.635 401.849C353.573 409.284 347.081 414.727 339.572 414.477L249.103 411.48C241.409 411.224 235.211 405.088 234.881 397.401Z" fill="#263238"/>
<path d="M340.799 381.618C340.371 381.618 339.947 381.445 339.635 381.106L329.361 369.868L318.277 379.99C317.635 380.578 316.639 380.531 316.052 379.891L305.779 368.653L294.695 378.775C294.053 379.362 293.056 379.316 292.47 378.676L282.197 367.438L271.112 377.562C270.805 377.843 270.39 377.991 269.979 377.973C269.562 377.954 269.169 377.77 268.887 377.462L258.614 366.224L247.53 376.346C246.888 376.933 245.892 376.886 245.305 376.247C244.718 375.605 244.764 374.608 245.406 374.022L257.652 362.837C258.294 362.248 259.29 362.295 259.878 362.936L270.151 374.174L281.236 364.051C281.543 363.769 281.957 363.623 282.368 363.639C282.786 363.659 283.178 363.842 283.46 364.15L293.733 375.388L304.818 365.266C305.459 364.678 306.456 364.724 307.043 365.365L317.316 376.603L328.4 366.481C329.042 365.892 330.038 365.938 330.626 366.58L341.961 378.98C342.548 379.622 342.503 380.619 341.861 381.205C341.558 381.483 341.178 381.618 340.799 381.618Z" fill="white"/>
<path d="M150.9 431.407L143.391 427.826L136.691 395.24L140.327 391.238L150.9 431.407Z" fill="#F96857"/>
<path d="M150.9 431.407L160.866 425.587L152.322 398.739L140.327 391.238L150.9 431.407Z" fill="#F96857"/>
<path opacity="0.2" d="M150.9 431.407L160.866 425.587L152.322 398.739L140.327 391.238L150.9 431.407Z" fill="black"/>
<path d="M314.339 437.33C314.056 437.33 313.779 437.325 313.51 437.318C310.198 437.226 307.585 434.469 307.677 431.157C307.768 427.848 310.504 425.245 313.839 425.328C323.082 425.63 342.646 419.954 353.821 409.11C354.513 408.439 355.354 407.945 356.277 407.669C375.222 401.986 382.273 413.467 382.565 413.959L372.237 420.065C372.237 420.065 372.276 420.147 372.375 420.284C372.259 420.126 369.577 416.639 361.032 418.797C347.008 431.593 325.48 437.33 314.339 437.33Z" fill="#263238"/>
<path d="M313.674 445.302L291.819 443.925L290.094 403.652L319.467 404.75L313.674 445.302Z" fill="#F96857"/>
<path d="M313.674 445.302L318.783 440.22L321.95 415.108L319.467 404.75L313.674 445.302Z" fill="#F96857"/>
<path opacity="0.2" d="M313.674 445.302L318.783 440.22L321.95 415.108L319.467 404.75L313.674 445.302Z" fill="black"/>
<path d="M440.292 430.051C439.534 430.051 438.768 429.813 438.117 429.318C425.643 419.843 408.783 403.019 402.312 386.789C402.218 386.553 402.149 386.306 402.107 386.054C398.952 367.303 395.938 327.831 395.811 326.159C395.661 324.178 397.145 322.449 399.128 322.299C401.104 322.154 402.839 323.633 402.989 325.615C403.02 326.018 406.065 365.876 409.143 384.477C415.596 400.257 433.091 416.461 442.473 423.587C444.056 424.79 444.364 427.048 443.16 428.63C442.454 429.562 441.38 430.051 440.292 430.051Z" fill="#263238"/>
<path d="M456.934 431.87C454.151 431.87 450.995 430.608 447.557 428.121C445.946 426.955 445.585 424.706 446.752 423.097C447.918 421.487 450.168 421.126 451.778 422.291C454.751 424.441 456.374 424.673 456.935 424.673C458.923 424.673 460.535 426.284 460.535 428.271C460.534 430.259 458.922 431.87 456.934 431.87Z" fill="#263238"/>
<path d="M448.565 428.018C452.417 416.581 468.209 418.841 473.647 420.54C479.086 422.238 483.985 424.375 486.931 426.301C489.877 428.226 489.924 431.44 485.997 433.277C481.153 435.541 469.003 433.532 469.003 433.532C475.293 436.285 468.991 440.695 457.957 436.363C454.365 434.952 447.205 432.209 448.565 428.018Z" fill="#F96857"/>
<path d="M410.235 331.094C408.805 340.812 400.755 347.978 394.205 347.016C387.655 346.054 387.383 337.375 388.812 327.657C390.241 317.939 392.831 310.863 399.381 311.825C405.93 312.788 411.664 321.378 410.235 331.094Z" fill="#263238"/>
<path d="M251.85 292.303C252.393 292.303 252.833 291.862 252.833 291.32C252.833 290.777 252.393 290.337 251.85 290.337C251.307 290.337 250.867 290.777 250.867 291.32C250.867 291.862 251.307 292.303 251.85 292.303Z" fill="#263238"/>
<path d="M261.85 298.4C261.85 298.942 261.409 299.383 260.867 299.383C260.324 299.383 259.883 298.942 259.883 298.4C259.883 297.856 260.323 297.417 260.867 297.417C261.41 297.417 261.85 297.856 261.85 298.4Z" fill="#263238"/>
<path d="M262.95 414.634C262.95 415.177 262.51 415.616 261.967 415.616C261.424 415.616 260.983 415.176 260.983 414.634C260.983 414.09 261.424 413.651 261.967 413.651C262.51 413.65 262.95 414.09 262.95 414.634Z" fill="#263238"/>
<path d="M271.967 421.714C271.967 422.258 271.526 422.697 270.983 422.697C270.44 422.697 270 422.257 270 421.714C270 421.171 270.44 420.731 270.983 420.731C271.526 420.73 271.967 421.171 271.967 421.714Z" fill="#263238"/>
<path d="M243.763 335.973C243.652 331.725 244.749 328.387 247.055 325.956C249.362 323.527 252.628 322.257 256.854 322.145C261.187 322.031 264.556 323.106 266.96 325.371C269.365 327.634 270.622 330.86 270.731 335.05C270.811 338.092 270.363 340.6 269.391 342.574C268.417 344.548 266.977 346.102 265.07 347.236C263.162 348.37 260.764 348.974 257.876 349.05C254.94 349.128 252.498 348.724 250.549 347.841C248.601 346.957 247.003 345.518 245.754 343.525C244.506 341.533 243.841 339.016 243.763 335.973ZM251.807 335.798C251.876 338.426 252.414 340.3 253.421 341.422C254.427 342.545 255.771 343.082 257.453 343.038C259.181 342.994 260.504 342.396 261.421 341.248C262.339 340.099 262.76 338.068 262.683 335.157C262.62 332.707 262.079 330.93 261.061 329.825C260.042 328.721 258.687 328.191 256.995 328.236C255.372 328.279 254.085 328.887 253.132 330.061C252.179 331.235 251.738 333.147 251.807 335.798Z" fill="white"/>
<path d="M273.799 338.81C273.723 335.935 274.633 333.539 276.526 331.623C278.419 329.707 281.017 328.706 284.32 328.62C288.096 328.521 290.978 329.54 292.965 331.679C294.561 333.402 295.394 335.553 295.461 338.133C295.536 341.034 294.638 343.434 292.761 345.337C290.886 347.24 288.249 348.236 284.851 348.325C281.821 348.405 279.35 347.701 277.439 346.211C275.092 344.367 273.879 341.9 273.799 338.81ZM281.044 338.603C281.088 340.282 281.46 341.516 282.162 342.304C282.864 343.091 283.73 343.471 284.76 343.443C285.801 343.415 286.646 342.996 287.294 342.185C287.942 341.375 288.244 340.094 288.198 338.344C288.156 336.71 287.787 335.502 287.091 334.721C286.395 333.94 285.55 333.562 284.556 333.589C283.502 333.616 282.642 334.045 281.977 334.874C281.311 335.702 281 336.945 281.044 338.603Z" fill="white"/>
<path d="M299.413 354.696L298.734 328.67L305.5 328.491L305.573 331.278C306.478 330.083 307.315 329.268 308.085 328.833C309.124 328.25 310.284 327.94 311.562 327.907C314.084 327.84 316.059 328.754 317.489 330.646C318.918 332.539 319.671 334.905 319.744 337.746C319.826 340.883 319.137 343.296 317.676 344.987C316.216 346.677 314.338 347.553 312.041 347.614C310.928 347.643 309.909 347.481 308.98 347.125C308.053 346.77 307.218 346.231 306.477 345.504L306.712 354.504L299.413 354.696ZM306.227 337.96C306.266 339.451 306.608 340.549 307.254 341.255C307.9 341.961 308.703 342.3 309.662 342.276C310.503 342.254 311.199 341.889 311.748 341.182C312.298 340.474 312.551 339.292 312.509 337.635C312.469 336.108 312.143 334.995 311.533 334.295C310.922 333.593 310.19 333.255 309.338 333.277C308.416 333.302 307.655 333.684 307.058 334.42C306.461 335.159 306.184 336.338 306.227 337.96Z" fill="white"/>
<path d="M322.034 341.687L329.191 340.823C329.509 341.667 329.94 342.266 330.481 342.62C331.023 342.972 331.739 343.137 332.627 343.114C333.597 343.088 334.344 342.862 334.866 342.434C335.273 342.116 335.469 341.727 335.457 341.265C335.444 340.745 335.161 340.35 334.609 340.081C334.214 339.891 333.171 339.67 331.483 339.418C328.961 339.048 327.208 338.688 326.221 338.342C325.234 337.994 324.395 337.387 323.703 336.517C323.011 335.649 322.65 334.646 322.621 333.511C322.589 332.27 322.922 331.191 323.62 330.273C324.319 329.355 325.296 328.658 326.551 328.181C327.806 327.704 329.499 327.438 331.63 327.382C333.88 327.322 335.544 327.451 336.625 327.765C337.705 328.081 338.613 328.589 339.348 329.292C340.083 329.995 340.704 330.955 341.208 332.174L334.371 333.029C334.178 332.429 333.871 331.994 333.449 331.721C332.871 331.356 332.179 331.184 331.374 331.207C330.557 331.228 329.966 331.388 329.601 331.688C329.236 331.987 329.058 332.344 329.069 332.758C329.08 333.219 329.327 333.561 329.806 333.784C330.285 334.01 331.322 334.194 332.913 334.342C335.322 334.551 337.12 334.882 338.305 335.336C339.49 335.79 340.405 336.458 341.05 337.34C341.694 338.223 342.031 339.202 342.059 340.278C342.087 341.367 341.787 342.433 341.157 343.478C340.526 344.524 339.512 345.37 338.113 346.016C336.715 346.661 334.796 347.017 332.357 347.082C328.911 347.173 326.445 346.745 324.957 345.802C323.47 344.858 322.496 343.487 322.034 341.687Z" fill="white"/>
<path d="M349.139 323.367L356.723 324.838L355.592 330.661L351.855 342.075L347.165 341.165L348.007 329.19L349.139 323.367ZM345.652 342.716L352.731 344.089L351.516 350.347L344.437 348.974L345.652 342.716Z" fill="white"/>
<path d="M99.0119 433.508C96.1559 433.508 92.2943 431.778 90.2123 428.771C90.0239 428.499 90.0911 428.126 90.3635 427.938C90.6359 427.748 91.0091 427.817 91.1987 428.09C93.4379 431.321 98.3735 433.045 100.565 432.024C100.795 431.916 100.982 431.781 101.125 431.618C99.1667 430.713 97.3763 428.943 96.8939 426.242C96.6215 424.722 96.4055 422.667 97.6607 422.383C99.3815 421.997 101.633 426.156 102.499 429.31C102.66 429.893 102.71 430.434 102.655 430.921C103.413 431.128 104.16 431.182 104.799 431.09C105.319 431.014 106.057 430.801 106.449 430.196C104.991 429.211 104.011 427.475 103.683 425.172C103.218 421.892 103.567 421.32 103.931 421.041C104.167 420.86 104.467 420.825 104.756 420.947C106.039 421.493 107.594 426.146 107.892 428.779C107.924 429.069 107.924 429.347 107.895 429.61C108.386 429.805 108.927 429.912 109.514 429.924C110.555 429.984 111.583 429.653 112.406 429.17C112.236 429.063 112.075 428.944 111.924 428.816C110.678 427.752 110.177 426.052 110.388 423.621C110.551 421.741 110.979 420.713 111.735 420.391C112.001 420.273 112.541 420.164 113.185 420.677C114.481 421.712 115.691 424.993 115.256 427.343C115.166 427.829 114.956 428.295 114.654 428.723C116.856 429.102 119.954 428.485 122.627 427.825C122.947 427.747 123.273 427.941 123.353 428.263C123.432 428.585 123.236 428.909 122.915 428.988C119.663 429.792 116.162 430.446 113.689 429.728C112.59 430.603 111.042 431.133 109.491 431.122C108.785 431.108 108.126 430.982 107.525 430.753C107.052 431.558 106.172 432.102 104.976 432.277C104.179 432.396 103.241 432.319 102.29 432.048C102.02 432.498 101.612 432.859 101.075 433.111C100.499 433.377 99.7931 433.507 99.0119 433.508ZM97.9751 423.58C97.9055 423.764 97.7795 424.37 98.0771 426.032C98.4719 428.239 99.9011 429.706 101.484 430.479C101.477 430.224 101.43 429.941 101.345 429.63C100.401 426.201 98.6099 423.838 97.9751 423.58ZM104.66 422.534C104.653 422.985 104.694 423.743 104.873 425.004C105.116 426.717 105.747 428.031 106.695 428.87C106.415 426.46 105.345 423.671 104.66 422.534ZM112.209 421.492H112.207C112.205 421.493 111.757 421.72 111.582 423.723C111.407 425.741 111.774 427.109 112.703 427.902C112.914 428.082 113.154 428.233 113.421 428.356C113.761 427.981 113.993 427.561 114.073 427.123C114.395 425.385 113.567 422.84 112.638 421.81C112.398 421.542 112.243 421.492 112.209 421.492Z" fill="#263238"/>
<path d="M274.647 442.575L277.899 436.937L274.647 431.3H271.166L273.133 436.937L271.166 442.575H274.647Z" fill="#263238"/>
<path d="M271.395 439.876C269.775 439.876 268.455 438.556 268.455 436.937C268.455 435.318 269.775 434.01 271.395 434.01L265.866 432.905L264.399 437.368L266.867 441.133L271.395 439.876Z" fill="#263238"/>
<path d="M271.868 431.3H265.352L262.1 436.937L265.352 442.575H271.868L275.12 436.937L271.868 431.3ZM268.616 439.876C266.996 439.876 265.676 438.557 265.676 436.937C265.676 435.318 266.996 434.011 268.616 434.011C270.236 434.011 271.544 435.318 271.544 436.937C271.544 438.557 270.236 439.876 268.616 439.876Z" fill="#F96857"/>
<path d="M501.467 430.924L499.052 426.737L501.467 422.551H504.053L502.592 426.738L504.053 430.924H501.467Z" fill="#F96857"/>
<path d="M503.882 428.92C505.086 428.92 506.066 427.94 506.066 426.737C506.066 425.535 505.086 424.564 503.882 424.564L507.989 423.742L509.078 427.057L507.246 429.853L503.882 428.92Z" fill="#F96857"/>
<path d="M503.531 422.551H508.371L510.787 426.737L508.371 430.924H503.531L501.116 426.737L503.531 422.551ZM505.947 428.92C507.151 428.92 508.131 427.94 508.131 426.737C508.131 425.535 507.151 424.563 505.947 424.563C504.743 424.563 503.773 425.535 503.773 426.737C503.771 427.94 504.743 428.92 505.947 428.92Z" fill="#263238"/>
<path d="M411.538 436.481H416.959C418.37 436.481 419.526 435.328 419.526 433.916C419.526 432.505 418.37 431.35 416.959 431.35H411.538C410.125 431.35 408.971 432.505 408.971 433.916C408.971 435.328 410.125 436.481 411.538 436.481Z" fill="#263238"/>
<path d="M402.876 431.642C404.215 428.804 407.46 427.521 410.126 428.777C412.791 430.033 413.867 433.352 412.529 436.19C411.191 439.028 407.945 440.31 405.279 439.054C402.612 437.798 401.537 434.48 402.876 431.642Z" fill="#F96857"/>
<path d="M404.402 439.031L405.889 439.732L411.059 428.772L409.572 428.071L404.402 439.031Z" fill="#263238"/>
</g>
<defs>
<clipPath id="clip0_55_3134">
<rect width="600" height="445" fill="white"/>
</clipPath>
</defs>
</svg>
